{"glyphs":{"0":{"ha":1572,"x_min":-7,"x_max":1646,"o":"m 1646 497 q 1535 51 1646 208 q 1153 -201 1425 -106 q 1010 -226 1103 -219 q 865 -246 907 -235 q 832 -264 858 -264 q 810 -262 825 -264 q 788 -260 794 -260 q 640 -272 738 -260 q 492 -285 542 -285 q 213 -219 304 -285 q 39 10 136 -165 l 35 10 l 38 33 q 15 151 38 69 q -7 274 -7 233 q 946 1118 -7 1118 q 1417 935 1199 1118 q 1646 497 1646 743 m 988 1086 l 988 1100 l 953 1100 l 953 1086 l 988 1086 m 890 1079 l 890 1093 q 821 1083 840 1088 l 826 1081 l 822 1082 l 822 1079 l 828 1079 q 840 1082 836 1079 q 867 1079 850 1079 l 890 1079 m 753 1058 q 663 1046 717 1057 q 688 1044 671 1046 q 713 1042 704 1042 q 753 1058 719 1042 m 675 1011 q 663 1011 669 1011 q 446 985 543 1011 q 574 994 493 988 q 675 1011 656 1001 m 586 963 q 577 964 583 963 q 568 965 571 965 q 513 957 582 964 q 394 946 472 954 q 281 917 329 939 q 547 928 497 931 q 586 963 571 951 m 1607 481 q 1408 897 1607 722 q 972 1065 1217 1065 q 596 926 789 1065 l 588 900 l 522 856 l 528 853 l 511 828 l 497 825 q 350 635 447 763 q 274 415 267 519 l 276 374 l 296 361 l 276 336 l 300 314 l 272 293 l 269 251 l 271 194 q 306 113 278 185 q 353 42 326 61 l 339 32 q 518 -165 408 -111 q 783 -212 611 -212 q 1607 481 1607 -212 m 515 893 l 453 893 q 239 878 336 893 l 235 885 q 193 843 196 857 q 197 842 194 842 q 269 851 222 842 q 342 861 317 861 q 390 858 358 861 q 438 856 421 856 q 515 893 492 856 m 446 828 l 417 828 q 324 824 386 828 q 232 819 263 819 q 215 816 226 819 q 199 813 204 813 q 179 818 188 813 q 151 778 169 813 q 261 783 210 783 l 322 783 q 367 778 338 783 q 413 772 397 772 q 432 796 424 772 q 446 828 439 811 m 389 743 q 263 750 346 753 q 135 754 174 747 q 101 675 103 715 q 81 664 93 665 q 57 575 75 656 q 165 581 97 581 q 276 578 214 581 q 319 646 292 601 q 78 618 239 636 l 76 629 q 86 647 76 642 q 212 672 111 658 q 343 682 313 685 q 389 743 358 703 m 43 457 l 36 403 q 138 414 72 413 q 240 421 211 415 l 240 426 q 235 463 238 438 q 156 468 203 468 l 101 468 q 72 463 92 468 q 43 457 53 457 m 257 543 l 257 547 q 158 550 188 550 q 54 543 101 550 q 46 475 51 515 q 144 499 85 496 q 249 499 197 499 q 257 543 257 525 m 238 383 l 238 388 l 197 388 q 35 365 101 388 q 26 315 26 319 q 221 329 132 335 q 236 356 222 343 q 238 367 236 358 q 238 383 238 376 m 308 47 q 264 151 268 139 q 243 261 243 210 l 243 285 l 238 286 l 236 286 l 238 308 q 158 311 192 311 q 14 292 75 311 q 11 263 11 267 q 21 228 11 246 q 38 231 29 229 q 10 222 22 228 q 28 151 24 157 q 121 160 71 160 q 185 157 139 160 q 122 154 158 154 q 28 146 58 154 q 57 28 44 67 q 163 39 90 28 q 268 49 231 50 l 308 47 m 242 -203 q 393 -169 304 -169 q 421 -173 403 -169 q 449 -176 439 -176 l 463 -175 q 401 -132 417 -158 q 243 -121 289 -121 q 175 -125 207 -121 l 172 -133 q 242 -203 211 -189 m 682 -243 q 597 -236 613 -239 q 521 -201 551 -228 l 449 -201 q 265 -210 378 -201 q 311 -215 285 -215 q 370 -212 331 -215 q 429 -208 410 -208 q 500 -232 499 -208 l 488 -247 q 449 -240 472 -249 q 414 -240 438 -243 q 379 -237 390 -237 l 358 -240 q 514 -253 428 -253 q 682 -243 588 -253 m 326 -24 q 299 31 326 -17 q 79 11 225 22 q 97 -32 86 -18 q 229 -15 161 -15 q 326 -24 276 -15 m 368 -90 q 346 -62 361 -81 q 210 -44 269 -44 q 119 -57 160 -44 q 150 -101 124 -85 q 244 -90 189 -90 l 368 -90 m 1417 118 q 1400 104 1417 104 q 1396 103 1399 104 q 1392 101 1393 101 q 1378 118 1378 101 q 1386 139 1378 129 q 1415 124 1408 135 q 1417 118 1417 119 m 1042 515 q 994 438 1042 476 q 914 382 954 410 q 850 357 897 378 q 775 340 814 340 q 710 382 729 340 l 713 392 l 703 399 q 661 390 697 394 q 674 415 661 410 q 699 428 696 425 q 788 554 696 499 q 943 601 867 601 q 1042 515 1042 601 m 994 551 q 967 561 983 561 q 890 538 936 561 q 790 504 872 528 q 735 447 739 489 l 749 443 q 994 551 833 482 m 997 510 q 757 417 917 481 l 756 410 q 803 418 790 422 q 901 457 826 432 q 996 503 964 478 l 997 510 m 949 436 l 942 447 q 876 418 921 431 q 808 394 825 403 q 949 436 867 400 m 1250 58 q 1222 28 1250 28 q 1204 29 1217 28 q 1186 31 1192 31 q 1240 65 1194 65 l 1250 65 l 1250 58 m 1285 -40 q 1265 -60 1285 -60 l 1256 -60 q 1247 -47 1247 -54 q 1251 -37 1247 -43 q 1254 -28 1254 -31 q 1285 -40 1275 -28 m 651 496 q 638 474 651 479 q 624 489 626 476 q 618 504 621 501 q 636 521 626 521 q 651 496 651 521 m 667 354 q 639 342 657 342 q 629 372 629 349 q 643 381 636 381 q 667 354 661 381 m 621 371 q 603 363 613 363 q 586 379 586 363 q 608 399 586 396 q 621 371 621 389 m 185 157 q 217 163 203 160 l 215 150 l 208 156 l 185 157 m 89 235 q 104 235 96 235 q 207 228 142 235 l 183 228 q 135 231 167 228 q 89 235 103 233 m 38 231 q 79 235 57 235 q 89 235 83 235 q 38 231 61 233 z "},"1":{"ha":813,"x_min":-6,"x_max":875,"o":"m 839 399 q 831 389 839 389 q 817 403 817 389 q 818 410 817 406 l 822 410 q 839 399 839 410 m 840 -242 q 828 68 836 -129 q 804 74 818 74 q 769 68 792 74 q 733 63 746 63 q 696 108 701 63 q 649 1053 649 550 l 643 1058 q 481 1085 589 1068 q 215 860 354 968 l 217 808 q 210 708 218 771 q 199 608 200 638 l 254 606 q 304 622 286 607 q 331 567 331 624 q 379 38 331 419 l 344 40 q 283 32 328 42 q 224 19 233 21 l 218 -12 l 222 -57 l 242 -74 l 219 -97 l 215 -185 l 217 -224 q 292 -236 243 -236 q 355 -233 313 -236 q 418 -229 397 -229 q 588 -235 475 -229 q 757 -242 700 -242 q 840 -239 801 -242 l 840 -242 m 875 -161 q 869 -275 875 -200 l 851 -279 l 853 -278 l 842 -272 l 842 -267 q 774 -276 821 -276 q 606 -267 718 -276 q 438 -258 493 -258 q 254 -274 378 -258 q 69 -285 125 -289 l 38 -282 q 33 -215 33 -269 q 31 -165 33 -199 q 29 -115 29 -132 l 26 -115 l -6 -97 l -6 -82 l 21 -83 l 25 -86 q 26 -64 26 -76 q 18 1 26 -37 q 138 31 47 24 l 139 76 q 117 294 142 149 q 96 513 93 439 l 82 522 l 50 518 q 22 594 26 542 q 22 679 22 601 l 24 853 l 38 853 q 188 969 69 888 q 322 1101 285 1038 q 364 1101 342 1103 q 407 1099 404 1099 q 450 1108 422 1099 q 493 1118 478 1118 q 679 1082 628 1118 l 678 947 q 679 517 675 646 q 729 97 689 246 l 854 97 q 875 -161 875 -51 m 396 1068 q 365 1072 372 1072 q 333 1061 339 1072 l 335 1060 q 396 1068 365 1060 m 264 983 l 231 950 q 264 956 242 951 q 274 954 268 954 q 301 969 285 954 l 296 969 q 282 969 290 968 q 264 983 274 974 m 365 1031 q 339 1026 349 1026 q 313 1033 324 1026 q 281 1000 300 1019 q 315 1007 296 1001 q 357 1019 335 1013 q 365 1031 360 1022 m 240 919 q 188 925 222 918 q 100 865 157 907 q 133 876 110 865 q 163 886 156 886 q 240 919 197 886 m 61 822 q 49 826 54 824 q 46 821 46 822 q 51 818 46 818 l 54 821 l 61 822 m 199 751 q 186 769 199 760 l 186 758 q 185 739 186 751 q 199 751 199 746 m 274 578 q 231 575 272 578 q 192 564 204 574 q 274 578 233 569 m 292 582 l 290 583 q 279 579 286 581 l 292 582 m 303 499 l 300 553 q 229 536 282 544 q 128 525 154 524 l 126 517 q 128 497 126 510 q 131 476 131 483 q 296 503 186 483 q 303 499 297 503 m 314 313 q 306 472 313 356 l 303 471 q 283 461 286 464 l 269 460 l 260 465 q 133 447 217 458 q 129 407 129 429 q 143 303 129 371 l 154 304 q 171 292 169 304 q 194 288 182 288 q 256 299 217 288 q 314 313 296 311 m 64 554 l 60 556 l 61 554 l 64 554 q 81 551 74 551 q 128 570 92 551 q 176 599 165 589 l 165 604 l 165 599 q 64 554 129 572 m 325 222 q 318 281 322 242 q 259 268 300 279 q 194 257 218 257 q 147 265 169 257 q 158 190 153 232 q 211 186 185 186 q 325 222 283 186 m 340 99 q 236 76 286 76 q 175 85 204 76 l 175 103 q 208 100 192 100 q 271 110 229 100 q 333 121 313 121 q 338 119 336 121 l 329 181 q 215 153 279 153 q 161 158 174 153 l 172 42 q 190 53 190 44 q 265 62 214 53 q 344 69 317 71 l 340 99 m 189 -32 q 97 -47 125 -47 q 58 -43 78 -47 l 58 -42 q 58 -37 58 -39 l 63 -37 l 63 -32 l 61 -32 q 101 -19 69 -19 q 145 -14 117 -19 q 188 -8 174 -8 l 186 8 q 72 -8 131 3 q 56 -21 56 -11 q 56 -32 56 -25 l 49 -32 l 49 -37 l 57 -37 q 61 -86 61 -86 q 126 -74 89 -85 q 190 -56 182 -57 l 190 -44 q 189 -32 189 -39 m 60 -171 q 167 -149 96 -149 q 186 -156 171 -150 l 188 -90 q 61 -118 146 -101 q 60 -144 61 -126 q 60 -171 60 -162 m 140 -235 q 140 -237 140 -236 l 185 -231 l 185 -187 l 185 -169 q 160 -192 182 -175 q 149 -179 149 -187 l 60 -179 l 60 -189 q 63 -246 60 -225 l 76 -246 q 121 -240 83 -246 q 98 -235 114 -236 q 71 -221 82 -233 q 106 -210 89 -210 q 132 -214 115 -210 q 131 -219 131 -218 q 135 -226 131 -222 q 140 -235 140 -229 m 479 651 q 469 640 478 640 q 461 643 467 640 l 460 643 q 440 657 454 643 q 447 668 442 657 q 464 679 453 679 q 479 668 472 679 l 479 651 m 443 338 q 435 315 443 326 q 421 313 422 313 q 410 314 417 313 l 410 321 q 408 329 410 324 q 406 338 406 335 q 425 354 406 354 q 443 338 443 354 m 510 61 q 479 25 510 42 q 461 40 461 28 q 465 51 461 44 q 469 63 469 58 q 488 81 469 81 q 510 61 510 81 m 436 13 q 418 -3 436 -3 q 401 17 401 -3 q 417 32 401 32 q 436 13 436 32 m 301 400 q 210 354 271 354 q 146 381 157 354 q 172 386 160 386 q 197 383 181 386 q 221 381 213 381 q 259 396 240 381 q 282 411 278 411 q 301 400 292 411 m 58 -37 l 57 -37 l 56 -32 l 61 -32 q 58 -37 60 -35 z "},"2":{"ha":1225,"x_min":-6,"x_max":1282,"o":"m 60 -53 l 79 -33 q 399 -100 164 -36 l 393 -49 q 76 8 286 -33 l 82 36 q 397 -22 268 -4 l 399 13 q 111 53 301 24 l 144 71 q 201 65 160 71 q 167 75 186 69 q 65 93 107 93 q 60 -53 61 58 m 60 -154 l 111 -147 q 249 -172 158 -147 q 386 -196 339 -196 l 397 -185 l 397 -133 q 231 -90 342 -106 q 60 -56 108 -75 q 60 -154 60 -99 m 1281 -183 l 1279 -244 q 714 -285 1100 -285 q 582 -270 672 -285 q 447 -256 492 -256 q 415 -261 421 -256 q 149 -243 297 -243 q 109 -238 136 -243 q 67 -235 82 -233 l 53 -204 q 393 -226 186 -226 l 403 -222 l 400 -219 q 256 -204 339 -221 q 113 -169 183 -186 l 81 -182 l 60 -157 l 60 -160 l 50 -219 l 26 -200 q 36 -112 36 -161 q 31 -17 36 -81 q 25 78 25 46 q 32 156 25 121 q 185 283 83 197 q 272 451 272 361 l 268 494 q 217 505 253 496 q 161 514 181 514 q 130 503 150 514 q 99 492 110 492 l 94 492 q 32 608 67 529 q -6 731 -6 694 q 11 761 -6 743 l 32 760 q 108 847 60 785 q 186 932 157 906 q 301 999 229 971 q 381 1029 340 1014 q 447 1075 428 1050 q 697 1101 488 1078 q 947 1118 847 1118 q 1174 946 1094 1118 q 1235 649 1235 813 q 1188 439 1235 550 q 1074 256 1143 335 l 1074 254 l 1061 242 q 992 154 1032 213 q 928 64 944 86 l 983 63 q 1246 113 1090 60 l 1276 90 q 1272 18 1272 58 q 1276 -83 1272 -12 q 1281 -183 1282 -147 m 749 1081 l 744 1093 q 693 1085 725 1083 l 646 1086 l 647 1072 q 749 1081 714 1083 m 629 1050 l 618 1050 q 401 1001 536 1050 q 461 978 435 992 q 629 1050 507 1021 m 658 633 l 644 635 q 633 617 633 619 q 636 611 633 614 q 658 633 650 626 m 385 913 q 364 896 375 904 q 372 890 369 893 q 385 911 385 899 l 385 913 m 1249 -189 q 1244 -56 1249 -144 q 1240 76 1240 32 q 935 31 1081 26 l 936 26 l 925 6 q 860 51 889 25 q 1078 318 951 83 q 1199 651 1199 543 q 1175 861 1199 768 q 1060 1017 1140 999 q 982 1067 1033 1046 q 889 1088 931 1088 q 538 976 722 1088 q 276 718 354 865 l 307 676 q 406 583 325 629 q 511 501 492 533 q 594 606 542 531 q 668 685 636 664 q 804 715 717 715 q 901 571 901 715 q 746 267 901 433 q 467 47 618 129 l 465 43 l 436 18 q 429 -112 428 -86 l 432 -206 l 451 -218 l 471 -217 q 621 -233 515 -214 q 771 -251 717 -251 q 1243 -215 1142 -251 l 1249 -189 m 322 850 q 210 874 285 858 q 178 833 201 867 q 290 806 217 828 q 322 850 300 821 m 231 929 l 224 942 q 177 890 204 928 q 133 839 150 853 l 144 831 q 161 850 149 850 q 231 929 196 915 m 276 783 q 154 804 235 790 q 146 782 151 796 q 258 756 183 769 l 268 765 q 271 768 274 765 q 276 783 272 776 m 90 782 q 106 792 97 790 q 104 796 104 794 q 90 782 96 789 m 213 732 q 146 753 185 740 q 113 760 117 757 q 90 782 96 765 q 74 754 79 769 q 213 732 96 751 m 39 701 q 42 704 40 703 q 189 676 128 685 q 254 669 213 676 q 247 679 251 674 q 228 692 239 681 q 172 699 208 692 q 115 707 135 707 q 92 706 103 707 q 53 722 78 722 q 38 719 44 722 l 43 717 q 39 701 40 708 m 321 593 q 288 633 313 603 l 279 633 q 159 647 244 633 q 43 672 74 661 q 47 660 44 665 l 61 626 l 65 629 q 321 593 92 624 m 100 547 q 97 543 100 546 l 100 540 q 131 544 115 543 l 131 544 q 100 547 121 546 m 394 543 q 288 565 351 558 q 178 575 232 571 q 144 581 168 575 q 108 586 121 586 q 101 588 106 586 q 93 590 96 590 l 85 585 l 74 593 q 83 571 78 586 q 106 583 93 583 q 153 574 122 583 q 197 564 185 565 q 394 543 253 558 m 853 499 q 592 550 765 519 q 510 446 581 529 l 483 474 l 456 474 q 306 486 388 474 q 250 306 304 375 q 426 260 317 275 l 608 233 q 604 204 611 215 l 413 229 q 226 279 304 244 l 140 204 q 65 131 72 146 q 394 64 128 121 l 410 58 l 444 75 q 288 106 392 85 q 150 161 176 131 l 151 172 l 161 178 l 182 174 q 486 97 189 164 l 533 133 q 346 171 471 146 q 193 228 194 203 l 211 243 q 389 194 282 217 q 569 158 479 176 q 683 244 606 193 l 779 365 q 853 499 836 438 m 390 -167 q 381 -178 390 -178 q 364 -176 360 -178 q 215 -153 363 -175 q 71 -118 128 -139 q 99 -97 83 -97 q 118 -103 107 -97 q 138 -114 133 -112 q 263 -136 181 -128 q 389 -157 350 -146 l 390 -167 m 981 867 q 951 804 974 846 q 954 831 954 824 q 947 846 954 836 q 940 863 940 856 q 960 883 940 883 q 981 867 981 883 m 940 701 l 926 701 l 926 707 l 940 707 l 940 701 m 965 486 q 938 461 965 461 q 921 467 929 461 l 921 472 q 951 500 921 500 q 965 486 965 500 m 415 739 l 401 739 l 401 753 l 415 753 l 415 739 m 650 19 q 632 -10 650 6 q 626 -11 629 -11 q 604 7 604 -11 q 615 25 604 17 q 635 33 625 33 q 650 19 650 33 m 585 -99 q 560 -118 575 -118 q 549 -114 554 -118 l 549 -103 l 546 -104 q 543 -90 543 -92 q 558 -76 543 -76 q 575 -92 568 -76 q 585 -99 576 -96 m 458 -32 q 451 -40 458 -40 q 442 -33 447 -40 l 451 -25 l 451 -25 l 453 -25 l 451 -25 l 458 -32 m 825 457 q 808 443 825 443 q 750 451 793 443 q 689 463 700 461 q 585 486 625 469 q 597 500 586 500 l 596 497 l 603 501 q 824 468 676 493 q 825 457 825 463 m 775 382 q 760 369 769 369 l 747 376 l 742 375 q 525 400 646 375 q 311 447 525 400 q 356 463 336 463 q 444 451 393 463 q 532 432 488 442 q 765 400 571 425 l 775 382 m 706 326 q 696 311 708 313 l 694 311 l 690 308 q 471 338 617 318 q 292 386 294 363 l 306 401 q 506 361 378 381 q 706 326 650 340 z "},"3":{"ha":1088,"x_min":-7,"x_max":1133,"o":"m 1133 203 q 1038 -90 1133 22 q 774 -257 953 -187 q 643 -275 729 -274 q 515 -285 550 -275 q 236 -224 507 -282 q -7 -150 28 -178 q 28 -33 13 -119 q 57 97 46 67 q 121 158 79 158 l 171 206 l 168 264 l 150 286 l 89 281 q 103 433 89 382 l 121 433 l 175 436 q 192 503 192 469 q 82 607 192 617 l 49 626 q 50 682 50 653 q 42 830 50 732 q 35 978 35 928 l 39 990 q 293 1069 56 1018 q 581 1118 518 1118 q 943 1033 804 1118 q 1114 718 1114 929 q 1085 586 1114 649 q 1015 468 1069 554 q 1083 425 1036 451 q 1133 203 1133 351 m 457 699 q 400 690 425 696 q 290 668 299 668 q 275 671 282 668 l 275 657 q 369 675 288 661 q 457 699 421 683 m 351 717 l 351 722 q 240 704 314 722 q 129 686 167 686 q 86 694 104 686 l 85 700 q 117 719 85 719 q 231 735 160 719 q 343 758 326 756 l 343 763 q 275 764 315 764 q 206 760 251 764 q 138 756 161 756 q 103 765 119 756 l 100 775 l 111 789 q 342 797 224 799 q 332 908 332 868 q 256 896 301 896 q 186 900 251 896 q 117 897 144 903 l 110 900 l 104 908 l 104 917 q 151 931 126 928 q 201 931 167 932 q 251 929 239 929 q 329 950 329 929 q 325 983 329 957 q 324 1017 321 1004 l 315 1025 l 315 1032 q 279 1038 315 1038 q 235 1021 265 1038 q 150 1001 217 1011 q 71 974 90 993 l 86 646 q 145 665 104 656 q 206 685 186 674 l 222 683 q 277 693 238 682 q 334 704 317 704 q 351 717 351 704 m 642 635 l 624 671 l 572 671 q 331 638 468 671 q 294 633 314 633 q 260 635 283 633 q 225 638 236 638 q 167 625 192 638 l 192 603 q 642 635 322 607 m 640 601 q 397 578 499 585 q 218 568 326 579 l 299 567 q 463 572 328 567 q 625 571 563 576 q 640 601 639 586 m 438 483 q 461 469 457 479 l 465 469 q 507 483 485 469 l 438 483 m 224 478 l 224 476 l 225 476 l 224 478 m 594 539 l 518 539 q 224 531 394 539 q 225 503 225 517 q 422 514 235 504 q 594 539 572 521 m 650 321 l 647 333 q 628 329 639 329 q 606 331 621 329 q 585 333 592 333 q 561 328 572 333 q 483 332 510 332 l 483 318 q 563 326 517 326 q 650 321 603 326 m 369 415 q 342 418 356 418 q 307 415 324 418 l 313 401 q 369 415 332 403 m 357 453 q 326 454 338 454 l 308 454 q 217 444 265 454 l 217 442 q 247 438 226 442 q 278 433 268 433 q 357 453 292 433 m 303 401 l 303 415 l 294 415 l 294 401 l 303 401 m 669 308 q 686 314 679 311 l 669 322 l 667 315 q 669 308 667 313 m 199 296 l 206 296 l 215 285 l 229 285 q 374 290 278 285 q 519 294 471 294 q 578 296 551 294 q 439 297 521 297 q 363 295 415 297 q 282 293 310 293 q 204 301 242 294 q 199 296 201 299 m 201 271 q 193 286 199 279 q 192 274 192 281 q 201 271 196 272 m 639 194 q 654 192 647 193 l 649 200 q 639 194 644 197 m 207 250 l 197 240 l 208 228 q 208 233 208 231 q 207 250 208 242 m 285 397 l 283 411 q 215 403 222 403 l 208 403 q 285 397 258 400 m 368 339 l 358 338 l 367 338 l 368 339 m 379 354 l 376 363 q 369 367 374 365 l 371 361 q 375 347 374 353 q 379 354 379 353 m 168 326 l 131 326 q 124 329 126 329 q 119 324 119 329 l 119 318 l 138 318 q 168 326 132 318 q 261 333 172 326 q 328 338 297 336 q 322 340 325 339 q 168 326 269 340 m 311 157 q 233 172 285 163 q 192 176 217 172 l 176 161 q 268 156 226 156 q 311 157 290 156 m 375 107 l 378 126 l 369 126 q 307 118 368 126 q 371 114 335 117 l 375 107 m 371 81 q 351 75 364 75 q 318 81 340 75 q 286 86 296 86 q 151 92 282 86 q 121 96 138 92 q 106 111 113 99 q 90 117 88 117 l 89 117 q 82 61 86 83 q 364 35 176 51 q 371 81 368 60 m 531 -254 q 526 -249 531 -251 l 497 -249 q 451 -239 481 -239 q 447 -240 449 -239 l 451 -244 l 457 -242 q 526 -260 503 -257 q 531 -254 531 -257 m 419 -208 l 389 -206 l 392 -208 q 383 -206 385 -206 l 382 -206 l 401 -217 q 418 -222 411 -222 l 419 -208 m 340 -174 l 340 -168 l 301 -165 q 340 -174 319 -169 m 346 -107 l 343 -108 q 154 -92 269 -103 q 112 -83 142 -90 q 65 -76 82 -76 q 51 -86 57 -76 q 58 -86 54 -86 q 202 -110 108 -86 q 342 -136 296 -135 q 346 -107 343 -131 m 68 -15 l 63 -42 q 225 -64 85 -47 q 347 -81 322 -75 l 350 -53 q 78 -24 333 -51 q 68 -15 72 -19 m 357 -21 l 357 4 l 217 13 q 78 31 147 18 l 74 11 l 75 13 q 357 -21 222 -11 m 342 -224 l 342 -210 l 333 -210 l 333 -224 l 342 -224 m 317 -218 l 317 -204 l 306 -204 l 306 -218 l 317 -218 m 300 -215 l 300 -201 l 289 -201 l 289 -215 l 300 -215 m 249 -194 q 122 -161 164 -178 l 119 -175 q 246 -207 140 -175 l 249 -194 m 750 308 l 738 304 q 722 301 728 301 q 717 303 719 301 q 725 260 725 283 q 683 178 725 204 q 593 150 657 161 q 499 128 522 138 l 469 133 l 417 129 q 376 -139 376 -64 q 485 -212 376 -178 q 629 -243 579 -243 q 738 -226 707 -243 l 746 -228 q 1000 -89 890 -228 q 1103 189 1103 40 q 1081 351 1103 311 q 963 465 1064 382 q 1081 722 1081 589 q 929 1000 1081 906 q 607 1079 803 1079 q 481 1068 558 1079 q 356 1051 375 1053 q 364 882 364 888 q 386 715 371 783 q 513 746 481 746 q 649 701 589 746 q 669 664 650 697 q 683 624 683 640 q 521 458 683 513 q 462 440 501 451 q 403 421 422 428 l 403 411 q 411 346 403 421 l 456 346 q 511 354 475 346 q 567 363 547 363 q 707 318 671 363 q 728 343 710 326 q 750 322 750 338 l 750 308 m 335 822 l 285 822 q 197 819 256 822 q 108 817 138 817 q 98 822 107 817 q 85 829 89 828 q 108 850 92 850 q 127 848 115 850 q 146 846 139 846 q 235 849 175 846 q 324 851 294 851 q 335 822 329 849 m 921 128 q 919 122 921 126 l 911 122 q 899 132 899 122 q 900 138 899 135 l 913 136 q 911 139 911 138 q 921 132 921 139 l 921 128 m 925 114 q 892 96 889 96 q 854 110 882 96 q 863 107 858 108 q 858 113 858 110 q 875 128 858 128 q 897 118 879 128 q 925 114 900 117 m 828 186 q 807 167 828 167 q 792 181 792 167 q 806 203 792 190 q 828 186 828 200 m 768 58 q 765 47 768 54 l 751 47 q 725 64 725 47 q 740 85 725 85 q 750 82 744 85 q 760 79 756 79 q 768 58 768 56 m 901 -249 q 899 -251 899 -250 l 886 -244 q 894 -236 889 -239 l 901 -249 z "},"4":{"ha":1003,"x_min":-7,"x_max":1065,"o":"m 1065 410 q 1024 388 1063 383 q 997 390 1000 390 l 915 379 q 919 286 919 335 q 900 18 919 240 q 872 -237 881 -210 l 846 -231 q 586 -258 758 -231 q 326 -285 414 -285 q 253 -267 299 -285 q 181 -243 203 -246 l 169 -197 q 206 76 169 -76 q 274 344 224 151 l 221 349 q 133 335 192 351 q 49 318 75 318 l 10 322 l -7 365 q 8 726 -7 543 q 85 1035 32 1017 q 165 1047 113 1044 q 246 1053 201 1050 q 401 1097 271 1057 q 558 1122 499 1128 l 621 1117 l 592 1093 l 597 1088 q 890 1115 782 1115 l 976 1101 q 956 888 964 1029 q 938 678 949 746 q 1022 689 1021 688 l 1021 689 q 1022 689 1022 689 l 1060 683 q 1064 411 1057 592 l 1065 410 m 722 1072 q 711 1075 717 1075 l 708 1075 q 719 1063 714 1071 q 707 1038 714 1038 q 682 1050 693 1038 q 639 1044 656 1050 q 713 1035 667 1039 q 722 1072 718 1057 m 708 999 q 594 1017 671 1006 q 593 1001 594 1011 q 592 985 592 990 q 706 974 629 982 q 708 999 707 982 m 699 917 l 699 940 q 589 951 663 944 q 591 936 589 946 q 593 922 593 926 q 619 925 604 925 q 659 921 633 925 q 699 917 685 917 m 576 751 q 582 758 579 756 q 601 757 592 757 q 681 765 606 757 l 681 769 q 581 783 644 774 q 576 751 581 793 m 585 732 q 578 733 581 732 l 578 731 l 585 732 m 1032 497 q 1024 653 1032 596 l 1006 656 q 933 639 986 656 l 922 625 l 897 646 l 886 647 q 922 851 908 675 l 940 1081 l 888 1085 q 763 1076 846 1079 q 715 706 733 978 q 654 699 692 699 l 621 699 q 564 692 592 699 l 540 724 q 561 1035 544 894 l 538 1068 l 550 1082 q 519 1078 533 1078 q 503 1079 511 1078 q 347 1036 482 1067 l 324 1006 q 249 385 294 800 l 275 382 q 529 406 510 382 l 576 419 l 608 406 q 582 147 582 289 q 585 118 582 128 q 554 -32 564 65 q 532 -183 544 -142 l 539 -207 l 521 -233 q 686 -221 553 -228 q 849 -192 789 -215 q 869 64 850 -110 q 889 321 889 232 q 883 417 889 371 l 915 413 q 968 419 932 413 q 1024 424 1004 425 q 1032 497 1032 435 m 565 378 q 524 363 546 368 q 547 365 546 364 q 565 378 564 368 m 496 358 q 375 353 471 360 q 313 347 357 351 q 342 346 326 346 q 415 351 367 346 q 489 356 464 356 q 496 358 492 356 m 26 531 q 25 501 25 511 q 26 478 25 489 q 218 468 90 472 l 221 465 l 224 493 q 168 499 206 496 q 113 506 131 503 q 26 531 42 514 m 236 563 l 29 579 l 29 561 q 29 550 29 557 l 31 551 q 133 538 65 543 q 231 525 200 532 l 236 563 m 286 279 q 261 115 261 182 l 261 104 q 529 61 350 89 l 535 57 l 539 101 q 413 131 489 117 l 285 154 l 285 172 q 311 183 303 183 q 544 135 360 183 l 551 192 q 308 218 435 203 q 292 238 292 228 q 319 256 292 251 q 554 229 335 240 l 556 256 q 301 267 444 256 q 286 279 290 271 m 557 315 q 556 335 557 326 q 486 317 524 329 q 447 321 468 321 q 388 315 428 321 q 329 310 349 310 q 296 313 311 310 q 290 294 293 304 l 297 301 q 556 290 342 301 q 557 315 557 303 m 211 381 q 156 383 186 383 q 90 381 133 383 q 25 379 47 379 q 32 351 25 369 q 51 349 40 349 q 101 360 68 349 q 150 371 133 371 q 165 368 158 371 q 211 381 186 372 m 221 -76 l 211 -122 l 499 -175 l 504 -146 q 239 -89 317 -89 q 221 -76 222 -89 m 238 -6 q 225 -61 231 -31 q 240 -56 229 -56 q 372 -79 264 -56 q 510 -114 476 -103 q 521 -68 511 -103 l 378 -43 q 306 -28 336 -36 q 238 -6 246 -15 m 532 28 q 256 69 440 46 q 243 19 250 49 l 246 19 q 381 -4 265 21 l 525 -35 l 532 28 m 489 -210 q 204 -154 394 -187 q 203 -194 203 -187 l 203 -204 q 221 -196 211 -196 q 326 -213 257 -196 q 432 -231 396 -231 q 445 -229 436 -231 q 458 -228 454 -228 q 478 -240 472 -228 l 482 -240 q 489 -210 486 -240 m 349 -251 l 249 -231 q 336 -253 308 -253 q 349 -251 342 -253 m 688 829 q 679 829 685 829 q 637 833 665 829 q 594 838 608 838 l 594 844 q 613 865 594 856 q 690 857 650 863 l 693 879 l 604 890 q 589 889 596 890 l 582 817 l 685 801 q 688 829 686 804 m 279 899 q 271 897 276 897 q 101 911 194 897 l 101 917 q 110 929 100 926 l 113 929 l 111 928 l 118 932 l 182 932 q 282 919 238 932 q 285 1015 286 972 l 290 1019 l 290 1025 q 183 1017 286 1024 q 90 1001 100 1011 q 39 765 58 969 q 44 769 42 768 q 265 740 94 753 l 271 813 q 239 810 256 810 q 69 844 190 810 l 68 857 q 75 867 68 864 q 88 867 81 869 l 92 875 q 265 840 218 840 l 272 840 q 279 899 276 871 m 247 636 q 238 635 243 635 q 42 664 188 635 q 39 674 39 669 q 60 693 39 690 q 156 672 94 678 q 253 663 232 667 l 260 704 q 132 717 217 708 q 38 740 58 725 q 29 615 33 683 l 38 615 q 69 611 49 617 q 99 606 90 606 q 242 597 142 604 q 247 636 244 613 m 806 715 l 804 717 l 806 719 l 807 717 l 806 715 m 828 718 q 821 708 828 708 q 807 715 817 708 l 807 715 q 807 717 807 717 l 806 719 l 806 721 q 803 726 803 724 q 814 749 803 733 q 828 718 828 724 m 801 711 l 806 715 l 807 715 q 803 710 806 713 l 801 711 m 810 708 q 785 681 806 699 l 781 685 q 771 682 765 682 q 757 699 757 682 q 782 717 757 717 q 801 711 783 715 l 801 710 l 803 710 l 810 708 m 674 239 q 653 219 674 219 q 635 236 635 219 q 653 256 635 256 q 674 239 674 256 m 714 175 q 694 153 714 153 q 675 164 689 153 q 674 172 674 168 q 682 185 674 181 l 692 190 q 697 192 694 192 q 713 183 701 190 q 714 175 714 179 z "},"5":{"ha":999,"x_min":-7,"x_max":1054,"o":"m 1054 267 q 903 -137 1054 50 l 896 -135 q 794 -197 832 -196 q 667 -235 750 -232 q 557 -249 576 -239 q 519 -249 543 -246 q 482 -251 493 -251 q 263 -236 406 -251 l 261 -232 l 138 -232 q 42 -189 64 -232 q 28 -75 28 -161 q 31 -14 28 -57 q 31 47 33 25 l 36 54 q 51 174 43 151 q 97 206 63 204 q 210 206 135 204 l 236 207 l 253 249 l 229 264 l 246 283 q 215 346 235 325 l 186 343 l 182 354 l 200 374 q 101 413 178 413 l 71 422 q 35 769 32 632 l 17 768 l -7 790 l 31 803 q 22 869 33 849 q 33 910 33 885 q 32 926 33 915 l 32 940 q 75 996 32 983 q 324 1061 201 1035 l 324 1061 q 317 1071 317 1061 q 331 1085 317 1085 q 342 1076 342 1085 q 335 1064 342 1067 q 854 1121 604 1121 q 896 1119 876 1121 q 936 1119 925 1118 q 950 932 946 1085 q 951 874 951 888 q 919 792 951 804 q 760 782 894 782 q 674 772 711 782 l 667 713 l 668 650 q 733 657 714 657 q 968 528 872 657 q 1054 267 1054 411 m 1021 319 q 932 517 1021 413 q 749 624 839 624 q 699 617 732 624 q 647 611 665 611 l 638 611 l 629 640 q 646 806 629 769 q 904 815 682 811 q 917 1018 917 992 q 907 1085 917 1063 l 829 1086 q 589 1061 719 1088 l 356 1013 q 344 838 354 954 l 356 829 l 350 804 q 369 522 350 618 q 483 529 450 529 q 656 467 590 529 q 722 299 722 406 q 649 192 722 218 q 494 175 601 175 q 346 160 386 175 q 339 1 344 107 q 346 -92 344 0 l 349 -210 q 443 -212 356 -210 q 538 -214 486 -214 q 1021 319 1021 -214 m 314 917 l 318 1007 l 315 999 q 113 953 161 953 q 75 957 92 953 q 63 935 63 951 q 65 913 63 933 q 65 890 67 900 q 97 888 81 888 q 195 905 131 888 q 293 922 260 922 q 314 917 304 922 m 313 890 l 311 890 q 263 883 296 889 q 164 863 229 876 q 67 854 115 853 q 64 807 65 839 l 85 807 q 197 815 140 807 l 308 832 q 313 890 310 838 m 643 444 l 626 446 l 639 432 l 643 444 m 543 399 l 546 403 l 553 403 l 549 415 q 542 403 542 410 l 543 399 m 69 710 l 60 710 l 69 703 l 69 710 m 319 708 l 324 708 l 331 722 q 326 742 331 728 l 318 742 q 319 708 319 722 m 72 624 l 72 638 q 69 633 69 635 q 72 624 69 629 m 142 457 l 136 456 l 136 456 l 142 457 m 339 500 l 335 503 l 335 510 q 294 483 297 503 l 294 481 l 294 479 q 318 474 300 474 l 332 474 l 329 488 q 294 481 311 483 l 294 483 q 338 496 325 490 l 339 500 m 685 304 q 679 333 685 310 q 506 313 654 332 q 279 294 428 311 l 279 286 l 478 286 q 565 294 507 286 q 651 301 622 301 q 683 299 668 301 l 685 304 m 456 492 l 401 488 l 401 489 l 399 482 q 390 475 394 479 q 456 492 424 483 m 606 257 l 549 257 q 426 260 511 257 l 303 264 l 303 250 l 408 249 q 606 257 504 247 m 649 261 q 631 264 638 264 q 610 257 618 264 q 649 261 629 260 m 518 201 q 510 204 514 203 q 579 208 558 206 q 643 226 622 214 q 528 221 593 221 q 290 233 357 221 l 288 235 l 288 235 q 279 236 283 235 q 275 221 275 228 q 281 211 275 215 l 279 207 l 292 207 q 307 199 304 204 q 344 200 322 200 l 346 199 l 347 199 q 376 197 360 199 q 444 193 425 193 q 518 201 478 193 m 308 168 q 225 175 281 168 q 142 182 169 182 q 74 149 74 182 l 75 142 q 128 139 100 139 q 215 143 163 139 l 304 150 l 308 168 m 303 71 l 303 113 l 276 113 q 174 107 254 113 q 71 106 111 103 q 69 83 69 96 l 69 58 q 97 57 82 57 q 200 65 129 57 q 303 71 267 72 m 314 44 l 301 50 l 301 36 l 314 44 m 308 -82 q 303 -33 307 -61 q 182 -51 263 -33 q 61 -68 101 -68 q 60 -87 61 -75 q 58 -107 58 -100 q 176 -96 110 -106 l 294 -79 q 306 -82 297 -82 l 308 -82 m 314 -204 l 314 -196 q 311 -192 314 -192 q 201 -196 293 -193 q 314 -204 269 -199 m 201 -196 l 85 -192 q 68 -186 74 -186 l 63 -197 q 86 -199 79 -199 l 125 -199 q 201 -196 147 -199 m 629 633 q 617 619 629 619 q 613 618 615 618 q 600 633 600 618 q 615 651 600 651 q 629 633 629 651 m 579 563 q 578 553 579 558 q 569 550 575 553 q 560 547 564 547 q 546 567 546 547 q 563 583 546 583 q 579 563 579 583 m 686 97 q 676 86 686 86 q 667 96 667 86 q 668 101 667 99 l 679 103 q 675 106 676 103 l 678 106 q 686 97 686 106 m 711 22 q 707 10 711 17 q 681 3 693 3 q 664 26 664 3 q 689 39 664 39 q 711 22 711 39 m 715 -118 q 700 -132 715 -132 q 685 -111 685 -132 l 685 -99 q 715 -118 715 -103 m 588 -107 q 571 -125 588 -125 q 559 -117 565 -125 q 544 -111 553 -110 q 564 -85 546 -85 q 588 -107 588 -85 m 510 204 l 506 204 q 478 200 497 204 q 450 196 460 196 q 415 200 438 196 q 379 204 392 204 q 347 199 363 204 l 344 200 q 296 207 324 207 l 292 207 l 290 208 q 281 211 283 210 q 288 235 283 226 l 290 233 q 383 224 304 229 l 399 222 q 510 204 467 217 m 353 -276 l 339 -279 q 333 -267 333 -269 q 342 -254 333 -260 q 353 -267 353 -257 l 353 -276 z "},"6":{"ha":1156,"x_min":-4,"x_max":1225,"o":"m 1225 168 q 1072 -158 1225 -22 q 728 -285 918 -294 l 354 -267 q 171 -214 196 -214 q 85 -170 135 -214 q 32 -90 36 -126 l 1 -76 l 21 -53 l 17 -32 l -4 -22 q 11 74 11 10 q 28 247 11 132 q 44 419 44 361 q 42 467 44 446 l 53 479 q 165 760 101 574 q 274 1043 232 958 q 311 1068 276 1044 q 351 1082 331 1082 q 461 1110 381 1099 q 579 1118 525 1118 q 724 1111 628 1118 q 869 1104 821 1104 q 928 1106 900 1104 l 956 1088 q 983 964 956 1044 q 1011 840 1011 883 q 931 722 1011 788 q 806 632 868 678 q 685 475 719 567 q 811 511 749 511 q 1096 426 981 511 q 1225 168 1225 332 m 756 1076 q 697 1081 731 1078 q 594 1085 629 1085 q 242 901 249 1085 l 250 896 q 558 925 267 896 l 571 926 l 618 978 l 590 978 q 462 967 547 978 q 333 957 376 957 l 296 957 q 274 979 274 961 l 288 1000 q 367 996 325 996 q 633 1017 397 996 l 650 1001 q 756 1076 685 1031 m 531 883 q 376 868 510 882 q 221 861 283 858 q 203 818 213 847 q 265 815 232 815 q 371 823 300 815 q 476 831 442 831 q 531 883 496 831 m 1193 174 q 1079 399 1193 311 q 832 479 974 479 q 739 457 793 479 q 649 422 661 425 l 633 446 q 694 567 638 451 q 794 679 725 629 q 965 783 817 696 q 974 842 974 819 q 950 957 974 889 q 913 1068 917 1053 q 607 917 765 1065 q 393 635 478 796 l 404 626 q 294 429 336 579 q 263 199 258 301 l 267 99 q 279 69 279 82 q 274 53 279 60 q 308 -43 286 21 q 461 -181 357 -92 q 550 -229 504 -212 q 726 -254 619 -254 q 1044 -129 901 -254 q 1193 174 1193 1 m 147 678 q 128 619 138 651 l 160 619 q 256 625 201 619 l 350 635 q 385 688 363 653 q 158 668 310 682 l 147 678 m 458 797 q 321 785 410 786 q 183 779 221 782 q 157 706 172 750 q 281 710 219 707 q 404 724 354 713 q 458 797 422 749 m 332 600 q 113 579 258 592 q 104 546 108 567 q 168 540 132 540 q 239 543 192 540 l 306 547 q 332 600 318 576 m 288 508 q 227 506 267 508 q 167 503 188 503 q 99 510 128 503 q 86 472 97 501 q 163 463 114 463 l 271 463 l 288 508 m 258 426 q 78 431 199 426 q 46 258 50 369 q 138 249 79 251 q 231 242 203 246 q 233 261 233 258 l 233 265 l 231 265 q 221 269 226 265 q 138 276 201 275 q 57 294 85 278 l 56 303 q 63 322 57 304 q 235 310 74 319 l 240 354 l 239 360 q 78 357 186 361 q 63 375 64 372 q 88 397 63 397 q 101 393 97 397 q 176 397 113 393 q 253 399 221 400 l 258 426 m 226 160 q 229 206 226 179 q 125 213 210 210 q 40 219 46 214 q 39 201 39 210 q 85 163 39 163 q 130 166 100 163 q 175 169 160 169 q 226 160 213 169 m 228 126 q 224 126 225 126 q 192 128 213 126 q 161 129 172 129 l 47 129 l 47 126 q 46 113 47 122 q 44 100 44 104 q 49 94 44 94 q 67 100 53 94 q 78 88 72 96 l 108 86 q 171 89 119 86 q 235 92 214 92 q 228 126 229 108 m 479 -239 q 418 -222 453 -222 q 350 -229 415 -222 q 451 -239 403 -239 l 479 -239 m 247 19 q 239 58 246 32 q 43 53 61 51 l 43 13 l 49 13 q 61 7 57 14 q 89 6 75 6 q 168 13 115 6 q 247 19 221 19 m 271 -46 l 263 -21 l 233 -21 q 142 -26 213 -21 q 50 -28 86 -31 q 61 -60 53 -39 q 271 -46 132 -58 m 317 -117 q 296 -85 310 -107 l 272 -83 q 176 -89 254 -82 q 81 -94 111 -94 q 72 -97 72 -94 q 75 -103 72 -99 q 317 -117 96 -107 m 407 -199 q 267 -147 364 -147 q 193 -150 244 -147 q 121 -150 146 -153 q 358 -199 210 -199 l 407 -199 m 907 128 q 850 31 907 68 q 738 -4 800 -4 q 664 14 699 -4 q 622 71 622 35 q 715 178 622 128 q 817 196 749 196 l 869 196 q 907 128 907 172 m 664 75 q 690 72 676 72 q 699 72 694 72 q 664 75 681 74 m 669 107 q 657 104 660 106 q 649 90 649 100 q 654 76 649 83 l 657 76 q 669 107 660 94 m 878 153 q 853 167 868 167 q 849 167 850 167 q 867 150 867 158 l 867 132 q 878 153 878 139 m 839 49 l 835 63 q 810 46 824 54 l 810 46 l 808 44 l 811 46 l 810 46 l 811 46 q 839 49 829 49 m 771 31 q 700 38 747 32 l 699 24 q 769 17 746 18 l 771 31 m 504 151 q 493 135 504 135 l 483 135 q 471 151 471 135 q 476 171 471 161 q 504 151 504 171 m 646 -106 q 638 -125 646 -114 l 631 -125 q 607 -108 607 -125 q 626 -87 607 -87 q 646 -106 646 -87 z "},"7":{"ha":1168,"x_min":-7,"x_max":1251,"o":"m 1251 851 q 1229 822 1240 829 l 1221 832 q 1227 842 1222 832 q 1244 851 1232 851 l 1251 851 m 1222 789 q 942 313 1065 672 q 822 -243 835 1 l 836 -271 l 825 -285 l 754 -285 q 421 -272 604 -285 l 89 -250 q 79 -128 79 -211 q 67 -3 79 -44 q 86 86 86 39 q 81 138 86 111 l 90 146 q 142 388 104 243 q 199 625 188 569 l 197 639 l 233 715 l 210 718 q 147 708 189 718 q 85 699 106 699 l 25 713 q -7 1008 -7 914 q 6 1093 -7 1049 q 408 1119 75 1119 q 800 1104 564 1119 l 1192 1079 q 1213 939 1203 1061 q 1222 789 1221 844 m 1190 844 q 1161 1040 1190 960 q 574 1088 925 1088 q 361 1082 511 1088 q 354 926 354 965 q 369 785 354 846 q 451 778 404 778 q 600 787 501 778 q 749 796 699 796 l 789 782 q 753 739 779 765 q 718 699 728 713 q 503 253 592 514 q 401 -229 414 -7 q 513 -257 454 -257 q 651 -254 549 -257 q 790 -251 753 -251 l 788 -174 q 907 351 781 38 q 1186 804 1033 664 l 1190 844 m 33 899 q 38 851 36 865 q 174 846 93 846 q 322 847 343 846 q 319 893 324 864 l 224 893 q 144 898 197 893 q 65 903 92 903 q 54 899 61 903 q 43 896 47 896 q 33 899 38 896 m 182 443 q 178 399 178 419 q 181 371 178 385 q 338 342 233 354 q 494 315 447 329 q 514 376 503 335 q 367 403 451 394 l 217 418 l 193 431 q 182 443 185 435 m 142 265 q 133 222 133 226 l 133 213 l 139 215 q 142 265 140 236 m 369 -187 l 363 -197 q 261 -186 317 -186 q 115 -206 183 -186 l 115 -217 q 365 -228 132 -218 q 369 -187 367 -208 m 446 164 l 440 158 q 253 188 376 188 l 178 188 q 175 154 175 172 q 178 115 175 133 l 279 90 q 376 56 338 75 l 376 47 q 358 24 376 25 q 178 79 310 51 l 175 51 q 179 3 178 35 q 381 -37 181 1 l 381 -44 q 363 -76 381 -72 q 237 -44 324 -56 q 113 -14 150 -32 q 110 -61 110 -36 q 118 -171 110 -104 q 236 -151 167 -151 q 371 -179 356 -151 q 446 164 390 -22 m 483 279 l 475 279 q 454 288 476 279 q 317 314 407 306 q 179 333 219 322 q 175 236 175 286 l 175 218 q 246 222 210 222 q 354 214 293 222 q 453 185 436 203 q 483 279 467 232 m 143 167 q 131 193 143 186 q 121 146 121 153 q 140 124 121 128 l 140 132 q 142 149 140 138 q 143 167 143 161 m 351 729 q 647 742 554 731 q 668 740 654 739 q 688 740 683 742 q 696 728 694 738 q 715 751 706 742 l 714 753 q 638 743 679 743 q 549 750 608 743 q 461 757 490 757 q 388 747 421 757 q 351 729 376 736 m 685 713 q 603 710 658 710 q 468 704 571 710 q 335 701 388 700 l 325 690 q 311 710 311 689 q 314 722 311 717 l 308 722 q 244 658 264 718 q 417 640 299 658 q 589 626 529 625 l 632 628 q 685 713 650 657 m 25 969 q 101 986 31 981 q 186 992 143 989 q 299 999 261 999 q 321 996 313 999 q 324 1032 324 1019 q 290 1033 307 1033 q 170 1015 250 1033 q 49 996 90 996 l 38 996 q 26 1013 26 1004 q 96 1038 26 1025 q 183 1051 140 1044 q 294 1071 257 1071 q 324 1068 310 1071 l 329 1081 l 322 1082 q 272 1078 306 1082 q 222 1074 239 1074 q 170 1075 204 1074 q 118 1076 136 1076 q 29 1063 64 1076 q 24 1008 24 1038 q 25 969 24 992 m 317 969 q 301 965 310 965 q 279 969 294 965 q 257 972 264 972 q 153 963 222 972 q 49 953 83 953 l 26 953 q 29 931 28 943 l 31 915 q 44 936 36 925 q 315 928 83 933 l 315 939 q 317 969 315 950 m 296 774 l 294 771 q 228 744 264 751 q 335 763 296 751 q 328 804 335 768 q 40 818 232 807 l 40 815 q 47 772 46 801 q 67 728 57 728 q 75 729 69 728 q 186 742 108 736 q 126 749 158 742 q 71 788 71 760 q 210 769 196 769 q 250 777 224 769 q 289 785 276 785 q 296 774 296 785 m 557 493 q 224 533 394 510 q 215 546 215 539 l 217 551 l 225 560 l 221 560 l 228 564 q 401 536 322 546 q 482 532 407 535 q 557 522 543 531 q 565 511 564 518 q 610 593 585 553 l 601 593 q 445 608 549 593 q 289 622 342 622 q 232 619 260 622 q 199 510 229 604 q 185 456 189 481 q 201 464 196 464 l 213 463 q 354 432 215 450 l 524 410 q 557 493 538 451 m 140 96 q 135 92 139 92 q 125 99 131 92 l 131 103 q 121 106 125 106 q 113 75 113 106 q 114 24 113 8 q 139 10 124 17 q 142 19 138 15 l 142 29 q 143 53 142 38 q 144 76 144 68 q 143 93 144 85 l 140 96 m 758 336 q 733 325 744 325 q 719 338 719 325 q 740 358 719 358 q 758 342 758 358 l 758 336 m 592 10 q 583 -6 592 3 q 568 -14 575 -14 q 550 13 550 -14 q 568 32 550 32 q 592 10 592 32 m 610 -132 q 583 -154 610 -154 q 574 -137 574 -144 q 583 -114 575 -133 l 590 -114 q 610 -132 610 -114 m 504 -24 q 493 -49 504 -40 l 476 -46 q 467 -33 467 -44 q 474 -18 467 -26 q 489 -10 482 -10 q 504 -24 493 -11 z "},"8":{"ha":1275,"x_min":-6,"x_max":1325,"o":"m 1325 168 q 1156 -162 1325 -31 q 796 -285 999 -285 q 536 -236 713 -285 q 275 -196 368 -190 q 176 -154 256 -182 q 90 -94 113 -132 l 83 -94 q -6 169 -6 21 q 58 381 -6 281 q 221 526 121 481 q 164 697 164 596 q 314 1021 164 911 q 668 1117 444 1117 q 1072 1083 957 1117 q 1300 806 1300 1017 q 1261 629 1300 710 q 1156 481 1229 564 q 1235 382 1183 439 q 1299 296 1282 329 q 1325 168 1325 242 m 196 692 l 192 693 l 186 686 l 196 681 l 196 692 m 201 749 l 197 750 l 186 735 l 189 726 q 199 722 193 724 q 201 749 200 736 m 215 822 q 199 807 199 815 q 208 792 199 796 q 215 822 211 807 m 238 882 l 233 879 q 235 876 233 878 l 238 882 m 618 1085 l 617 1099 q 529 1069 569 1099 q 618 1085 571 1078 m 1292 128 q 1251 310 1292 243 q 1135 456 1244 321 l 1131 456 l 1101 472 q 1221 618 1194 574 q 1269 799 1269 699 q 1067 1053 1269 990 q 707 1085 963 1085 q 511 999 572 1085 q 444 788 467 935 l 458 763 l 449 751 q 465 654 446 693 l 471 654 l 494 631 l 475 621 l 472 621 l 500 569 l 500 558 q 556 492 500 525 l 569 493 l 590 479 q 554 447 582 463 q 514 419 522 432 q 422 347 471 401 q 365 249 369 290 q 308 158 331 231 q 290 47 290 100 q 481 -182 290 -92 q 793 -256 636 -256 q 1118 -150 963 -256 q 1292 128 1292 -32 m 446 582 l 433 628 q 199 661 417 629 q 213 617 206 632 q 446 582 290 603 m 243 553 l 243 553 q 254 563 243 563 q 265 561 258 563 l 271 564 l 472 526 l 464 542 q 344 563 424 554 q 225 582 261 572 q 243 553 233 565 m 481 493 q 393 508 447 503 q 278 525 314 517 q 394 503 307 514 q 481 493 444 496 m 497 457 q 396 472 431 471 q 244 514 324 485 l 240 501 q 497 457 403 461 l 500 456 l 501 457 l 497 457 m 460 428 l 346 450 q 236 482 281 463 q 218 476 224 476 l 210 481 q 183 468 201 476 q 315 439 186 468 q 436 417 415 417 q 460 428 446 417 m 410 386 q 153 444 324 403 q 71 339 113 411 q 151 318 100 333 q 229 303 201 303 q 279 288 246 303 q 328 274 313 274 q 358 304 350 274 q 226 336 314 314 q 122 396 135 360 q 356 336 186 381 q 365 335 361 335 q 410 386 376 335 m 36 236 q 25 168 29 203 q 263 113 104 153 q 271 156 271 147 l 271 163 q 147 192 224 171 q 36 236 56 218 m 313 247 q 186 279 260 264 q 58 308 83 301 q 43 260 50 285 l 43 260 q 276 193 229 193 q 313 247 290 193 m 32 69 l 43 76 q 149 56 82 76 q 253 29 221 32 l 258 39 q 257 79 256 69 q 140 109 219 96 q 24 138 60 122 q 32 69 24 103 m 419 -197 q 344 -150 367 -160 q 276 -136 314 -136 q 224 -139 256 -136 q 282 -162 271 -157 l 289 -162 q 419 -197 319 -162 m 76 -28 q 79 -21 78 -25 q 275 -40 144 -29 q 282 -46 279 -43 q 264 -4 271 -25 q 147 18 151 17 q 38 50 63 36 q 76 -28 51 11 m 292 -64 l 283 -69 q 90 -46 218 -61 q 183 -124 132 -104 q 181 -117 181 -121 l 185 -104 q 233 -108 206 -108 q 278 -108 278 -108 q 304 -107 288 -108 q 322 -107 317 -107 q 292 -64 306 -86 m 931 354 q 908 339 931 344 q 899 356 899 346 q 913 367 899 367 q 931 354 931 367 m 536 721 q 517 707 536 707 q 499 725 499 707 q 514 738 499 738 q 536 721 536 738 m 844 349 q 826 333 844 333 q 808 353 808 333 q 824 365 808 365 q 844 349 844 365 m 913 142 q 861 78 913 101 q 775 58 821 58 q 689 68 740 58 q 661 144 661 106 q 710 246 661 203 l 706 254 l 708 263 q 750 275 725 261 l 778 275 q 806 288 790 275 q 835 263 807 274 q 886 232 872 247 q 913 142 913 203 m 864 211 q 853 224 858 218 q 768 231 821 226 q 864 211 800 222 m 881 136 q 715 175 851 142 q 697 183 703 178 q 692 164 694 175 l 693 164 q 756 156 718 164 q 817 140 782 149 q 879 133 844 140 l 881 136 m 494 10 q 479 -8 494 -8 q 463 6 463 -8 q 474 21 463 21 q 494 10 485 21 m 422 28 q 406 11 422 11 q 388 24 400 11 q 407 44 388 44 q 422 28 422 44 m 468 -65 q 453 -94 468 -94 q 438 -79 438 -94 q 440 -67 438 -75 q 443 -56 443 -60 q 457 -53 451 -53 q 468 -65 468 -53 m 882 635 q 828 660 836 660 q 796 668 799 663 l 786 660 q 882 632 824 649 l 882 635 m 890 629 l 882 632 q 885 613 885 622 q 779 536 885 536 q 671 615 671 536 q 679 662 671 650 q 721 674 688 674 q 747 689 740 674 q 769 690 758 690 q 882 635 863 690 l 890 629 m 861 625 q 740 644 781 640 l 739 631 q 771 633 753 633 q 849 626 800 633 q 856 613 850 618 l 861 625 m 749 649 l 749 663 l 740 663 l 740 649 l 749 649 m 774 604 l 746 608 q 718 614 721 613 l 715 613 q 710 611 711 611 q 703 614 706 611 l 703 611 q 774 604 739 604 m 833 596 l 806 600 q 831 596 821 596 l 833 596 m 725 647 l 725 661 l 711 661 l 711 647 l 725 647 m 769 572 l 764 572 q 740 572 749 571 q 754 571 747 571 q 769 572 760 571 z "},"9":{"ha":1194,"x_min":18,"x_max":1247,"o":"m 1247 843 q 1228 714 1238 821 q 1217 575 1217 579 q 1199 403 1199 456 q 1201 354 1199 376 l 1190 342 q 1078 61 1142 247 q 969 -221 1011 -136 q 933 -246 968 -221 q 892 -261 911 -261 q 782 -289 865 -278 q 664 -297 718 -297 q 519 -290 615 -297 q 374 -282 422 -282 q 315 -285 343 -282 l 288 -267 q 260 -143 288 -224 q 232 -19 232 -62 q 300 89 232 38 q 439 190 346 122 q 558 346 522 254 q 432 310 494 310 q 146 394 261 310 q 18 654 18 489 q 174 981 18 844 q 515 1106 325 1114 l 889 1089 q 1074 1035 1038 1035 q 1158 991 1110 1035 q 1211 911 1207 947 l 1242 897 l 1222 875 l 1228 854 l 1247 843 m 1124 972 q 885 1021 1035 1021 q 836 1019 863 1021 q 981 968 881 968 q 1050 971 1001 968 q 1124 972 1099 974 m 1171 919 q 1168 925 1171 921 q 926 938 1147 928 q 947 906 933 929 l 971 906 q 1067 911 1003 906 q 1163 917 1131 917 q 1171 919 1171 917 m 1193 850 q 1182 882 1192 861 q 972 867 1113 881 q 981 843 975 858 q 1010 842 994 842 q 1100 847 1038 842 q 1193 850 1163 853 m 1200 769 l 1200 808 l 1193 808 q 1182 815 1188 808 q 1154 817 1168 817 q 1078 809 1131 817 q 997 803 1025 801 q 1004 763 999 789 l 1200 769 m 893 1051 q 793 1061 840 1061 q 764 1060 778 1061 q 825 1044 790 1044 q 893 1051 838 1046 m 1015 693 q 1021 694 1018 694 q 1051 693 1031 694 q 1082 692 1071 692 l 1196 693 l 1196 696 q 1198 708 1196 700 q 1200 721 1200 717 q 1194 726 1200 726 q 1176 722 1190 726 q 1165 735 1172 725 l 1135 735 q 1072 733 1090 735 q 1010 729 1019 729 q 1015 693 1014 713 m 1204 621 q 1160 658 1204 658 q 1114 656 1144 658 q 1068 653 1083 653 q 1017 661 1032 653 q 1014 617 1017 643 q 1118 610 1032 613 q 1203 603 1197 607 q 1204 621 1204 613 m 1210 568 l 1199 574 l 1199 563 l 1204 561 l 1210 568 m 1157 350 q 1081 360 1129 360 q 972 358 961 360 q 956 314 967 343 q 1017 315 978 313 q 1078 318 1063 318 q 1144 311 1115 318 q 1157 350 1146 321 m 1140 276 q 1075 281 1110 281 q 1006 278 1051 281 q 938 275 961 275 q 913 222 925 244 q 1131 242 985 231 q 1140 276 1135 254 m 1097 144 l 1086 115 l 1092 115 q 1103 140 1103 125 l 1097 144 m 981 622 l 976 724 q 964 753 964 739 q 969 769 964 761 q 935 864 957 800 q 822 971 879 917 q 693 1051 753 1031 q 517 1075 626 1075 q 197 951 339 1075 q 50 647 50 824 q 164 422 50 508 q 411 343 268 343 q 504 365 449 343 q 594 400 546 382 l 610 375 q 546 253 608 372 q 449 142 514 189 q 278 38 436 132 q 269 -21 269 3 q 293 -135 269 -67 q 331 -247 326 -228 q 636 -94 478 -244 q 850 186 765 28 l 839 194 q 949 392 907 242 q 981 622 985 519 m 1040 4 q 978 7 1011 7 q 872 -1 943 7 q 767 -10 801 -10 q 713 -62 747 -10 q 868 -47 749 -61 q 1022 -39 965 -36 q 1040 4 1031 -25 m 1001 -79 l 993 -74 q 685 -103 831 -74 l 672 -106 l 625 -157 l 653 -157 q 781 -147 696 -157 q 910 -136 867 -136 l 947 -136 q 969 -158 969 -139 l 957 -178 q 876 -175 918 -175 q 610 -196 847 -175 l 594 -179 q 489 -254 560 -208 q 547 -258 514 -256 q 649 -262 615 -262 q 1001 -79 993 -262 m 638 929 q 617 908 638 908 q 597 926 597 908 q 606 946 597 936 q 613 947 608 947 q 638 929 638 947 m 774 671 q 767 651 774 661 q 739 671 739 651 q 750 688 739 688 q 754 686 753 688 q 760 688 757 688 q 774 671 774 688 m 621 751 q 528 643 621 694 q 428 625 496 625 l 374 625 q 336 694 336 649 q 393 792 336 753 q 506 826 444 826 q 579 808 544 826 q 621 751 621 788 m 544 799 q 474 804 497 803 l 472 790 q 543 785 496 789 l 544 799 m 432 775 l 404 772 l 408 760 q 432 775 418 765 m 539 783 l 524 783 q 440 776 503 783 l 450 776 q 538 769 496 776 l 539 783 m 376 690 q 365 668 365 682 q 390 654 375 654 q 396 654 393 654 q 376 671 376 664 l 376 690 m 594 732 q 589 744 594 739 l 586 746 q 574 715 583 728 q 586 718 583 717 q 594 732 594 721 z "}," ":{"ha":694,"x_min":0,"x_max":0,"o":""},"!":{"ha":1107,"x_min":8,"x_max":642,"o":"m 229 675 q 225 671 228 674 q 51 638 168 656 q 135 679 79 660 q 228 699 192 699 l 229 696 l 229 697 q 225 839 226 800 l 208 856 q 268 949 208 913 q 207 926 232 936 q 40 721 40 864 q 53 617 40 685 q 68 517 67 549 l 78 515 q 158 532 110 515 q 239 557 224 554 q 229 675 232 601 m 228 975 q 299 985 263 985 q 338 979 314 985 l 344 981 q 551 1007 433 1007 q 638 994 596 1007 l 639 836 q 578 125 642 564 q 200 56 435 56 q 159 101 189 56 q 133 153 129 147 q 46 431 85 247 q 8 722 8 606 q 103 907 8 825 q 224 975 160 957 l 221 978 l 222 981 l 228 975 m 233 971 l 228 975 l 224 975 l 231 968 l 233 971 m 606 789 l 603 971 q 565 975 581 975 q 392 954 500 975 q 251 892 253 928 l 267 892 q 260 803 260 849 q 293 424 260 696 q 361 100 331 124 q 550 151 450 101 q 606 789 610 531 m 254 444 l 254 458 q 243 532 254 450 q 104 490 197 518 q 85 494 93 494 q 72 482 72 494 q 86 418 72 479 q 103 424 96 424 q 117 419 110 424 q 115 406 118 414 q 188 422 144 411 l 254 444 m 108 315 l 110 314 q 125 325 117 325 q 139 310 139 325 q 129 297 139 301 q 271 351 200 304 q 260 408 267 369 q 122 375 140 375 q 92 381 110 375 q 108 315 96 354 m 139 221 q 285 247 221 228 q 276 317 283 271 q 146 274 193 274 q 119 278 129 274 l 126 256 q 139 221 132 239 m 296 185 q 292 215 294 196 q 185 196 208 196 q 147 200 165 196 q 179 154 167 154 q 237 167 189 154 q 296 185 285 179 m 308 133 q 306 150 307 139 q 182 128 300 149 l 192 114 q 253 119 221 117 q 308 133 286 122 m 272 90 q 243 97 249 97 q 225 93 233 97 q 218 94 222 94 q 210 93 215 94 q 203 92 206 92 q 200 94 200 92 l 192 88 q 218 85 207 85 l 233 85 q 272 90 250 85 q 285 88 279 88 q 301 92 289 88 q 313 99 313 96 l 313 101 q 272 90 294 94 m 197 789 q 146 764 164 771 q 88 750 117 753 q 134 785 103 768 q 175 814 165 803 q 197 801 197 810 l 197 789 m 346 449 q 331 435 346 435 q 321 438 326 435 l 314 440 q 300 428 310 438 l 300 439 q 310 461 300 456 q 326 471 325 469 q 346 449 346 467 m 418 288 q 417 278 418 283 q 404 275 410 275 q 383 289 392 275 l 388 293 l 388 296 q 399 307 388 307 q 418 288 418 307 m 418 207 q 403 182 411 185 l 397 182 q 382 193 382 182 q 383 201 382 196 q 385 207 385 206 l 385 211 q 399 219 390 219 q 418 207 410 219 m 635 -112 q 578 -232 635 -201 q 446 -268 565 -239 q 403 -265 432 -261 q 357 -269 368 -269 q 221 -243 286 -269 q 136 -151 136 -208 q 200 -74 136 -112 q 300 -35 254 -40 q 342 -25 307 -31 q 376 -7 368 -19 q 449 14 389 -3 q 519 26 493 26 q 539 15 539 26 l 517 -3 q 599 -37 563 -6 q 635 -112 635 -68 m 604 -99 q 558 -49 604 -68 q 486 -19 535 -39 q 336 -103 418 -28 q 318 -134 333 -111 q 303 -168 303 -157 q 400 -231 303 -217 l 407 -224 l 413 -224 q 453 -226 426 -222 q 490 -229 479 -229 q 572 -190 540 -229 q 604 -99 604 -150 m 364 -50 q 354 -43 364 -43 q 333 -58 350 -44 q 322 -56 324 -57 q 319 -60 319 -57 q 321 -64 319 -61 q 357 -54 342 -57 q 364 -50 364 -51 m 313 -86 l 313 -83 q 277 -90 300 -83 q 242 -97 254 -97 q 229 -96 235 -97 q 192 -119 194 -117 q 171 -157 171 -136 q 199 -183 171 -183 q 210 -181 203 -183 q 253 -170 231 -176 q 275 -143 275 -164 q 208 -154 240 -154 q 188 -137 188 -154 q 190 -128 188 -133 q 313 -86 304 -112 m 285 -208 q 275 -201 279 -204 q 228 -211 263 -207 q 236 -212 232 -212 q 256 -210 243 -212 q 274 -207 268 -207 q 285 -208 279 -207 m 314 -235 l 314 -235 l 311 -235 l 314 -235 m 547 -57 q 531 -71 547 -71 q 514 -54 517 -71 q 533 -40 522 -40 q 547 -57 547 -40 m 563 -104 q 561 -111 563 -107 q 546 -117 551 -117 q 537 -113 543 -117 q 531 -103 531 -110 q 549 -86 531 -89 q 556 -91 549 -86 q 563 -104 563 -96 m 485 -97 q 476 -115 483 -104 q 469 -117 474 -117 q 451 -96 451 -117 q 467 -81 451 -81 q 485 -97 479 -81 z "},"\"":{"ha":657,"x_min":6,"x_max":675,"o":"m 675 883 q 640 697 675 786 q 514 581 594 581 q 467 590 497 581 q 419 600 436 600 l 404 615 l 407 617 q 357 694 383 629 q 268 635 328 635 q 231 626 256 635 q 193 617 206 617 q 126 628 163 617 q 72 661 83 640 l 79 674 l 58 707 q 32 722 32 710 q 35 734 32 726 q 39 744 39 742 q 22 785 39 747 q 6 847 6 822 q 114 994 6 942 q 308 1038 201 1038 q 399 1007 372 1038 q 465 1038 407 1008 q 535 1057 506 1057 q 675 883 675 1057 m 644 893 q 522 1022 644 1022 q 469 996 486 1022 q 440 933 440 990 q 475 769 440 897 q 528 617 510 642 q 617 735 582 631 q 644 893 644 818 m 415 875 q 414 881 414 878 q 419 901 419 894 q 417 913 419 907 q 421 921 419 917 l 417 922 q 421 946 421 939 q 417 963 421 951 q 413 979 413 974 q 417 983 413 983 l 417 985 l 413 985 q 407 967 407 974 l 407 924 q 406 915 406 919 q 407 908 406 914 l 407 886 l 410 896 l 414 881 q 410 871 413 878 l 415 875 m 431 806 q 421 844 428 819 q 415 846 418 844 q 392 793 401 846 q 431 806 404 796 m 447 739 q 439 775 444 761 q 431 769 436 775 q 421 764 425 764 q 413 765 417 764 q 375 756 394 761 q 386 742 386 753 q 383 724 386 738 q 447 739 406 726 m 382 929 q 369 990 382 964 q 304 1007 342 1007 q 199 950 199 1007 q 231 804 199 907 q 286 668 263 701 q 353 786 319 681 q 382 929 382 879 m 460 689 q 456 707 458 696 q 393 690 429 694 q 408 665 396 672 q 460 689 446 671 m 472 656 q 471 660 471 658 q 465 651 467 656 l 472 656 m 500 617 q 472 618 482 617 l 467 606 q 471 604 468 604 q 483 608 476 604 l 490 613 q 492 608 492 610 l 500 617 m 215 665 q 168 653 199 661 q 189 651 179 651 q 217 656 207 651 q 215 660 215 658 q 215 665 215 663 m 136 954 q 123 924 136 931 q 94 908 110 917 q 65 917 82 907 q 46 883 53 900 q 165 919 88 899 q 163 975 161 933 q 82 936 110 968 l 78 932 q 104 947 79 932 q 132 954 119 956 l 136 954 m 49 801 q 182 843 99 815 q 174 886 175 868 q 38 849 169 886 q 49 801 42 822 m 189 819 q 180 810 186 813 q 150 807 174 807 q 114 797 142 807 q 71 786 86 786 q 53 788 63 786 q 78 743 63 763 q 189 782 114 758 q 201 764 201 768 l 199 754 q 92 711 164 739 q 117 688 99 701 l 115 674 l 121 667 q 174 690 138 678 q 226 710 211 701 q 189 819 213 746 m 550 831 l 544 818 l 546 818 q 532 810 536 810 l 528 810 q 514 829 514 824 q 531 844 514 844 q 550 831 535 843 m 417 922 q 410 896 414 911 l 407 908 l 407 924 l 417 922 m 347 792 q 335 775 347 775 q 326 778 331 775 q 311 792 311 778 q 323 806 311 801 q 338 811 335 811 q 347 792 347 803 m 308 832 q 283 818 308 818 q 265 824 275 818 q 264 835 264 831 q 279 850 264 850 q 308 832 308 850 m 321 764 q 293 757 286 757 q 281 775 281 757 q 299 793 281 793 q 311 783 307 793 q 321 764 311 779 z "},"#":{"ha":599,"x_min":38,"x_max":631,"o":"m 631 494 q 546 339 631 394 q 368 290 472 290 q 175 315 271 290 q 38 419 38 351 q 101 532 38 476 q 206 619 140 567 l 213 619 q 278 637 236 619 q 340 654 319 654 q 422 637 357 654 q 501 611 488 619 q 588 575 550 606 q 631 494 631 540 m 206 571 q 172 549 189 561 q 74 408 75 481 q 84 410 78 408 q 93 413 90 413 q 106 403 103 413 l 124 403 q 185 414 153 403 q 244 432 233 431 l 244 443 l 246 451 q 171 444 200 444 q 104 472 104 444 q 121 494 104 494 q 140 488 126 494 l 147 492 q 175 481 158 481 q 232 485 218 481 q 264 522 256 492 q 211 515 231 515 q 165 524 186 515 l 165 532 q 179 551 165 540 q 203 563 193 563 q 215 553 213 563 l 233 554 q 206 571 221 557 m 344 614 l 340 614 q 244 590 294 614 q 264 593 256 593 q 281 590 269 593 q 299 588 293 588 q 344 614 315 588 m 253 375 q 247 393 250 386 q 175 376 228 393 q 217 375 201 375 l 253 375 m 446 572 q 426 565 418 565 q 408 583 408 565 q 411 592 408 588 q 342 560 374 588 q 299 497 311 533 q 308 478 308 489 q 296 463 308 469 q 283 447 283 457 q 286 422 283 440 q 288 393 289 403 q 336 349 311 351 q 385 332 356 332 q 424 335 396 332 q 463 335 449 338 q 597 494 597 394 q 529 568 597 539 q 443 590 486 588 q 446 572 446 585 m 517 536 q 511 524 517 531 l 503 524 q 483 533 488 524 l 482 536 q 497 554 482 554 q 517 536 517 554 m 406 556 q 394 542 406 551 q 369 563 369 542 q 383 578 369 578 q 398 570 390 578 q 406 556 406 563 z "},"$":{"ha":599,"x_min":38,"x_max":631,"o":"m 631 494 q 546 339 631 394 q 368 290 472 290 q 175 315 271 290 q 38 419 38 351 q 101 532 38 476 q 206 619 140 567 l 213 619 q 278 637 236 619 q 340 654 319 654 q 422 637 357 654 q 501 611 488 619 q 588 575 550 606 q 631 494 631 540 m 206 571 q 172 549 189 561 q 74 408 75 481 q 84 410 78 408 q 93 413 90 413 q 106 403 103 413 l 124 403 q 185 414 153 403 q 244 432 233 431 l 244 443 l 246 451 q 171 444 200 444 q 104 472 104 444 q 121 494 104 494 q 140 488 126 494 l 147 492 q 175 481 158 481 q 232 485 218 481 q 264 522 256 492 q 211 515 231 515 q 165 524 186 515 l 165 532 q 179 551 165 540 q 203 563 193 563 q 215 553 213 563 l 233 554 q 206 571 221 557 m 344 614 l 340 614 q 244 590 294 614 q 264 593 256 593 q 281 590 269 593 q 299 588 293 588 q 344 614 315 588 m 253 375 q 247 393 250 386 q 175 376 228 393 q 217 375 201 375 l 253 375 m 446 572 q 426 565 418 565 q 408 583 408 565 q 411 592 408 588 q 342 560 374 588 q 299 497 311 533 q 308 478 308 489 q 296 463 308 469 q 283 447 283 457 q 286 422 283 440 q 288 393 289 403 q 336 349 311 351 q 385 332 356 332 q 424 335 396 332 q 463 335 449 338 q 597 494 597 394 q 529 568 597 539 q 443 590 486 588 q 446 572 446 585 m 517 536 q 511 524 517 531 l 503 524 q 483 533 488 524 l 482 536 q 497 554 482 554 q 517 536 517 554 m 406 556 q 394 542 406 551 q 369 563 369 542 q 383 578 369 578 q 398 570 390 578 q 406 556 406 563 z "},"%":{"ha":1449,"x_min":-8,"x_max":1546,"o":"m 1539 54 l 1533 -15 q 1386 -162 1456 -114 q 1190 -224 1296 -224 q 867 -215 1085 -224 l 839 -187 q 764 -289 808 -289 q 511 -272 699 -289 q 272 -243 310 -254 l 263 -224 q 8 -182 197 -199 l -8 -162 q 163 161 67 -50 q 325 488 271 397 l 314 493 l 311 522 l 343 522 l 454 688 q 257 703 356 696 q 129 814 129 724 q 235 1040 129 957 q 478 1118 332 1118 q 826 1035 775 1118 q 944 1039 860 1047 q 1067 1053 1024 1032 l 1090 1031 q 1254 1053 1200 1053 q 1335 1021 1296 1053 q 1161 579 1314 940 q 1019 190 1022 249 l 1078 188 q 1188 208 1115 186 q 1294 229 1260 229 q 1458 186 1383 229 q 1539 54 1546 136 m 1004 1000 l 990 999 q 890 1007 944 999 q 851 999 876 994 q 857 986 853 994 q 919 979 892 979 q 964 990 944 979 q 983 968 983 986 q 982 958 983 964 q 919 940 951 940 q 863 949 901 940 l 863 928 q 857 868 863 899 q 890 865 872 865 q 936 867 882 865 q 1004 1000 969 917 m 826 928 q 778 1043 826 968 q 643 1069 718 1069 q 449 1032 550 1069 q 368 921 421 996 q 326 794 326 858 q 542 726 326 726 q 715 792 613 726 q 826 928 826 863 m 415 1058 q 407 1060 411 1058 q 342 1047 350 1050 q 288 1015 299 1036 l 290 1015 q 311 1017 297 1015 q 332 1018 325 1018 q 372 1006 358 1018 q 415 1058 375 1010 m 490 669 q 478 667 481 668 q 469 642 469 663 l 469 642 q 490 669 481 657 m 921 826 l 918 833 l 913 826 l 921 826 m 1506 53 q 1431 154 1506 119 q 1372 174 1403 167 l 1372 172 l 1371 161 q 1299 144 1344 150 q 1228 135 1243 139 q 1106 68 1161 118 q 1043 -51 1043 11 q 1211 -176 1043 -176 q 1400 -108 1304 -176 q 1506 53 1506 -36 m 210 946 q 204 949 207 949 q 192 943 199 949 l 200 932 q 210 946 206 935 m 213 940 q 211 932 211 935 l 217 931 l 218 931 q 213 940 215 936 m 1282 1010 l 1268 1014 q 1242 1006 1258 1014 q 1217 999 1225 999 q 1196 1008 1207 999 q 1039 974 1110 1007 q 688 388 949 768 q 314 -214 407 -21 q 531 -225 361 -219 q 747 -249 667 -231 q 849 -78 781 -225 q 922 114 914 61 q 1132 561 975 174 q 1282 1010 1289 949 m 1121 167 q 1067 157 1094 163 q 1071 142 1071 150 l 1071 133 q 1026 124 1049 124 q 989 126 1017 124 q 972 99 976 115 q 1018 94 1010 94 q 1078 135 1067 94 q 1121 167 1092 144 m 297 878 l 272 878 q 274 869 274 874 q 254 826 274 865 q 264 825 260 825 q 288 846 279 825 q 297 878 292 861 m 286 779 l 282 788 l 246 788 q 238 786 242 788 q 243 775 240 781 q 256 769 246 769 q 286 779 272 769 m 228 871 l 210 871 q 178 882 189 871 q 168 821 168 850 q 178 772 168 793 q 196 785 189 776 q 178 813 189 794 q 213 846 179 833 q 211 857 211 850 l 211 861 q 228 871 218 863 m 1033 50 q 1022 56 1033 56 q 1006 54 1017 56 l 990 54 q 954 63 967 54 q 933 7 946 44 q 1015 17 961 7 l 1015 21 q 1033 50 1033 43 m 226 764 l 226 778 l 215 778 l 215 764 l 226 764 m 319 743 q 272 743 289 740 q 174 756 215 753 q 254 731 239 731 q 277 736 263 731 q 300 742 292 742 q 314 733 308 742 l 319 743 m 1075 -168 q 1057 -167 1069 -167 q 1028 -169 1050 -167 q 997 -171 1007 -172 l 999 -172 q 996 -178 996 -175 q 999 -182 996 -181 q 1035 -169 1004 -179 l 1043 -169 q 1065 -178 1063 -169 l 1075 -168 m 881 -99 q 896 -99 888 -99 q 956 -90 918 -99 q 1004 -67 1004 -79 q 1001 -49 1004 -61 q 999 -29 997 -36 q 915 -31 971 -29 q 881 -99 913 -40 m 1024 -136 q 1013 -118 1018 -129 q 967 -128 996 -118 l 957 -126 q 926 -137 946 -126 q 894 -147 906 -147 q 865 -132 876 -147 q 864 -143 864 -137 q 872 -168 864 -156 q 1024 -136 951 -157 m 617 365 q 486 375 563 365 q 403 392 458 385 q 319 404 343 399 q 229 218 288 342 q 251 207 246 219 l 264 207 q 353 196 290 207 q 442 188 410 185 q 471 181 447 181 q 490 172 486 181 q 543 260 511 208 q 422 238 486 238 q 344 247 385 238 q 289 286 289 261 l 290 297 q 317 315 306 311 q 424 275 386 275 q 487 290 446 275 q 550 306 528 306 q 571 303 561 306 q 617 365 590 328 m 683 463 q 599 471 661 465 q 515 475 556 475 q 478 470 503 475 q 440 465 453 465 q 408 469 429 465 q 375 472 386 472 q 339 442 346 472 q 574 413 417 429 q 613 411 592 413 q 638 397 621 407 l 639 396 q 683 463 658 426 m 382 0 l 325 0 q 244 8 297 0 q 163 15 190 15 q 111 -28 119 15 q 189 -47 140 -44 q 304 -47 199 -47 q 364 -51 340 -47 q 382 0 372 -35 m 346 -93 q 218 -86 314 -85 q 92 -68 139 -87 q 50 -146 76 -93 q 160 -158 63 -149 q 260 -179 239 -167 q 275 -190 264 -185 q 290 -179 282 -181 q 269 -168 282 -176 q 178 -158 189 -161 q 96 -122 121 -149 q 122 -101 99 -101 q 145 -108 131 -101 q 164 -115 160 -114 q 229 -119 168 -115 q 293 -137 264 -121 q 308 -143 303 -143 q 346 -93 318 -143 m 651 881 q 597 822 651 847 q 514 800 551 800 q 469 810 492 800 q 443 840 443 821 q 547 957 443 901 q 568 950 557 950 q 586 952 574 950 q 604 954 599 954 q 639 935 626 954 l 639 931 q 644 905 638 921 q 651 881 651 889 m 615 888 q 613 894 615 893 q 496 868 574 888 l 494 865 l 510 865 q 553 871 532 865 q 592 882 588 881 l 594 882 q 611 871 596 881 q 615 888 615 882 m 543 826 l 543 840 l 532 840 l 532 826 l 543 826 m 1353 47 q 1326 -31 1350 0 q 1254 -65 1300 -65 q 1189 -51 1219 -65 q 1149 -4 1149 -33 q 1253 115 1149 64 q 1353 47 1303 115 m 1322 39 q 1315 52 1322 44 q 1307 61 1308 60 l 1294 58 q 1311 32 1311 44 q 1308 24 1311 28 q 1321 29 1315 26 q 1322 39 1322 33 m 1276 -39 l 1276 -25 l 1218 -25 l 1218 -39 l 1276 -39 m 1215 3 q 1190 0 1206 1 q 1196 -1 1192 -1 q 1215 3 1200 -1 m 704 285 q 679 267 704 267 l 667 267 q 656 290 656 286 q 669 308 656 303 l 688 306 q 704 285 704 303 m 708 -44 q 685 -62 708 -62 q 664 -42 664 -62 q 683 -21 664 -21 q 708 -44 708 -21 m 547 -62 q 524 -81 547 -81 l 514 -81 q 501 -49 501 -71 q 513 -44 504 -49 q 525 -40 521 -40 q 540 -48 532 -40 q 547 -62 547 -56 z "},"&":{"ha":1421,"x_min":-7,"x_max":1522,"o":"m 1522 156 q 1486 60 1522 111 q 1418 -19 1469 35 l 1369 -10 q 1268 -161 1338 -119 q 1115 -192 1217 -192 q 1039 -189 1110 -192 q 958 -189 1007 -187 l 903 -190 q 590 -285 792 -285 q 360 -272 494 -285 q 131 -253 161 -254 q -7 -29 -7 -160 q 47 160 -7 49 l 42 182 l 60 189 q 186 389 83 233 q 150 557 150 429 q 169 843 150 764 q 343 1050 208 1001 q 669 1113 393 1068 l 704 1118 q 901 976 829 1118 q 960 722 960 861 q 856 410 960 579 q 918 403 879 401 l 982 406 l 1038 403 l 1136 267 q 1215 293 1161 269 q 1300 317 1269 317 q 1522 156 1522 317 m 1271 268 q 1271 265 1271 267 l 1271 261 q 1292 251 1281 251 q 1304 253 1296 251 q 1317 256 1313 256 l 1322 256 l 1318 265 q 1307 257 1314 257 q 1271 268 1292 257 m 1268 269 l 1260 264 l 1268 269 l 1268 269 m 1369 275 l 1365 286 q 1350 279 1358 279 q 1328 283 1343 279 q 1307 288 1314 288 q 1292 283 1301 288 q 1332 281 1307 283 l 1369 275 m 1249 201 l 1211 208 l 1224 200 q 1242 193 1236 193 q 1249 201 1247 193 m 1226 171 q 1206 190 1214 185 l 1193 183 q 1217 167 1207 172 q 1225 169 1224 168 q 1219 174 1222 172 l 1226 171 m 1488 149 q 1431 253 1488 226 l 1431 253 l 1431 253 l 1425 256 l 1431 263 l 1431 267 l 1422 267 l 1422 253 l 1425 253 q 1342 235 1365 246 q 1298 192 1326 226 q 1224 126 1269 157 q 1114 235 1168 167 q 1019 357 1114 235 q 863 192 988 306 l 818 208 l 824 231 q 806 283 824 247 q 774 332 788 318 l 785 343 l 782 342 q 792 374 792 360 q 779 393 792 388 l 818 414 q 926 719 926 603 q 878 943 926 835 q 718 1079 817 1079 q 513 946 599 1079 q 438 701 438 829 q 461 538 438 647 q 521 413 489 406 l 525 396 q 410 281 514 367 l 404 283 l 411 278 q 332 194 408 274 q 288 97 285 146 l 289 76 l 292 76 l 307 49 l 294 39 q 383 -168 296 -87 q 597 -249 471 -249 q 804 -211 728 -249 q 969 -86 853 -186 l 993 -94 l 992 -107 q 1035 -139 1007 -111 q 1079 -167 1063 -167 q 1232 -149 1192 -167 q 1286 -86 1263 -135 q 1353 31 1322 -11 l 1394 21 l 1415 24 q 1461 82 1431 43 q 1488 149 1488 117 m 833 350 q 890 338 851 346 q 954 318 949 322 q 968 338 963 329 l 914 338 q 881 345 903 338 q 853 353 858 353 q 842 351 849 353 q 833 350 836 350 m 819 358 q 818 353 818 356 q 825 351 821 353 q 819 358 821 354 m 989 372 l 939 372 q 933 369 936 371 q 940 369 938 369 q 989 372 956 369 m 929 293 q 876 304 910 292 q 828 318 843 317 q 847 274 835 303 q 894 267 885 267 q 929 293 907 267 m 865 242 q 854 254 861 244 l 847 247 q 864 242 861 242 l 865 242 m 393 710 q 385 746 389 726 q 401 708 392 729 l 404 708 q 433 849 408 782 q 342 860 354 858 q 254 885 288 868 l 253 896 l 264 910 q 446 881 371 889 q 560 1060 503 1010 q 429 1033 503 1058 q 303 985 325 997 q 225 883 238 949 q 190 724 197 747 q 393 710 260 724 m 425 535 q 411 579 421 561 q 221 607 321 589 l 211 604 q 194 619 194 604 q 207 639 196 624 q 310 626 239 632 q 411 614 376 622 q 401 674 408 638 q 182 693 321 689 q 181 654 181 675 q 188 563 181 611 q 425 535 210 563 m 444 457 q 435 503 443 472 q 193 533 354 510 q 201 478 194 514 q 444 457 224 474 m 956 -156 l 951 -154 l 951 -156 l 956 -156 m 399 426 q 246 435 329 429 q 201 456 238 438 l 207 453 q 200 438 207 443 l 197 439 q 204 425 201 429 l 346 425 q 399 426 365 425 m 393 390 q 224 404 281 399 l 221 390 q 279 386 247 386 q 329 388 296 386 q 379 390 363 390 l 393 390 m 122 247 l 97 189 q 178 169 119 185 q 257 156 231 156 q 296 207 268 156 q 164 235 185 235 q 122 247 138 235 m 150 304 q 135 274 142 289 l 129 263 l 151 263 q 328 235 232 263 q 356 268 347 256 q 263 288 343 269 q 168 296 207 300 l 163 300 l 163 299 l 160 299 q 150 304 153 299 m 407 328 l 383 326 q 285 336 347 325 q 188 350 215 349 q 168 328 176 340 q 194 332 178 332 q 285 318 229 332 q 375 299 351 301 q 407 328 388 310 m 436 356 l 421 356 q 431 350 428 353 l 436 356 m 253 79 l 253 124 q 83 160 197 139 q 56 99 72 140 q 154 92 97 99 l 253 79 m 39 -96 q 35 -86 36 -92 l 35 -89 l 35 -96 l 39 -96 m 435 -243 q 407 -233 424 -240 l 401 -235 q 429 -253 417 -247 l 435 -243 m 1431 253 l 1431 253 l 1425 253 l 1431 253 l 1431 253 m 821 429 q 801 414 821 414 q 783 431 783 414 q 803 447 783 447 q 821 429 821 447 m 708 614 q 696 542 708 586 q 678 471 681 489 q 646 463 656 463 q 600 524 617 463 q 589 608 589 565 q 631 704 589 704 q 687 677 665 704 q 708 614 708 650 m 669 640 q 624 656 665 650 q 621 646 621 649 q 657 640 621 640 l 669 640 m 674 596 l 674 603 q 649 608 665 603 q 625 613 633 613 q 622 610 622 613 l 622 608 l 626 608 q 649 602 635 608 q 669 596 664 596 l 674 596 m 665 556 l 665 557 q 619 579 665 558 q 665 556 619 565 m 656 522 q 640 528 653 524 q 650 501 643 519 q 656 522 653 513 m 1228 13 q 1188 -14 1215 8 q 1142 -36 1160 -36 q 1119 -32 1132 -36 q 1157 44 1122 -12 q 1149 57 1149 50 q 1162 72 1149 64 q 1176 85 1175 81 q 1172 94 1172 89 q 1190 114 1172 114 q 1217 71 1208 114 l 1228 13 m 1176 22 l 1151 1 l 1163 -6 q 1176 22 1167 7 q 1186 36 1185 29 q 1176 22 1183 32 m 764 453 q 753 436 764 446 q 729 451 729 436 q 744 467 729 467 q 764 453 764 467 m 726 358 q 715 346 726 346 q 707 349 713 346 q 692 361 692 353 q 707 378 692 378 q 726 358 726 378 m 621 415 l 614 415 l 614 429 l 621 429 l 621 415 m 1022 13 q 1014 1 1022 1 l 1008 1 q 1000 7 1000 1 q 1008 18 1000 13 l 1013 18 q 1022 13 1022 18 m 893 38 q 876 11 889 11 q 858 31 858 11 q 864 51 858 40 l 881 49 q 893 38 889 47 m 868 -82 q 854 -111 868 -111 q 840 -104 853 -110 q 835 -83 835 -93 q 847 -61 835 -68 q 868 -82 868 -61 m 790 -4 q 725 -61 790 -35 q 633 -85 668 -85 q 569 -62 581 -85 q 543 0 557 -31 l 543 13 q 576 88 543 63 l 651 126 q 644 146 644 136 q 660 160 644 160 l 671 158 q 736 72 682 138 q 790 -4 790 7 m 701 58 q 626 75 683 75 q 606 69 614 75 q 701 58 638 67 m 596 -39 l 597 -42 q 628 -50 610 -49 q 596 -39 615 -47 m 590 36 l 579 38 q 578 33 578 36 l 578 33 q 590 36 582 35 m 744 11 l 743 14 q 657 29 715 22 q 744 11 694 22 m 461 939 q 446 926 461 926 q 432 931 442 926 q 346 938 408 940 q 415 963 378 963 q 443 960 428 963 q 455 952 449 956 q 461 939 461 949 m 397 769 q 381 753 397 753 q 307 767 357 753 q 235 782 257 782 q 226 794 226 788 q 236 808 226 804 l 394 781 q 397 769 397 775 z "},"'":{"ha":599,"x_min":38,"x_max":631,"o":"m 631 494 q 546 339 631 394 q 368 290 472 290 q 175 315 271 290 q 38 419 38 351 q 101 532 38 476 q 206 619 140 567 l 213 619 q 278 637 236 619 q 340 654 319 654 q 422 637 357 654 q 501 611 488 619 q 588 575 550 606 q 631 494 631 540 m 206 571 q 172 549 189 561 q 74 408 75 481 q 84 410 78 408 q 93 413 90 413 q 106 403 103 413 l 124 403 q 185 414 153 403 q 244 432 233 431 l 244 443 l 246 451 q 171 444 200 444 q 104 472 104 444 q 121 494 104 494 q 140 488 126 494 l 147 492 q 175 481 158 481 q 232 485 218 481 q 264 522 256 492 q 211 515 231 515 q 165 524 186 515 l 165 532 q 179 551 165 540 q 203 563 193 563 q 215 553 213 563 l 233 554 q 206 571 221 557 m 344 614 l 340 614 q 244 590 294 614 q 264 593 256 593 q 281 590 269 593 q 299 588 293 588 q 344 614 315 588 m 253 375 q 247 393 250 386 q 175 376 228 393 q 217 375 201 375 l 253 375 m 446 572 q 426 565 418 565 q 408 583 408 565 q 411 592 408 588 q 342 560 374 588 q 299 497 311 533 q 308 478 308 489 q 296 463 308 469 q 283 447 283 457 q 286 422 283 440 q 288 393 289 403 q 336 349 311 351 q 385 332 356 332 q 424 335 396 332 q 463 335 449 338 q 597 494 597 394 q 529 568 597 539 q 443 590 486 588 q 446 572 446 585 m 517 536 q 511 524 517 531 l 503 524 q 483 533 488 524 l 482 536 q 497 554 482 554 q 517 536 517 554 m 406 556 q 394 542 406 551 q 369 563 369 542 q 383 578 369 578 q 398 570 390 578 q 406 556 406 563 z "},"(":{"ha":757,"x_min":-7,"x_max":811,"o":"m 811 38 q 556 -149 726 -25 q 292 -285 379 -274 q 93 8 199 -229 q -7 354 -7 233 q 11 507 -7 393 q 44 651 31 629 q 96 831 46 694 q 171 1006 140 953 q 229 1068 192 1042 l 300 1118 q 615 1076 454 1111 l 796 836 l 794 819 q 697 668 750 792 q 646 490 646 550 q 719 254 646 389 q 811 38 801 103 m 553 1051 q 450 1068 514 1054 q 331 1085 371 1085 q 142 865 215 1085 q 96 725 126 818 q 276 736 231 739 l 290 744 q 326 726 303 739 l 418 897 q 351 899 406 899 q 271 903 325 899 q 190 908 217 908 l 181 924 l 193 943 l 208 944 q 294 939 239 947 q 382 929 357 929 q 422 933 403 929 l 438 925 q 494 994 464 958 q 553 1051 524 1029 m 767 43 l 767 54 q 665 265 710 144 q 614 490 614 404 q 674 669 614 567 q 757 840 746 794 q 682 943 736 878 q 603 1042 640 993 l 596 1043 q 375 763 467 924 q 269 425 269 576 q 332 139 269 292 q 499 -94 401 -29 q 536 -124 517 -107 q 767 43 624 -72 m 308 696 q 219 704 265 704 q 85 690 158 704 l 75 653 l 75 649 q 107 646 90 646 q 169 653 128 646 q 231 660 210 660 q 262 653 243 660 q 285 646 281 646 q 308 696 293 646 m 283 617 q 221 625 258 625 q 144 619 194 625 q 67 614 93 614 q 50 556 58 594 q 67 563 64 563 q 78 557 72 563 l 154 557 q 231 568 201 557 q 250 563 242 563 q 283 617 265 563 m 46 526 q 49 563 49 547 l 49 592 q 38 538 38 553 q 43 526 38 528 l 46 526 m 257 475 q 240 500 250 496 q 239 492 239 494 l 239 469 q 257 475 247 472 m 249 293 q 240 381 240 336 q 135 371 204 371 q 28 365 60 372 l 28 336 q 36 274 28 303 l 72 272 q 239 303 103 271 l 249 293 m 304 132 q 276 193 290 160 q 72 165 274 193 l 60 185 l 65 197 q 167 210 103 199 q 268 224 239 221 q 253 274 258 249 l 251 272 q 147 253 250 271 q 42 243 85 242 q 61 168 46 231 q 88 94 72 121 q 121 101 108 101 q 133 100 128 101 q 249 129 172 106 l 256 128 q 272 133 261 128 q 288 139 282 139 q 304 132 297 139 m 338 61 q 311 115 325 86 l 311 115 q 103 65 186 76 q 125 15 118 36 q 229 33 175 17 q 329 67 229 33 l 338 61 m 218 -156 l 225 -144 l 239 -146 q 418 -56 276 -150 q 393 -25 410 -44 q 294 -67 356 -47 q 192 -89 228 -89 q 174 -61 169 -89 q 372 -1 274 -53 q 351 36 363 15 q 138 -17 239 3 q 218 -156 164 -64 m 471 -117 q 438 -82 460 -104 q 339 -137 389 -110 q 235 -179 282 -167 q 269 -222 251 -203 q 471 -117 357 -190 m 494 -149 q 494 -144 494 -146 q 497 -137 494 -142 l 497 -136 q 293 -246 429 -176 q 310 -256 301 -254 q 414 -200 353 -240 l 494 -149 m 453 1011 q 442 999 453 1003 q 404 1003 424 1003 q 352 998 386 1003 q 300 993 318 993 q 239 1006 267 993 l 238 1013 q 249 1029 238 1019 q 296 1022 271 1022 q 349 1027 314 1022 q 401 1032 383 1032 q 449 1025 426 1032 q 453 1011 453 1013 m 376 826 q 317 814 376 814 l 265 814 q 147 821 183 814 l 147 832 q 163 850 147 850 q 203 844 176 850 q 243 839 229 839 q 303 842 263 839 q 363 844 343 844 l 369 844 q 376 826 376 835 m 531 375 q 515 360 531 360 q 506 363 513 360 q 497 365 500 365 l 497 368 q 515 388 497 388 q 531 375 531 388 m 507 147 q 489 128 507 128 q 474 150 478 128 q 493 156 490 156 q 507 151 499 156 l 507 147 m 519 68 q 513 58 519 63 l 514 58 q 503 54 510 54 q 485 67 499 54 q 504 85 485 85 q 519 68 519 85 m 419 93 q 413 82 419 85 q 401 76 407 79 q 388 94 388 79 q 401 111 388 111 q 419 93 419 111 z "},")":{"ha":874,"x_min":-6,"x_max":936,"o":"m 936 488 q 450 -249 936 -32 l 444 -271 q 297 -279 400 -271 q 151 -285 203 -286 l 96 -283 q 36 -151 78 -258 q -6 -19 -6 -44 q 31 17 -6 17 q 54 11 43 17 l 56 24 q 68 21 63 21 q 182 192 126 21 q 229 411 229 338 q 172 622 229 500 q 49 804 115 744 q 161 987 53 850 q 310 1124 269 1124 q 467 1115 369 1124 q 614 1092 585 1106 q 832 853 732 1036 q 924 540 926 678 q 936 488 936 519 m 113 863 q 93 822 101 842 q 147 832 160 832 q 174 826 161 832 q 194 828 183 828 q 245 822 211 828 q 296 817 279 817 q 357 822 338 817 l 356 826 l 360 838 l 357 836 q 306 843 336 843 q 244 840 285 843 q 183 836 204 836 q 113 863 129 836 m 554 1074 q 322 1094 468 1094 q 274 1088 296 1094 q 119 875 218 1017 q 131 881 125 878 q 258 872 171 868 q 386 861 344 875 l 406 885 q 281 890 361 893 q 154 892 190 888 q 147 915 151 899 l 160 929 q 310 922 185 922 q 361 919 326 922 q 413 915 396 915 l 431 915 q 554 1074 493 989 m 910 429 q 828 794 910 606 q 588 1063 732 1014 q 481 940 551 1022 q 392 806 424 874 l 397 807 q 503 660 467 735 q 531 569 514 636 q 553 496 544 508 l 542 483 q 485 267 529 368 l 499 256 q 417 139 482 244 q 306 -3 353 33 l 283 -4 q 440 -221 335 -76 q 772 36 647 -126 q 910 429 910 215 m 461 682 q 428 726 446 711 q 413 722 422 719 l 407 717 l 388 717 q 282 699 350 717 q 181 679 214 681 q 194 656 183 668 q 217 632 206 643 q 461 682 351 653 m 504 589 l 501 601 q 475 661 490 661 l 469 646 q 228 599 389 629 q 249 532 236 578 q 469 586 461 586 q 482 589 474 586 q 494 592 490 592 q 504 589 500 592 m 511 526 q 508 567 513 540 q 444 549 504 561 q 374 535 410 542 q 261 507 292 511 q 254 504 256 507 q 263 454 256 501 q 510 508 381 458 l 511 526 m 257 346 q 253 297 256 324 q 360 317 272 300 q 467 329 425 329 q 486 376 482 329 q 378 354 475 375 q 268 340 313 340 q 257 346 261 340 m 508 474 q 263 415 392 435 q 260 374 263 399 q 499 413 294 378 q 508 474 503 433 m 464 299 q 351 281 425 296 q 243 264 278 267 q 225 208 235 235 q 337 233 263 221 q 446 256 411 244 l 464 299 m 126 24 q 118 14 122 18 l 142 17 q 126 24 131 19 m 429 218 q 260 185 371 203 l 260 182 l 257 172 q 240 174 249 175 q 225 171 233 172 l 211 176 l 200 154 q 279 161 231 158 q 379 168 343 164 q 429 218 408 171 m 408 -242 q 407 -233 408 -237 q 353 -246 396 -236 q 408 -242 386 -246 m 103 -69 q 88 -74 94 -71 q 93 -86 88 -83 l 104 -72 l 103 -69 m 33 -17 q 57 -21 39 -18 q 79 -24 71 -24 q 157 -16 106 -24 q 235 -8 208 -8 l 250 -8 l 250 6 q 161 -8 240 6 q 71 -17 111 -17 q 36 -14 53 -17 l 33 -17 m 36 -46 l 28 -25 l 25 -28 l 31 -46 l 36 -46 m 57 -107 l 49 -83 l 43 -87 q 56 -107 50 -101 l 57 -107 m 338 -131 q 339 -125 339 -128 l 333 -111 l 324 -110 l 338 -131 m 150 -236 q 107 -239 128 -239 l 117 -256 q 138 -258 129 -258 l 150 -257 l 146 -253 l 144 -249 q 150 -236 144 -243 m 393 -211 q 381 -187 390 -203 q 172 -235 261 -224 q 207 -236 189 -236 q 300 -226 246 -236 q 393 -211 379 -212 m 110 786 l 110 792 q 126 790 118 790 q 182 796 154 790 q 104 792 157 794 l 110 786 m 200 783 q 132 761 188 776 q 165 710 165 715 q 260 726 197 711 q 354 742 322 740 l 383 743 l 406 754 q 331 788 369 788 q 300 782 315 788 q 200 796 253 794 l 200 783 m 168 93 q 175 94 172 94 q 188 90 181 94 q 200 85 196 85 q 261 90 221 85 q 322 96 301 96 q 356 93 339 96 l 356 90 q 388 140 372 111 q 194 125 328 129 q 189 133 192 128 l 168 93 m 339 71 l 333 71 q 278 67 315 71 q 222 63 240 63 l 199 63 q 163 83 179 63 q 144 50 153 65 q 182 49 161 49 q 250 50 218 49 q 317 51 301 53 q 339 71 328 60 m 453 1044 q 450 1036 453 1040 l 450 1038 l 442 1031 q 343 1043 408 1031 q 389 1060 367 1060 q 417 1057 399 1060 q 444 1054 435 1054 q 453 1044 453 1054 m 474 990 q 464 974 474 982 q 314 982 364 982 q 246 979 278 982 q 236 1000 236 1001 q 243 1014 236 1007 q 358 1007 279 1007 q 472 997 433 1006 l 474 990 m 814 611 q 790 596 804 596 q 771 611 771 596 q 778 622 771 615 l 786 631 l 789 631 q 814 611 803 631 m 707 600 q 694 597 703 600 q 682 594 686 594 q 665 611 665 594 q 683 626 665 626 q 707 600 706 626 m 576 194 q 557 175 576 188 q 547 188 547 181 q 565 206 547 206 q 576 194 576 206 m 642 18 q 626 1 631 1 q 608 18 608 1 q 625 31 608 31 q 642 18 633 31 m 506 36 q 494 25 506 25 q 476 42 476 25 q 489 54 476 54 q 506 36 506 54 m 406 -3 q 388 -17 399 -17 q 372 -3 372 -17 q 390 14 372 14 q 406 -3 394 14 z "},"*":{"ha":599,"x_min":38,"x_max":631,"o":"m 631 494 q 546 339 631 394 q 368 290 472 290 q 175 315 271 290 q 38 419 38 351 q 101 532 38 476 q 206 619 140 567 l 213 619 q 278 637 236 619 q 340 654 319 654 q 422 637 357 654 q 501 611 488 619 q 588 575 550 606 q 631 494 631 540 m 206 571 q 172 549 189 561 q 74 408 75 481 q 84 410 78 408 q 93 413 90 413 q 106 403 103 413 l 124 403 q 185 414 153 403 q 244 432 233 431 l 244 443 l 246 451 q 171 444 200 444 q 104 472 104 444 q 121 494 104 494 q 140 488 126 494 l 147 492 q 175 481 158 481 q 232 485 218 481 q 264 522 256 492 q 211 515 231 515 q 165 524 186 515 l 165 532 q 179 551 165 540 q 203 563 193 563 q 215 553 213 563 l 233 554 q 206 571 221 557 m 344 614 l 340 614 q 244 590 294 614 q 264 593 256 593 q 281 590 269 593 q 299 588 293 588 q 344 614 315 588 m 253 375 q 247 393 250 386 q 175 376 228 393 q 217 375 201 375 l 253 375 m 446 572 q 426 565 418 565 q 408 583 408 565 q 411 592 408 588 q 342 560 374 588 q 299 497 311 533 q 308 478 308 489 q 296 463 308 469 q 283 447 283 457 q 286 422 283 440 q 288 393 289 403 q 336 349 311 351 q 385 332 356 332 q 424 335 396 332 q 463 335 449 338 q 597 494 597 394 q 529 568 597 539 q 443 590 486 588 q 446 572 446 585 m 517 536 q 511 524 517 531 l 503 524 q 483 533 488 524 l 482 536 q 497 554 482 554 q 517 536 517 554 m 406 556 q 394 542 406 551 q 369 563 369 542 q 383 578 369 578 q 398 570 390 578 q 406 556 406 563 z "},"+":{"ha":599,"x_min":38,"x_max":631,"o":"m 631 494 q 546 339 631 394 q 368 290 472 290 q 175 315 271 290 q 38 419 38 351 q 101 532 38 476 q 206 619 140 567 l 213 619 q 278 637 236 619 q 340 654 319 654 q 422 637 357 654 q 501 611 488 619 q 588 575 550 606 q 631 494 631 540 m 206 571 q 172 549 189 561 q 74 408 75 481 q 84 410 78 408 q 93 413 90 413 q 106 403 103 413 l 124 403 q 185 414 153 403 q 244 432 233 431 l 244 443 l 246 451 q 171 444 200 444 q 104 472 104 444 q 121 494 104 494 q 140 488 126 494 l 147 492 q 175 481 158 481 q 232 485 218 481 q 264 522 256 492 q 211 515 231 515 q 165 524 186 515 l 165 532 q 179 551 165 540 q 203 563 193 563 q 215 553 213 563 l 233 554 q 206 571 221 557 m 344 614 l 340 614 q 244 590 294 614 q 264 593 256 593 q 281 590 269 593 q 299 588 293 588 q 344 614 315 588 m 253 375 q 247 393 250 386 q 175 376 228 393 q 217 375 201 375 l 253 375 m 446 572 q 426 565 418 565 q 408 583 408 565 q 411 592 408 588 q 342 560 374 588 q 299 497 311 533 q 308 478 308 489 q 296 463 308 469 q 283 447 283 457 q 286 422 283 440 q 288 393 289 403 q 336 349 311 351 q 385 332 356 332 q 424 335 396 332 q 463 335 449 338 q 597 494 597 394 q 529 568 597 539 q 443 590 486 588 q 446 572 446 585 m 517 536 q 511 524 517 531 l 503 524 q 483 533 488 524 l 482 536 q 497 554 482 554 q 517 536 517 554 m 406 556 q 394 542 406 551 q 369 563 369 542 q 383 578 369 578 q 398 570 390 578 q 406 556 406 563 z "},",":{"ha":539,"x_min":-7,"x_max":565,"o":"m 565 -115 q 499 -300 565 -199 q 347 -411 426 -411 q 203 -393 294 -411 q 58 -368 101 -374 l 44 -354 q 113 -257 107 -301 q -7 -124 -7 -210 q 82 19 -7 -37 q 251 69 160 69 q 353 53 285 69 q 457 39 421 38 l 468 58 q 540 -10 511 58 q 565 -115 565 -68 m 250 32 l 232 33 q 131 8 182 38 q 103 -10 118 1 l 104 -10 q 199 13 142 13 q 210 7 206 13 q 250 32 210 17 m 529 -110 q 478 0 529 -25 q 351 15 446 15 q 179 -104 217 15 q 210 -189 197 -167 q 281 -236 236 -236 q 303 -234 288 -236 q 325 -232 318 -232 q 358 -268 360 -232 q 308 -375 347 -307 q 465 -286 397 -376 q 529 -110 529 -201 m 176 -26 l 147 -33 q 111 -37 124 -37 q 78 -31 93 -37 q 36 -89 49 -62 q 40 -86 38 -87 q 81 -93 58 -93 q 144 -82 108 -93 q 176 -26 156 -53 m 189 -226 q 163 -222 178 -222 q 144 -224 154 -222 q 189 -226 161 -226 m 265 -372 l 264 -358 q 240 -365 256 -365 l 239 -365 q 265 -372 256 -368 m 131 -342 q 111 -336 117 -336 q 106 -339 108 -336 q 131 -342 117 -339 q 211 -362 174 -360 q 185 -357 199 -361 q 131 -342 160 -350 m 36 -156 q 47 -150 39 -150 q 63 -154 51 -150 q 82 -158 75 -158 q 120 -149 96 -158 q 147 -140 144 -140 q 149 -140 149 -140 l 143 -122 q 81 -131 72 -131 q 29 -110 51 -131 q 31 -106 31 -107 q 28 -122 28 -114 q 36 -156 28 -140 m 158 -167 q 86 -189 122 -189 q 69 -187 78 -189 q 100 -194 83 -194 q 164 -186 107 -194 l 158 -167 m 151 -281 q 206 -281 174 -281 l 226 -281 q 268 -272 249 -281 q 217 -268 250 -272 q 194 -265 201 -265 l 174 -265 q 154 -267 160 -267 q 156 -272 156 -268 q 151 -281 156 -278 m 297 -286 q 238 -310 297 -310 q 143 -289 197 -310 q 132 -301 139 -294 q 216 -328 154 -324 q 283 -337 278 -332 q 311 -275 300 -315 q 293 -274 304 -275 q 297 -286 297 -279 m 364 -164 q 347 -182 364 -182 q 332 -162 332 -182 l 332 -153 q 344 -150 339 -150 q 355 -153 349 -150 q 364 -156 361 -156 l 364 -164 m 307 -149 q 289 -164 307 -164 q 265 -149 265 -164 q 274 -135 265 -140 q 279 -136 276 -136 q 285 -135 282 -136 l 290 -135 q 307 -149 307 -135 z "},"-":{"ha":599,"x_min":38,"x_max":631,"o":"m 631 494 q 546 339 631 394 q 368 290 472 290 q 175 315 271 290 q 38 419 38 351 q 101 532 38 476 q 206 619 140 567 l 213 619 q 278 637 236 619 q 340 654 319 654 q 422 637 357 654 q 501 611 488 619 q 588 575 550 606 q 631 494 631 540 m 206 571 q 172 549 189 561 q 74 408 75 481 q 84 410 78 408 q 93 413 90 413 q 106 403 103 413 l 124 403 q 185 414 153 403 q 244 432 233 431 l 244 443 l 246 451 q 171 444 200 444 q 104 472 104 444 q 121 494 104 494 q 140 488 126 494 l 147 492 q 175 481 158 481 q 232 485 218 481 q 264 522 256 492 q 211 515 231 515 q 165 524 186 515 l 165 532 q 179 551 165 540 q 203 563 193 563 q 215 553 213 563 l 233 554 q 206 571 221 557 m 344 614 l 340 614 q 244 590 294 614 q 264 593 256 593 q 281 590 269 593 q 299 588 293 588 q 344 614 315 588 m 253 375 q 247 393 250 386 q 175 376 228 393 q 217 375 201 375 l 253 375 m 446 572 q 426 565 418 565 q 408 583 408 565 q 411 592 408 588 q 342 560 374 588 q 299 497 311 533 q 308 478 308 489 q 296 463 308 469 q 283 447 283 457 q 286 422 283 440 q 288 393 289 403 q 336 349 311 351 q 385 332 356 332 q 424 335 396 332 q 463 335 449 338 q 597 494 597 394 q 529 568 597 539 q 443 590 486 588 q 446 572 446 585 m 517 536 q 511 524 517 531 l 503 524 q 483 533 488 524 l 482 536 q 497 554 482 554 q 517 536 517 554 m 406 556 q 394 542 406 551 q 369 563 369 542 q 383 578 369 578 q 398 570 390 578 q 406 556 406 563 z "},"":{"ha":599,"x_min":38,"x_max":631,"o":"m 631 494 q 546 339 631 394 q 368 290 472 290 q 175 315 271 290 q 38 419 38 351 q 101 532 38 476 q 206 619 140 567 l 213 619 q 278 637 236 619 q 340 654 319 654 q 422 637 357 654 q 501 611 488 619 q 588 575 550 606 q 631 494 631 540 m 206 571 q 172 549 189 561 q 74 408 75 481 q 84 410 78 408 q 93 413 90 413 q 106 403 103 413 l 124 403 q 185 414 153 403 q 244 432 233 431 l 244 443 l 246 451 q 171 444 200 444 q 104 472 104 444 q 121 494 104 494 q 140 488 126 494 l 147 492 q 175 481 158 481 q 232 485 218 481 q 264 522 256 492 q 211 515 231 515 q 165 524 186 515 l 165 532 q 179 551 165 540 q 203 563 193 563 q 215 553 213 563 l 233 554 q 206 571 221 557 m 344 614 l 340 614 q 244 590 294 614 q 264 593 256 593 q 281 590 269 593 q 299 588 293 588 q 344 614 315 588 m 253 375 q 247 393 250 386 q 175 376 228 393 q 217 375 201 375 l 253 375 m 446 572 q 426 565 418 565 q 408 583 408 565 q 411 592 408 588 q 342 560 374 588 q 299 497 311 533 q 308 478 308 489 q 296 463 308 469 q 283 447 283 457 q 286 422 283 440 q 288 393 289 403 q 336 349 311 351 q 385 332 356 332 q 424 335 396 332 q 463 335 449 338 q 597 494 597 394 q 529 568 597 539 q 443 590 486 588 q 446 572 446 585 m 517 536 q 511 524 517 531 l 503 524 q 483 533 488 524 l 482 536 q 497 554 482 554 q 517 536 517 554 m 406 556 q 394 542 406 551 q 369 563 369 542 q 383 578 369 578 q 398 570 390 578 q 406 556 406 563 z "},".":{"ha":599,"x_min":38,"x_max":631,"o":"m 631 -61 q 546 -217 631 -161 q 368 -265 472 -265 q 175 -240 271 -265 q 38 -136 38 -204 q 101 -24 38 -79 q 206 64 140 11 l 213 64 q 278 81 236 64 q 340 99 319 99 q 422 81 357 99 q 501 56 488 64 q 588 19 550 50 q 631 -61 631 -15 m 206 15 q 172 -7 189 6 q 74 -147 75 -75 q 84 -145 78 -147 q 93 -143 90 -143 q 106 -153 103 -143 l 124 -153 q 185 -142 153 -153 q 244 -124 233 -125 l 244 -112 l 246 -104 q 171 -111 200 -111 q 104 -83 104 -111 q 121 -61 104 -61 q 140 -68 126 -61 l 147 -64 q 175 -75 158 -75 q 232 -71 218 -75 q 264 -33 256 -64 q 211 -40 231 -40 q 165 -32 186 -40 l 165 -24 q 179 -4 165 -15 q 203 7 193 7 q 215 -3 213 7 l 233 -1 q 206 15 221 1 m 344 58 l 340 58 q 244 35 294 58 q 264 38 256 38 q 281 35 269 38 q 299 32 293 32 q 344 58 315 32 m 253 -181 q 247 -162 250 -169 q 175 -179 228 -162 q 217 -181 201 -181 l 253 -181 m 446 17 q 426 10 418 10 q 408 28 408 10 q 411 36 408 32 q 342 5 374 32 q 299 -58 311 -22 q 308 -78 308 -67 q 296 -92 308 -86 q 283 -108 283 -99 q 286 -134 283 -115 q 288 -162 289 -153 q 336 -207 311 -204 q 385 -224 356 -224 q 424 -221 396 -224 q 463 -221 449 -218 q 597 -61 597 -161 q 529 13 597 -17 q 443 35 486 32 q 446 17 446 29 m 517 -19 q 511 -32 517 -25 l 503 -32 q 483 -22 488 -32 l 482 -19 q 497 -1 482 -1 q 517 -19 517 -1 m 406 0 q 394 -14 406 -4 q 369 7 369 -14 q 383 22 369 22 q 398 15 390 22 q 406 0 406 7 z "},"/":{"ha":599,"x_min":38,"x_max":631,"o":"m 631 494 q 546 339 631 394 q 368 290 472 290 q 175 315 271 290 q 38 419 38 351 q 101 532 38 476 q 206 619 140 567 l 213 619 q 278 637 236 619 q 340 654 319 654 q 422 637 357 654 q 501 611 488 619 q 588 575 550 606 q 631 494 631 540 m 206 571 q 172 549 189 561 q 74 408 75 481 q 84 410 78 408 q 93 413 90 413 q 106 403 103 413 l 124 403 q 185 414 153 403 q 244 432 233 431 l 244 443 l 246 451 q 171 444 200 444 q 104 472 104 444 q 121 494 104 494 q 140 488 126 494 l 147 492 q 175 481 158 481 q 232 485 218 481 q 264 522 256 492 q 211 515 231 515 q 165 524 186 515 l 165 532 q 179 551 165 540 q 203 563 193 563 q 215 553 213 563 l 233 554 q 206 571 221 557 m 344 614 l 340 614 q 244 590 294 614 q 264 593 256 593 q 281 590 269 593 q 299 588 293 588 q 344 614 315 588 m 253 375 q 247 393 250 386 q 175 376 228 393 q 217 375 201 375 l 253 375 m 446 572 q 426 565 418 565 q 408 583 408 565 q 411 592 408 588 q 342 560 374 588 q 299 497 311 533 q 308 478 308 489 q 296 463 308 469 q 283 447 283 457 q 286 422 283 440 q 288 393 289 403 q 336 349 311 351 q 385 332 356 332 q 424 335 396 332 q 463 335 449 338 q 597 494 597 394 q 529 568 597 539 q 443 590 486 588 q 446 572 446 585 m 517 536 q 511 524 517 531 l 503 524 q 483 533 488 524 l 482 536 q 497 554 482 554 q 517 536 517 554 m 406 556 q 394 542 406 551 q 369 563 369 542 q 383 578 369 578 q 398 570 390 578 q 406 556 406 563 z "},":":{"ha":599,"x_min":38,"x_max":631,"o":"m 631 494 q 546 339 631 394 q 368 290 472 290 q 175 315 271 290 q 38 419 38 351 q 101 532 38 476 q 206 619 140 567 l 213 619 q 278 637 236 619 q 340 654 319 654 q 422 637 357 654 q 501 611 488 619 q 588 575 550 606 q 631 494 631 540 m 206 571 q 172 549 189 561 q 74 408 75 481 q 84 410 78 408 q 93 413 90 413 q 106 403 103 413 l 124 403 q 185 414 153 403 q 244 432 233 431 l 244 443 l 246 451 q 171 444 200 444 q 104 472 104 444 q 121 494 104 494 q 140 488 126 494 l 147 492 q 175 481 158 481 q 232 485 218 481 q 264 522 256 492 q 211 515 231 515 q 165 524 186 515 l 165 532 q 179 551 165 540 q 203 563 193 563 q 215 553 213 563 l 233 554 q 206 571 221 557 m 344 614 l 340 614 q 244 590 294 614 q 264 593 256 593 q 281 590 269 593 q 299 588 293 588 q 344 614 315 588 m 253 375 q 247 393 250 386 q 175 376 228 393 q 217 375 201 375 l 253 375 m 446 572 q 426 565 418 565 q 408 583 408 565 q 411 592 408 588 q 342 560 374 588 q 299 497 311 533 q 308 478 308 489 q 296 463 308 469 q 283 447 283 457 q 286 422 283 440 q 288 393 289 403 q 336 349 311 351 q 385 332 356 332 q 424 335 396 332 q 463 335 449 338 q 597 494 597 394 q 529 568 597 539 q 443 590 486 588 q 446 572 446 585 m 517 536 q 511 524 517 531 l 503 524 q 483 533 488 524 l 482 536 q 497 554 482 554 q 517 536 517 554 m 406 556 q 394 542 406 551 q 369 563 369 542 q 383 578 369 578 q 398 570 390 578 q 406 556 406 563 z "},";":{"ha":599,"x_min":38,"x_max":631,"o":"m 631 494 q 546 339 631 394 q 368 290 472 290 q 175 315 271 290 q 38 419 38 351 q 101 532 38 476 q 206 619 140 567 l 213 619 q 278 637 236 619 q 340 654 319 654 q 422 637 357 654 q 501 611 488 619 q 588 575 550 606 q 631 494 631 540 m 206 571 q 172 549 189 561 q 74 408 75 481 q 84 410 78 408 q 93 413 90 413 q 106 403 103 413 l 124 403 q 185 414 153 403 q 244 432 233 431 l 244 443 l 246 451 q 171 444 200 444 q 104 472 104 444 q 121 494 104 494 q 140 488 126 494 l 147 492 q 175 481 158 481 q 232 485 218 481 q 264 522 256 492 q 211 515 231 515 q 165 524 186 515 l 165 532 q 179 551 165 540 q 203 563 193 563 q 215 553 213 563 l 233 554 q 206 571 221 557 m 344 614 l 340 614 q 244 590 294 614 q 264 593 256 593 q 281 590 269 593 q 299 588 293 588 q 344 614 315 588 m 253 375 q 247 393 250 386 q 175 376 228 393 q 217 375 201 375 l 253 375 m 446 572 q 426 565 418 565 q 408 583 408 565 q 411 592 408 588 q 342 560 374 588 q 299 497 311 533 q 308 478 308 489 q 296 463 308 469 q 283 447 283 457 q 286 422 283 440 q 288 393 289 403 q 336 349 311 351 q 385 332 356 332 q 424 335 396 332 q 463 335 449 338 q 597 494 597 394 q 529 568 597 539 q 443 590 486 588 q 446 572 446 585 m 517 536 q 511 524 517 531 l 503 524 q 483 533 488 524 l 482 536 q 497 554 482 554 q 517 536 517 554 m 406 556 q 394 542 406 551 q 369 563 369 542 q 383 578 369 578 q 398 570 390 578 q 406 556 406 563 z "},"<":{"ha":599,"x_min":38,"x_max":631,"o":"m 631 494 q 546 339 631 394 q 368 290 472 290 q 175 315 271 290 q 38 419 38 351 q 101 532 38 476 q 206 619 140 567 l 213 619 q 278 637 236 619 q 340 654 319 654 q 422 637 357 654 q 501 611 488 619 q 588 575 550 606 q 631 494 631 540 m 206 571 q 172 549 189 561 q 74 408 75 481 q 84 410 78 408 q 93 413 90 413 q 106 403 103 413 l 124 403 q 185 414 153 403 q 244 432 233 431 l 244 443 l 246 451 q 171 444 200 444 q 104 472 104 444 q 121 494 104 494 q 140 488 126 494 l 147 492 q 175 481 158 481 q 232 485 218 481 q 264 522 256 492 q 211 515 231 515 q 165 524 186 515 l 165 532 q 179 551 165 540 q 203 563 193 563 q 215 553 213 563 l 233 554 q 206 571 221 557 m 344 614 l 340 614 q 244 590 294 614 q 264 593 256 593 q 281 590 269 593 q 299 588 293 588 q 344 614 315 588 m 253 375 q 247 393 250 386 q 175 376 228 393 q 217 375 201 375 l 253 375 m 446 572 q 426 565 418 565 q 408 583 408 565 q 411 592 408 588 q 342 560 374 588 q 299 497 311 533 q 308 478 308 489 q 296 463 308 469 q 283 447 283 457 q 286 422 283 440 q 288 393 289 403 q 336 349 311 351 q 385 332 356 332 q 424 335 396 332 q 463 335 449 338 q 597 494 597 394 q 529 568 597 539 q 443 590 486 588 q 446 572 446 585 m 517 536 q 511 524 517 531 l 503 524 q 483 533 488 524 l 482 536 q 497 554 482 554 q 517 536 517 554 m 406 556 q 394 542 406 551 q 369 563 369 542 q 383 578 369 578 q 398 570 390 578 q 406 556 406 563 z "},"=":{"ha":599,"x_min":38,"x_max":631,"o":"m 631 494 q 546 339 631 394 q 368 290 472 290 q 175 315 271 290 q 38 419 38 351 q 101 532 38 476 q 206 619 140 567 l 213 619 q 278 637 236 619 q 340 654 319 654 q 422 637 357 654 q 501 611 488 619 q 588 575 550 606 q 631 494 631 540 m 206 571 q 172 549 189 561 q 74 408 75 481 q 84 410 78 408 q 93 413 90 413 q 106 403 103 413 l 124 403 q 185 414 153 403 q 244 432 233 431 l 244 443 l 246 451 q 171 444 200 444 q 104 472 104 444 q 121 494 104 494 q 140 488 126 494 l 147 492 q 175 481 158 481 q 232 485 218 481 q 264 522 256 492 q 211 515 231 515 q 165 524 186 515 l 165 532 q 179 551 165 540 q 203 563 193 563 q 215 553 213 563 l 233 554 q 206 571 221 557 m 344 614 l 340 614 q 244 590 294 614 q 264 593 256 593 q 281 590 269 593 q 299 588 293 588 q 344 614 315 588 m 253 375 q 247 393 250 386 q 175 376 228 393 q 217 375 201 375 l 253 375 m 446 572 q 426 565 418 565 q 408 583 408 565 q 411 592 408 588 q 342 560 374 588 q 299 497 311 533 q 308 478 308 489 q 296 463 308 469 q 283 447 283 457 q 286 422 283 440 q 288 393 289 403 q 336 349 311 351 q 385 332 356 332 q 424 335 396 332 q 463 335 449 338 q 597 494 597 394 q 529 568 597 539 q 443 590 486 588 q 446 572 446 585 m 517 536 q 511 524 517 531 l 503 524 q 483 533 488 524 l 482 536 q 497 554 482 554 q 517 536 517 554 m 406 556 q 394 542 406 551 q 369 563 369 542 q 383 578 369 578 q 398 570 390 578 q 406 556 406 563 z "},">":{"ha":599,"x_min":38,"x_max":631,"o":"m 631 494 q 546 339 631 394 q 368 290 472 290 q 175 315 271 290 q 38 419 38 351 q 101 532 38 476 q 206 619 140 567 l 213 619 q 278 637 236 619 q 340 654 319 654 q 422 637 357 654 q 501 611 488 619 q 588 575 550 606 q 631 494 631 540 m 206 571 q 172 549 189 561 q 74 408 75 481 q 84 410 78 408 q 93 413 90 413 q 106 403 103 413 l 124 403 q 185 414 153 403 q 244 432 233 431 l 244 443 l 246 451 q 171 444 200 444 q 104 472 104 444 q 121 494 104 494 q 140 488 126 494 l 147 492 q 175 481 158 481 q 232 485 218 481 q 264 522 256 492 q 211 515 231 515 q 165 524 186 515 l 165 532 q 179 551 165 540 q 203 563 193 563 q 215 553 213 563 l 233 554 q 206 571 221 557 m 344 614 l 340 614 q 244 590 294 614 q 264 593 256 593 q 281 590 269 593 q 299 588 293 588 q 344 614 315 588 m 253 375 q 247 393 250 386 q 175 376 228 393 q 217 375 201 375 l 253 375 m 446 572 q 426 565 418 565 q 408 583 408 565 q 411 592 408 588 q 342 560 374 588 q 299 497 311 533 q 308 478 308 489 q 296 463 308 469 q 283 447 283 457 q 286 422 283 440 q 288 393 289 403 q 336 349 311 351 q 385 332 356 332 q 424 335 396 332 q 463 335 449 338 q 597 494 597 394 q 529 568 597 539 q 443 590 486 588 q 446 572 446 585 m 517 536 q 511 524 517 531 l 503 524 q 483 533 488 524 l 482 536 q 497 554 482 554 q 517 536 517 554 m 406 556 q 394 542 406 551 q 369 563 369 542 q 383 578 369 578 q 398 570 390 578 q 406 556 406 563 z "},"?":{"ha":964,"x_min":-7,"x_max":1036,"o":"m 1036 761 q 930 459 1036 608 q 679 254 824 310 q 617 224 656 244 q 638 117 619 156 q 581 94 619 99 q 565 93 593 93 q 581 94 574 93 q 488 94 565 94 q 142 65 306 94 q 79 196 93 121 q 53 340 78 199 q 122 432 69 382 q 203 515 188 494 l 181 560 q 139 549 167 560 q 97 539 111 539 l 65 549 q 28 694 47 596 l 25 697 l 14 725 l 24 754 q 8 855 24 789 q -7 956 -7 921 q 103 1031 -7 993 q 249 1076 151 1046 l 278 1067 q 622 1118 528 1118 q 906 1022 785 1118 q 1036 761 1036 919 m 1001 761 q 893 996 1001 900 q 647 1088 789 1088 q 232 1017 450 1088 l 231 996 q 285 619 221 849 l 290 617 q 406 656 315 617 q 547 694 496 694 q 672 644 619 694 q 600 436 669 492 q 463 397 561 406 q 347 371 364 389 l 344 315 q 351 254 343 289 l 365 194 q 385 139 381 186 q 450 136 408 142 q 515 131 499 131 q 597 136 500 131 l 581 214 l 585 242 q 683 290 607 256 q 778 344 747 319 q 935 531 872 422 q 1001 761 1001 647 m 611 650 q 572 658 597 651 q 410 617 461 617 q 310 593 383 617 q 207 558 263 578 l 221 546 q 611 650 361 576 m 636 611 l 635 624 q 233 525 419 551 l 236 515 q 218 482 236 501 q 435 533 224 483 q 631 571 610 575 q 636 611 636 603 m 229 767 q 224 818 226 789 l 213 819 q 135 803 189 822 q 54 778 72 781 q 56 731 54 763 l 63 728 q 142 754 79 735 q 213 774 204 774 q 229 767 222 774 m 78 613 q 82 615 79 614 q 107 613 94 613 q 181 629 119 613 q 243 640 235 644 l 246 647 q 240 676 244 657 q 83 628 188 660 q 69 649 69 640 l 71 657 q 153 685 97 671 q 233 711 208 699 q 231 744 233 725 q 61 699 172 731 q 78 613 65 656 m 253 610 q 101 576 142 576 q 94 576 97 576 q 104 572 99 572 q 178 590 108 572 q 253 610 236 604 m 88 317 q 129 336 111 329 l 103 336 q 93 346 100 343 q 88 321 88 333 l 88 317 m 310 315 q 308 358 310 331 l 283 353 q 271 333 271 350 q 171 319 243 332 q 89 308 121 311 q 92 288 89 300 q 121 294 106 294 q 139 290 129 294 q 135 278 138 283 q 310 315 193 288 m 318 254 l 314 282 q 131 249 185 249 q 100 250 115 249 q 107 221 101 240 q 133 235 135 235 q 150 225 142 235 l 143 213 q 318 254 192 217 m 329 196 q 322 224 326 204 q 245 198 307 214 q 164 182 183 182 l 132 182 q 114 175 114 182 q 128 156 114 156 q 143 161 132 156 q 160 167 154 167 q 174 164 167 167 l 175 158 q 168 146 175 151 q 249 174 196 160 q 329 196 286 183 m 342 108 q 240 106 290 106 l 243 92 q 342 108 308 104 q 363 110 353 108 l 361 111 q 342 108 356 110 m 336 157 l 333 165 q 135 124 268 144 q 161 122 136 122 q 176 119 169 122 q 281 147 211 129 q 336 157 301 150 m 206 915 q 131 883 181 904 q 49 867 93 868 q 81 897 61 893 q 119 910 113 904 q 161 922 136 911 q 201 938 192 935 l 201 940 q 192 1024 190 996 l 106 994 q 28 951 60 976 q 39 889 29 931 q 44 825 40 878 q 57 807 46 807 q 214 857 156 838 q 206 918 213 879 l 206 915 m 579 490 q 381 432 538 457 q 160 394 188 401 q 150 411 150 403 l 150 415 q 113 374 125 396 l 144 371 q 300 396 196 367 q 458 426 410 426 q 564 463 500 426 q 625 542 636 504 q 201 456 351 468 q 158 422 192 447 q 232 442 181 432 q 308 451 283 451 q 506 481 350 451 q 554 492 539 492 q 579 490 565 492 m 717 697 q 708 694 714 697 q 699 690 703 690 q 678 710 678 690 q 696 724 678 724 q 717 703 717 724 l 717 697 m 722 665 q 704 650 722 650 q 693 665 693 650 q 706 688 693 688 q 722 665 722 688 m 435 310 q 415 299 421 299 q 397 319 397 299 q 411 333 397 333 q 435 310 422 333 m 449 225 q 426 208 449 208 q 415 222 415 208 q 432 242 415 242 q 449 225 449 242 m 725 -104 q 615 -243 725 -190 q 429 -285 528 -285 q 257 -275 417 -285 q 207 -267 247 -267 q 160 -244 197 -267 q 119 -214 122 -222 q 90 -140 90 -176 q 253 -1 90 -74 q 478 63 397 63 q 522 58 493 63 q 567 54 551 54 q 610 22 613 54 l 607 21 q 725 -104 725 -15 m 689 -100 q 640 -26 689 -51 q 549 0 611 -12 q 519 19 538 6 q 397 -39 457 18 q 338 -157 338 -96 q 443 -247 338 -244 l 453 -240 l 474 -250 q 553 -237 536 -242 q 624 -207 603 -226 q 689 -100 689 -146 m 367 -247 q 329 -250 360 -250 l 315 -250 q 310 -257 310 -254 q 317 -262 310 -260 q 354 -254 336 -258 q 365 -260 360 -254 l 367 -247 m 333 -229 q 301 -210 322 -210 q 225 -231 294 -210 q 271 -236 247 -236 q 322 -231 296 -236 q 325 -232 324 -231 q 333 -229 328 -232 m 300 -135 q 242 -147 282 -140 q 167 -156 186 -156 q 125 -144 142 -156 l 125 -136 q 164 -111 125 -124 q 167 -122 167 -118 q 164 -132 167 -126 q 239 -122 194 -122 q 265 -118 247 -122 q 290 -114 282 -114 q 304 -114 297 -114 q 421 22 326 -37 q 249 -42 342 1 q 207 -62 225 -53 l 207 -62 q 315 -36 243 -53 l 317 -42 q 328 -56 328 -47 l 326 -62 l 321 -62 q 261 -72 294 -62 q 200 -82 221 -82 q 176 -81 189 -82 l 178 -79 q 119 -144 119 -115 q 140 -187 119 -167 q 182 -208 160 -208 q 194 -204 183 -207 q 300 -176 211 -200 q 300 -143 300 -171 q 300 -135 300 -139 m 489 -194 q 479 -207 489 -207 l 468 -207 q 450 -192 450 -207 q 468 -178 450 -178 q 489 -194 489 -178 m 446 -181 q 425 -201 439 -201 q 414 -194 419 -201 l 414 -187 q 426 -171 414 -171 q 446 -181 438 -171 z "},"@":{"ha":1643,"x_min":-6,"x_max":1728,"o":"m 1376 696 q 1365 721 1375 706 q 1228 749 1339 722 l 1228 729 q 1231 722 1228 725 q 1376 696 1279 715 m 1390 632 q 1383 653 1390 639 q 1356 660 1374 653 q 1328 667 1338 667 l 1321 667 q 1315 665 1317 665 q 1276 675 1301 665 q 1236 685 1250 685 q 1229 676 1229 685 q 1233 654 1229 669 q 1306 636 1247 653 q 1379 624 1349 624 q 1390 632 1390 624 m 1149 854 q 1043 875 1082 875 q 1021 874 1032 875 q 1149 854 1063 865 m 1338 761 q 1256 817 1317 783 l 1251 811 q 1024 828 1197 811 q 950 846 1000 836 q 1011 813 981 833 q 1036 817 1025 817 q 1070 810 1049 817 q 1100 801 1092 803 q 1117 803 1106 801 q 1133 804 1128 804 q 1236 788 1178 804 q 1338 761 1322 763 m 1388 579 q 1317 597 1361 590 q 1243 610 1258 606 l 1243 593 q 1296 569 1243 578 q 1339 558 1304 568 q 1381 549 1369 549 q 1388 579 1388 549 m 1085 768 l 1029 776 q 1058 767 1033 767 q 1076 764 1069 767 q 1085 768 1081 767 q 1183 757 1151 757 l 1204 757 l 1200 769 q 1178 765 1190 765 q 1145 769 1167 765 q 1113 774 1124 774 q 1085 768 1097 774 m 1375 513 q 1247 543 1332 522 l 1246 526 q 1249 511 1246 519 q 1364 483 1286 499 q 1375 513 1368 493 m 1056 728 q 1051 733 1056 729 q 1044 728 1044 732 q 1047 725 1044 726 l 1050 725 q 1056 728 1056 726 m 1342 447 q 1257 468 1313 453 q 1292 449 1261 457 q 1333 435 1328 439 l 1342 447 m 1014 721 l 1014 735 q 953 738 994 735 l 951 724 q 1014 721 993 721 m 992 768 q 868 828 969 799 q 799 786 832 811 q 878 774 815 785 q 956 765 926 765 q 992 768 975 765 m 800 742 q 793 743 800 742 q 776 746 786 744 l 800 742 q 854 733 847 733 q 864 735 858 733 l 860 747 q 824 740 844 740 q 800 742 814 740 m 747 715 q 728 722 738 718 q 688 671 704 701 q 756 658 742 658 q 793 676 783 658 l 785 676 q 767 674 779 676 q 749 672 754 672 q 708 694 708 672 l 710 701 q 747 715 726 713 m 547 919 q 424 960 511 940 q 286 871 378 931 q 465 822 347 860 q 547 919 493 853 m 639 561 l 626 519 l 639 519 q 664 517 654 519 l 672 546 q 639 561 649 547 m 722 626 q 692 639 706 639 q 640 564 664 639 q 658 588 646 574 q 676 583 669 583 q 722 626 692 583 m 653 429 q 651 444 653 435 l 651 460 q 653 475 651 469 q 621 481 636 481 q 613 450 619 481 q 610 429 610 436 q 615 419 610 419 q 633 426 621 419 q 649 421 643 421 q 653 429 653 421 m 444 785 q 350 815 413 803 q 254 840 281 828 q 204 795 221 811 q 176 763 188 779 q 389 700 289 721 q 444 785 400 719 m 663 361 q 615 385 663 381 l 614 360 q 618 353 614 353 q 623 354 619 353 q 629 356 626 356 q 643 353 633 356 q 657 350 653 350 q 663 361 663 350 m 701 178 q 797 117 744 133 q 701 178 763 135 m 693 188 l 690 189 l 692 186 l 693 188 m 810 176 q 760 181 782 178 q 881 101 822 150 q 921 97 907 97 q 857 129 900 103 q 808 172 808 158 q 810 176 808 175 m 1003 115 q 938 146 985 121 q 868 171 901 165 q 903 149 882 163 q 985 113 956 113 q 1003 115 994 113 m 707 264 q 675 307 683 288 l 671 307 q 649 311 664 307 q 625 315 633 315 q 618 308 618 315 q 707 264 618 272 m 785 217 q 644 243 690 232 q 601 263 646 253 q 588 318 597 281 q 571 413 571 379 q 639 671 571 546 q 828 856 713 807 q 900 885 854 861 q 969 897 924 885 q 1038 910 1014 910 q 1306 838 1199 910 q 1431 601 1431 754 q 1401 456 1431 518 q 1289 375 1364 375 q 1243 413 1250 375 q 1201 558 1214 438 q 1185 726 1196 614 l 1118 733 l 1118 726 l 1099 704 l 1092 669 l 1057 660 q 994 672 1036 660 q 931 683 953 683 q 742 582 847 683 l 740 561 q 694 422 694 510 q 747 282 694 344 q 876 219 800 219 q 925 221 890 219 q 972 221 956 222 q 1035 246 989 232 q 1094 275 1076 258 q 1215 224 1135 258 q 1342 196 1283 196 q 1590 290 1492 196 q 1688 535 1688 385 q 1643 718 1688 614 q 1578 892 1589 847 q 1299 1043 1478 1001 q 975 1072 1172 1072 q 651 954 804 1072 q 429 685 518 851 l 436 667 q 346 357 361 625 l 363 325 l 350 314 q 368 222 349 244 l 363 199 q 375 149 363 182 q 389 100 388 115 q 411 68 411 83 q 406 54 411 60 q 426 18 421 25 q 456 -11 439 -1 q 676 -175 474 -94 q 963 -246 856 -246 q 1089 -218 1032 -246 l 1090 -156 q 1072 82 1092 -82 l 1060 82 q 983 71 1033 82 q 910 60 933 60 q 739 101 811 60 q 603 214 688 131 l 604 231 q 603 256 606 240 q 729 221 653 235 q 782 204 760 215 l 785 217 m 368 664 q 169 722 301 679 q 126 644 160 708 q 344 588 219 617 q 368 664 356 613 m 311 438 l 310 436 q 68 493 229 457 q 47 371 47 425 q 57 308 47 335 q 310 244 151 265 q 307 328 308 250 q 67 396 154 358 l 67 414 q 94 425 79 425 q 192 400 101 425 l 304 369 q 311 438 307 407 m 331 549 q 218 579 289 557 q 107 613 138 606 q 82 532 93 578 q 208 501 108 528 q 315 471 290 481 q 331 549 322 518 m 342 107 q 315 201 336 132 q 183 226 250 214 q 57 267 108 243 q 82 174 60 253 q 210 133 179 142 q 342 107 283 113 m 367 -110 q 175 -50 278 -81 l 176 -28 q 86 58 149 4 q 6 360 6 206 q 33 507 6 413 l -6 529 l -4 546 l 40 539 q 368 970 151 822 q 888 1118 585 1118 q 1464 1021 1274 1118 q 1728 538 1728 886 q 1625 271 1728 385 q 1371 157 1522 157 q 1235 181 1307 157 q 1104 231 1210 189 q 954 182 1035 194 q 1022 142 976 168 q 1099 129 1060 122 q 1122 -61 1117 49 q 1128 -254 1125 -158 q 1033 -274 1117 -257 q 938 -285 978 -285 q 840 -264 883 -285 q 792 -253 826 -264 q 740 -246 757 -243 q 367 -112 454 -124 l 367 -110 m 653 -181 q 369 -99 464 -128 l 367 -110 l 381 -114 q 579 -176 407 -119 l 588 -179 q 653 -181 596 -181 m 381 13 q 354 64 375 33 q 247 86 318 71 q 94 133 139 111 q 126 83 104 117 q 381 13 196 53 m 454 -87 q 418 -36 443 -69 q 178 22 336 -21 q 304 -56 222 -29 q 454 -87 333 -65 m 621 1032 q 657 1015 635 1026 q 660 1010 658 1013 q 714 1046 685 1028 q 621 1032 683 1042 m 633 992 l 601 1003 q 576 1024 582 1008 q 481 990 525 1013 q 582 947 513 986 q 633 992 604 968 m 1328 344 l 1318 335 l 1314 339 l 1324 349 l 1328 344 m 1188 371 q 1165 349 1188 365 q 1147 375 1147 356 q 1161 392 1147 392 q 1186 379 1179 392 q 1188 371 1188 375 m 1239 313 q 1224 293 1239 304 l 1211 293 q 1196 306 1196 293 q 1217 328 1196 325 q 1239 313 1238 315 m 1090 481 q 1042 409 1082 440 q 960 378 1001 378 q 885 451 885 378 q 904 517 885 503 q 968 533 914 524 q 989 539 972 535 q 1010 543 1001 543 q 1090 481 1057 543 m 1017 510 q 1013 514 1017 513 q 1001 515 1015 515 q 994 508 994 515 q 1001 501 994 501 q 1010 506 1007 501 l 1014 506 q 1017 510 1017 508 m 1054 475 l 1050 479 l 1054 483 q 971 494 958 494 q 918 482 942 494 q 917 472 917 476 q 933 456 917 463 q 968 451 935 454 l 965 453 q 926 461 939 461 q 933 488 931 483 q 1032 475 989 475 l 1054 475 m 956 414 q 936 421 949 417 q 958 413 944 417 q 982 408 971 408 l 988 408 l 985 421 q 961 414 975 414 l 956 414 m 1050 479 l 1047 476 l 1047 482 l 1050 479 m 904 -107 q 885 -122 904 -122 q 865 -104 865 -122 q 881 -87 865 -87 q 904 -107 904 -87 m 801 -126 q 794 -142 801 -133 q 781 -160 792 -160 q 765 -147 774 -160 q 756 -125 756 -133 q 775 -103 756 -103 q 801 -126 801 -103 m 601 263 l 603 256 q 575 268 589 261 q 601 263 589 265 z "},"A":{"ha":1342,"x_min":-14,"x_max":1431,"o":"m 1431 -176 q 1036 -232 1329 -206 q 629 -257 761 -257 l 601 -225 q 299 -251 450 -237 q -4 -286 121 -267 l -14 -224 q 32 147 -14 -125 q 146 661 85 458 q 296 921 225 921 q 531 1019 331 921 q 788 1118 731 1118 l 839 1106 q 1431 -176 1125 829 m 1388 -149 q 1256 235 1372 -65 q 1013 792 1125 568 q 804 1076 868 1076 l 743 1058 q 563 610 647 888 l 421 147 q 376 -31 406 97 q 328 -207 351 -144 q 756 -142 578 -204 q 760 -76 764 -118 q 756 -11 756 -25 q 811 47 756 31 q 888 89 875 67 l 925 67 q 967 -183 928 -33 q 1178 -175 1072 -179 q 1388 -149 1303 -168 m 688 1047 q 260 861 482 963 q 200 729 231 835 q 158 579 200 729 q 208 574 192 583 l 481 607 q 540 646 524 613 q 561 719 544 654 q 378 685 492 711 q 196 646 243 654 l 186 664 l 197 683 q 389 711 293 697 q 569 760 510 732 q 636 892 594 771 q 688 1047 653 943 m 863 25 l 863 39 q 818 21 833 31 l 825 10 l 857 26 q 863 25 861 26 m 896 -19 q 890 11 896 -7 q 822 -8 854 -8 q 803 -6 813 -8 q 800 -39 801 -15 q 896 -19 835 -33 m 910 -85 q 906 -72 910 -81 l 900 -60 l 819 -72 q 799 -68 806 -72 q 797 -103 797 -86 l 797 -122 q 910 -85 804 -119 m 515 575 l 360 550 q 203 538 275 538 q 150 546 171 538 l 103 326 q 117 325 108 326 q 132 324 126 324 q 449 369 206 324 l 474 451 q 325 425 400 438 q 176 410 239 410 q 140 432 140 410 q 172 454 140 446 q 215 461 196 461 l 229 460 l 231 453 q 246 451 238 454 q 365 474 283 465 q 485 499 446 483 q 515 575 496 524 m 865 -201 l 865 -187 l 856 -187 l 856 -201 l 865 -201 m 793 -174 q 699 -189 736 -182 q 689 -206 697 -200 l 714 -200 q 786 -178 763 -190 l 793 -174 m 436 329 l 267 304 q 96 292 169 290 q 81 194 93 267 q 131 203 94 203 l 139 203 l 135 183 q 415 253 226 210 q 436 329 422 278 m 647 -215 l 636 -217 l 638 -219 l 638 -218 q 647 -215 642 -217 m 399 204 q 243 174 369 201 q 86 153 147 153 l 75 164 q 60 83 68 128 q 379 136 163 86 q 399 204 393 171 m 364 90 q 58 42 214 60 l 53 49 l 50 33 q 42 -10 46 11 l 71 -11 q 181 0 79 -11 q 201 3 193 1 l 208 10 q 276 21 226 11 q 344 29 321 31 q 364 90 350 51 m 339 -8 q 67 -51 249 -26 l 42 -35 q 39 -32 40 -33 q 21 -226 21 -143 l 21 -244 l 28 -247 q 276 -214 139 -247 q 173 -228 243 -215 q 65 -240 103 -240 q 28 -233 47 -240 l 26 -222 l 42 -200 q 58 -202 47 -200 q 75 -204 69 -204 q 185 -193 101 -204 q 285 -175 268 -182 q 311 -125 303 -168 q 188 -137 261 -126 q 64 -154 90 -151 l 60 -150 l 60 -151 l 40 -136 q 54 -114 39 -118 l 83 -114 q 200 -101 125 -114 q 317 -87 282 -89 q 339 -8 332 -61 m 953 718 q 936 700 953 700 q 915 719 915 700 q 925 739 915 731 l 936 733 q 953 718 953 721 m 890 194 q 735 161 867 189 q 733 201 733 182 q 804 439 733 307 q 799 454 799 447 q 825 478 799 478 q 846 454 842 478 q 890 194 861 349 m 821 372 q 818 394 817 381 q 799 360 813 378 l 800 360 q 821 372 804 360 m 826 324 l 825 335 l 822 332 q 815 333 818 333 q 781 304 789 333 l 779 293 q 826 324 796 301 m 835 283 l 835 285 l 831 282 l 835 283 m 786 261 q 775 265 781 261 l 774 256 q 786 261 776 257 m 843 217 l 818 217 l 818 211 q 826 201 818 201 q 835 204 831 201 q 843 217 843 214 m 851 247 l 842 256 q 813 238 838 246 q 776 221 783 228 l 768 221 l 768 203 l 776 203 q 771 214 774 207 q 776 221 774 218 q 851 247 803 224 m 715 22 q 688 -4 715 4 q 671 21 671 3 q 693 39 671 39 q 715 22 715 39 m 665 -72 q 653 -92 665 -83 q 624 -74 624 -87 q 647 -51 624 -51 q 665 -72 665 -51 m 624 858 q 207 740 494 835 q 613 885 392 850 l 621 872 l 624 867 l 624 858 z "},"B":{"ha":1124,"x_min":-8,"x_max":1179,"o":"m 1179 183 q 979 -151 1179 -7 q 597 -285 796 -285 q 79 -171 421 -285 l 76 -172 l 50 -171 q -8 586 -8 246 q -7 726 -8 700 q 24 854 -1 840 l 28 882 q 771 1119 329 1119 q 1001 1044 890 1119 q 1124 847 1124 961 q 1063 676 1124 776 q 940 533 1003 575 l 938 524 q 1110 392 1042 490 q 1179 183 1179 294 m 433 1035 q 322 1025 365 1035 l 328 1011 q 433 1035 369 1032 m 547 1061 l 542 1074 q 446 1035 463 1039 q 499 1038 464 1036 q 547 1061 497 1057 m 394 997 q 367 994 385 997 q 340 990 350 990 q 329 992 336 990 l 317 992 q 260 979 292 992 q 304 986 276 979 q 394 997 336 985 m 342 953 q 286 943 329 951 q 229 938 251 936 q 219 938 229 938 q 210 939 213 939 q 121 908 168 939 q 317 931 257 932 q 342 953 319 936 m 1139 192 q 1072 387 1139 306 q 892 493 1004 468 l 869 528 q 1014 665 944 568 q 1089 846 1089 768 q 985 1010 1089 940 q 793 1072 892 1072 q 471 1004 601 1072 q 306 742 306 917 q 336 -121 306 204 q 508 -196 389 -160 q 694 -232 626 -232 q 991 -94 843 -232 q 1139 192 1139 44 m 106 883 l 93 889 q 47 861 69 869 l 60 854 q 81 870 63 867 q 106 883 100 874 m 75 -106 l 88 -93 q 147 -97 117 -97 q 296 -78 217 -97 l 290 -31 q 103 -58 197 -58 l 82 -58 l 71 -31 q 88 -19 78 -22 q 108 -22 94 -19 q 126 -25 121 -25 q 218 -11 157 -25 q 290 22 290 6 l 288 43 q 81 18 196 18 q 60 28 72 18 q 75 -106 67 -39 m 82 -133 l 79 -132 l 79 -133 l 82 -133 m 297 -118 l 297 -114 q 218 -131 267 -125 q 238 -131 229 -131 q 296 -126 271 -131 l 297 -118 m 586 -242 q 482 -228 517 -232 l 482 -242 q 531 -246 493 -239 l 583 -256 l 586 -242 m 361 -208 l 357 -207 q 318 -199 332 -199 q 292 -201 308 -199 q 328 -214 315 -214 q 356 -210 336 -214 l 361 -208 m 453 -201 q 443 -200 449 -200 q 410 -211 439 -200 q 419 -218 414 -214 q 431 -208 425 -208 q 449 -215 432 -210 l 453 -201 m 353 -172 q 305 -178 336 -172 q 257 -183 274 -183 q 211 -169 229 -183 l 206 -182 q 250 -186 225 -186 q 288 -185 263 -186 q 325 -183 313 -183 q 351 -186 343 -183 l 353 -172 m 285 157 q 279 153 282 156 l 260 153 q 166 142 228 153 q 75 132 104 132 q 50 160 67 140 l 60 160 q 167 173 96 160 q 275 186 239 186 l 281 186 l 285 182 q 281 272 283 222 l 57 260 l 49 268 l 44 285 q 279 311 124 292 q 279 393 281 339 q 178 382 244 393 q 76 371 111 371 q 47 393 63 371 q 278 429 133 426 l 278 439 q 268 521 278 435 q 224 536 240 536 q 172 526 206 536 q 121 517 139 517 l 97 526 q 269 574 147 576 l 269 874 q 219 883 228 883 q 36 808 178 883 q 32 586 32 693 q 57 49 32 308 l 65 63 q 114 58 88 58 q 286 83 190 58 q 285 157 286 113 m 883 906 q 876 888 883 899 q 863 878 869 878 q 844 907 844 878 q 860 928 844 928 q 883 906 883 928 m 767 683 q 644 544 767 594 q 626 540 635 540 q 611 557 611 540 q 615 570 611 561 q 618 585 618 579 q 603 740 618 672 q 693 765 650 765 q 767 683 767 765 m 713 726 q 697 731 707 731 q 671 726 689 731 l 713 726 m 669 690 q 644 693 654 692 l 644 689 q 669 690 656 690 q 728 682 713 686 l 728 679 l 733 686 l 721 686 q 695 688 713 686 q 669 690 678 690 m 650 611 q 651 594 651 603 q 674 603 660 597 q 650 611 660 603 m 718 649 q 649 651 694 649 l 649 649 q 650 626 649 642 q 676 640 656 639 q 718 649 714 643 m 821 524 q 799 510 821 510 q 785 525 785 510 q 792 547 785 538 q 821 524 821 536 m 835 458 q 804 443 817 443 q 788 450 794 443 q 806 490 788 475 l 811 490 q 826 480 822 490 q 835 458 831 469 m 750 485 q 729 458 750 458 q 722 460 726 458 l 714 460 q 711 474 711 467 q 736 497 711 497 q 750 485 750 497 m 785 163 q 767 99 785 124 q 707 36 753 79 q 643 -12 656 -12 q 618 13 638 -12 q 613 121 617 46 q 614 229 608 189 q 607 240 607 236 q 610 254 607 246 q 614 267 614 263 q 685 288 663 288 q 742 264 715 288 l 754 269 q 785 163 785 211 m 685 253 l 685 267 l 671 267 l 671 253 l 685 253 m 738 213 q 725 229 738 218 l 647 229 q 642 207 646 221 q 669 211 650 211 q 697 209 679 211 q 725 207 715 207 q 738 213 738 207 m 749 169 l 747 171 q 725 172 738 172 q 694 170 715 172 q 664 168 674 168 q 642 171 651 168 q 636 143 636 153 q 661 122 636 125 l 699 122 q 735 118 722 122 l 742 129 q 722 133 732 133 q 703 131 715 133 q 685 129 692 129 q 643 140 664 129 q 718 169 667 169 l 749 169 m 704 81 q 679 83 696 81 q 654 86 663 86 l 646 86 l 646 79 q 668 65 646 65 q 704 81 693 65 m 663 32 l 658 42 q 651 36 654 36 l 651 42 l 639 39 q 663 32 653 31 m 471 -86 q 440 -119 451 -119 q 421 -108 432 -119 l 421 -101 q 443 -60 421 -78 q 471 -86 471 -68 m 401 -29 q 379 -50 401 -50 q 368 -26 368 -50 q 360 -19 368 -24 q 385 -7 369 -7 q 401 -29 401 -7 m 251 678 q 247 669 250 674 l 246 672 l 240 663 l 224 664 q 144 654 206 665 q 65 643 93 644 q 151 683 94 683 q 185 688 163 683 q 218 692 207 692 q 251 678 251 692 z "},"C":{"ha":1346,"x_min":-6,"x_max":1397,"o":"m 1397 -58 q 774 -285 1171 -285 q 418 -239 621 -285 q 96 -107 181 -185 q -6 293 -6 -12 q 297 921 -6 699 q 989 1118 567 1118 q 1148 1081 1036 1118 q 1292 1017 1260 1044 q 1315 742 1301 925 q 1125 729 1163 735 q 979 653 1021 714 q 944 488 944 600 l 944 463 l 981 413 l 1040 404 q 1175 451 1111 404 q 1269 543 1207 475 q 1336 596 1315 593 l 1347 586 q 1397 -58 1392 164 m 1361 -42 q 1310 533 1360 103 q 1189 413 1242 447 q 1026 367 1119 367 q 907 503 907 367 q 1015 726 907 664 q 1269 779 1092 771 l 1265 890 q 1246 1000 1261 949 q 939 1072 1078 1072 q 496 835 669 1072 q 343 342 339 619 l 346 163 l 351 157 q 401 7 356 96 q 504 -103 453 -92 q 665 -210 546 -171 q 863 -242 763 -242 q 1361 -42 1139 -242 m 638 1036 q 371 921 518 1013 q 125 681 183 804 q 194 683 149 681 q 263 686 239 686 q 367 661 369 686 l 367 654 q 236 644 321 642 q 104 642 140 647 q 33 290 33 475 q 43 136 33 206 l 61 157 q 131 149 93 149 q 213 154 158 149 q 294 160 267 160 q 301 194 303 176 l 299 242 q 226 244 268 246 l 154 242 q 56 256 101 242 l 51 267 l 61 290 q 181 279 108 278 l 299 281 q 303 357 299 306 q 242 354 281 358 q 181 350 197 350 q 39 368 88 350 l 49 396 q 136 389 86 389 q 219 392 164 389 q 303 396 275 396 q 317 496 306 429 l 256 496 q 110 532 110 496 l 121 544 q 222 539 126 543 q 310 526 297 535 q 342 587 331 539 q 367 649 353 635 q 390 708 368 671 q 414 764 411 744 q 311 771 382 771 q 231 769 275 771 l 221 800 q 329 813 276 813 q 428 799 383 813 q 638 1036 511 976 m 626 -236 q 533 -219 622 -235 q 381 -193 472 -207 l 372 -200 q 533 -219 479 -217 q 626 -236 590 -232 m 321 68 q 310 118 308 97 q 211 115 274 121 q 113 108 139 108 q 44 121 60 108 q 61 44 51 79 l 68 69 q 154 57 106 57 q 238 63 181 57 q 321 68 294 68 m 376 -28 q 344 25 364 -11 q 239 24 300 26 q 132 19 153 19 q 64 35 86 19 q 92 -33 76 -3 l 117 -25 q 221 -39 161 -39 q 376 -28 203 -39 m 535 -185 q 381 -137 488 -142 q 211 -133 329 -135 l 203 -122 l 222 -97 l 229 -94 q 419 -106 317 -106 l 435 -106 l 403 -69 q 297 -72 364 -68 q 192 -76 221 -76 q 108 -60 142 -76 q 286 -151 171 -151 q 411 -165 333 -151 q 535 -185 504 -182 m 900 710 q 888 704 893 710 q 875 699 882 699 q 865 701 871 699 q 863 713 865 704 q 860 725 860 721 q 869 742 860 733 q 900 710 900 736 m 739 628 q 738 619 738 626 q 724 606 738 606 q 708 613 718 606 q 699 625 699 621 q 719 642 699 642 q 739 628 732 642 m 960 322 q 922 310 953 314 q 919 331 919 328 q 939 343 919 343 q 951 335 947 343 q 960 322 951 331 m 983 274 q 949 249 983 249 q 935 272 935 249 q 960 290 935 290 q 983 274 983 290 m 829 269 q 813 231 826 257 q 788 244 801 231 l 788 251 q 795 272 788 260 q 811 283 803 283 q 829 269 821 283 m 735 -150 q 719 -162 735 -162 q 699 -146 699 -162 q 714 -128 699 -128 q 735 -150 735 -128 m 653 -101 q 636 -117 653 -117 q 614 -101 614 -117 q 625 -85 614 -92 q 632 -83 628 -85 q 653 -101 653 -83 z "},"D":{"ha":1357,"x_min":-8,"x_max":1415,"o":"m 1415 451 q 1242 -61 1415 147 q 758 -285 1057 -285 q 400 -264 596 -285 q 69 -186 132 -235 q 29 -111 36 -160 q 28 -22 28 -101 q 8 364 28 86 q -6 749 -8 600 l -3 906 q 386 1067 149 1010 q 807 1118 596 1118 q 1029 1079 943 1118 q 1061 1058 1050 1069 q 1333 822 1233 1032 q 1415 451 1415 650 m 444 1039 q 314 1004 383 1025 q 463 996 456 996 q 513 1025 468 996 q 492 1022 506 1025 q 471 1019 478 1019 q 439 1032 451 1019 q 444 1039 442 1036 m 661 1074 q 543 1060 608 1071 q 553 1058 556 1058 l 563 1050 q 661 1074 603 1063 m 1385 454 q 1251 881 1328 767 q 860 1056 1133 1056 q 607 1015 724 1056 q 394 879 472 969 q 418 -162 424 199 q 575 -237 478 -218 q 753 -250 638 -250 q 921 -207 801 -250 q 1086 -139 1018 -172 q 1379 367 1347 -12 q 1385 454 1376 396 m 418 963 q 240 969 368 963 q 224 979 231 969 q 179 958 218 972 q 128 940 156 950 l 146 933 l 150 942 q 374 953 200 953 q 418 963 404 953 m 392 917 l 389 931 q 318 917 358 917 q 248 924 294 917 q 178 931 201 931 l 178 917 q 353 915 165 915 q 392 917 374 915 m 272 885 l 272 899 l 257 899 l 257 885 l 272 885 m 124 899 l 86 903 l 78 914 q 60 906 72 911 q 115 899 85 899 l 124 899 m 358 490 q 356 778 358 586 l 342 788 q 351 817 351 801 q 349 838 351 821 q 349 857 347 850 q 42 864 246 857 q 36 739 36 807 q 39 618 36 700 q 42 496 42 536 q 128 490 75 490 q 243 493 149 490 q 358 490 317 496 m 60 0 q 374 17 185 21 l 376 28 q 372 56 376 38 q 368 83 368 74 q 268 89 326 92 l 167 83 q 119 86 142 83 q 93 106 113 94 l 101 121 l 171 119 q 254 121 194 119 q 369 124 328 124 l 371 136 q 363 213 369 150 q 263 222 321 222 q 160 218 250 222 l 158 217 l 151 211 l 118 211 q 75 228 97 211 q 278 260 175 260 q 367 254 322 260 l 367 299 q 364 344 367 325 q 163 357 267 357 q 57 354 111 357 l 44 374 l 47 382 q 168 393 100 393 q 360 382 149 393 l 360 451 q 183 453 301 451 q 42 468 75 454 l 42 428 q 51 129 42 300 q 60 0 56 54 m 382 -124 l 379 -107 q 204 -103 331 -103 l 139 -103 q 88 -81 97 -103 q 333 -69 108 -76 l 379 -68 q 376 -25 376 -51 q 85 -26 353 -26 q 63 -22 72 -26 q 82 -146 71 -122 q 379 -162 181 -150 q 381 -143 379 -156 q 382 -124 382 -131 m 501 -243 q 392 -221 428 -231 q 444 -247 431 -247 q 461 -245 450 -247 q 478 -243 472 -243 q 496 -254 489 -243 l 501 -243 m 289 -196 q 222 -190 257 -192 q 269 -197 250 -197 q 289 -196 279 -197 m 1079 624 q 1054 594 1079 594 q 1038 614 1038 594 q 1061 640 1038 640 q 1078 631 1064 640 q 1079 624 1079 626 m 1013 314 q 901 118 1013 211 q 696 7 811 43 q 685 172 683 65 q 678 339 686 289 q 667 357 665 343 l 667 367 l 686 379 l 685 388 q 721 408 685 394 q 853 467 813 467 q 965 422 917 467 q 1013 314 1013 376 m 901 414 q 853 424 879 424 q 822 421 836 424 q 901 414 831 419 m 960 360 l 958 365 q 824 386 888 386 q 803 381 831 386 q 757 376 765 378 q 719 356 729 371 q 850 364 799 364 q 885 364 885 364 q 921 363 932 363 q 939 360 926 363 q 957 357 951 357 l 960 360 m 972 303 l 972 306 q 953 321 972 321 q 933 318 944 321 l 929 326 l 794 326 q 718 319 757 326 l 718 306 q 719 296 718 301 q 899 306 835 306 q 972 303 936 306 m 722 196 q 706 190 714 193 q 722 172 713 178 q 722 196 722 185 m 949 235 q 929 207 940 221 l 932 207 q 951 224 951 207 q 949 235 951 229 m 739 264 q 726 265 728 265 l 721 265 q 717 261 717 265 q 718 257 717 260 q 739 264 728 261 m 788 89 l 733 97 q 718 86 718 97 q 719 79 718 83 q 732 82 725 82 q 748 79 738 82 q 764 76 758 76 q 788 89 768 76 m 733 -67 q 719 -90 733 -78 q 701 -82 710 -86 q 686 -64 692 -78 q 713 -51 696 -51 q 733 -67 733 -51 m 614 -117 q 601 -125 610 -118 q 582 -143 588 -143 q 563 -132 572 -143 q 592 -92 581 -92 q 614 -117 596 -92 m 354 628 q 340 617 354 617 q 264 622 315 617 q 188 626 213 626 q 147 623 174 626 q 107 619 121 619 q 92 633 92 619 q 186 654 92 654 q 349 647 174 654 q 354 628 354 636 z "},"E":{"ha":1388,"x_min":-7,"x_max":1443,"o":"m 1443 674 q 1439 594 1439 640 q 1439 547 1439 547 q 1440 519 1439 538 q 1440 500 1440 506 q 1415 338 1440 399 q 1181 313 1328 325 l 944 292 q 919 182 919 232 l 924 147 q 1415 263 1088 185 q 1424 118 1424 201 q 1407 -135 1424 -4 l 1410 -133 l 1431 -147 q 860 -256 1406 -215 q 165 -285 465 -285 q 88 -276 140 -285 q 11 -271 36 -268 q 10 -142 11 -260 l -7 -118 l 15 -103 q 6 79 6 -21 q 35 510 6 219 q 61 940 63 793 l 117 976 l 667 1067 q 1218 1118 988 1118 q 1339 1047 1301 1118 q 1364 901 1368 989 l 1358 796 q 990 753 1138 754 q 957 615 965 726 l 1006 613 q 1213 649 1072 608 q 1421 688 1349 688 l 1443 674 m 624 1014 q 343 974 529 1001 q 483 983 469 983 q 500 987 489 983 q 517 990 511 990 q 531 985 525 990 q 624 1014 576 1001 m 1410 524 q 1400 640 1401 553 q 932 565 1210 615 l 917 600 q 978 778 917 731 q 1129 817 1022 813 q 1324 829 1289 822 q 1279 1069 1315 983 q 1210 1075 1247 1075 q 881 1033 1056 1075 q 557 950 774 1006 q 475 364 511 703 q 424 -226 460 219 l 428 -232 q 1364 -151 857 -229 q 1381 33 1378 -75 l 1385 218 q 1142 165 1275 200 l 901 103 q 883 185 883 140 q 922 325 883 258 q 1186 342 1010 329 q 1399 421 1388 358 q 1400 474 1400 428 q 1410 524 1400 507 m 204 949 l 204 963 l 176 963 l 176 949 l 204 949 m 468 678 q 274 690 401 692 q 78 700 140 689 q 74 658 78 686 q 71 615 71 629 l 78 615 q 89 599 89 610 l 133 599 l 451 590 q 468 678 460 619 m 447 550 q 256 560 372 560 q 65 561 103 558 l 61 514 q 64 490 61 501 q 243 493 151 493 q 433 490 336 493 q 447 550 439 510 m 433 438 l 433 444 q 211 463 322 463 q 58 453 131 463 l 58 446 q 56 422 58 438 q 53 397 53 406 q 72 401 64 401 q 103 390 88 401 l 169 390 q 299 393 210 390 l 429 397 q 433 438 433 417 m 47 132 l 47 38 q 396 69 206 67 q 399 90 399 81 l 397 119 q 197 122 344 122 l 92 122 q 47 132 58 122 m 422 319 l 422 356 q 329 358 381 358 q 211 355 290 358 q 93 351 132 351 q 53 361 79 351 q 47 153 49 310 l 50 158 q 229 161 174 161 q 401 154 329 161 q 414 251 403 197 l 339 250 q 283 253 319 250 q 228 257 246 257 q 179 254 211 257 q 131 251 147 251 q 56 268 88 251 l 54 274 q 76 297 54 297 q 93 289 67 297 q 400 286 107 286 q 422 319 422 286 m 390 -97 l 390 -68 l 382 -68 q 360 -66 375 -68 q 338 -64 344 -64 q 313 -67 321 -64 q 240 -62 281 -62 q 51 -74 249 -62 q 49 -87 51 -78 q 47 -103 47 -97 l 49 -110 q 390 -97 163 -108 m 385 -142 l 322 -140 q 186 -144 293 -140 q 49 -149 93 -149 q 46 -169 46 -160 q 165 -186 46 -186 q 379 -179 303 -186 q 382 -161 379 -174 q 385 -142 385 -149 m 376 -221 q 288 -221 288 -221 l 160 -222 q 49 -218 103 -222 q 43 -240 43 -236 l 44 -247 l 186 -247 q 289 -242 231 -247 q 376 -221 372 -233 m 96 838 l 357 851 q 494 840 429 851 q 511 942 508 907 q 479 943 500 942 q 447 944 458 944 q 357 933 449 944 q 339 932 346 932 q 107 917 275 928 q 96 838 101 886 m 489 813 q 483 811 486 811 q 294 819 467 819 q 96 836 203 819 q 83 736 90 793 q 279 729 144 728 q 474 719 407 731 q 489 813 476 751 m 1246 864 q 1238 850 1246 851 l 1221 847 q 1207 863 1207 853 q 1221 885 1207 869 q 1246 864 1246 881 m 901 464 q 874 440 901 440 q 856 463 856 440 q 874 483 856 483 q 901 464 901 483 m 736 -43 q 704 -75 736 -75 q 699 -56 699 -65 q 711 -26 699 -42 q 722 -24 717 -24 q 736 -43 736 -24 m 681 8 q 672 -10 681 -1 q 653 -18 663 -18 q 629 -1 649 -18 q 660 26 636 26 q 681 8 681 26 z "},"F":{"ha":1288,"x_min":-4,"x_max":1376,"o":"m 1376 593 q 1336 325 1376 518 q 1083 296 1260 301 q 836 264 913 292 q 847 47 844 182 l 853 -169 l 871 -183 l 875 -206 q 642 -233 803 -229 q 410 -267 486 -237 q 332 -256 374 -256 q 218 -270 293 -256 q 104 -285 143 -285 l 35 -275 q 15 -117 15 -239 q 22 43 15 -68 q 26 203 28 146 l 22 407 l -4 414 l 8 436 l 21 435 q 46 688 22 444 q 101 907 64 876 l 124 901 q 183 925 144 901 q 238 951 221 949 q 329 967 276 957 q 417 993 372 976 q 808 1071 560 1047 q 1206 1118 1122 1100 q 1294 1104 1236 1119 l 1294 1092 q 1309 990 1294 1057 q 1324 890 1324 924 q 1310 813 1324 849 q 1089 763 1210 799 q 881 681 951 722 l 878 621 l 890 607 q 1124 638 972 607 q 1356 672 1282 669 l 1376 654 l 1376 593 m 663 1001 q 411 949 569 993 l 413 949 q 564 975 415 949 q 663 1001 621 985 m 1338 542 l 1333 633 q 1090 600 1256 629 q 847 571 932 572 l 839 626 q 853 715 839 667 q 1276 846 993 778 l 1285 899 q 1270 989 1285 931 q 1254 1074 1256 1047 q 485 904 835 1061 l 489 901 q 429 868 474 874 q 415 649 415 774 q 419 454 415 618 q 419 261 422 339 l 433 260 l 443 236 l 421 222 q 417 97 422 196 q 411 -54 411 -6 q 421 -139 411 -118 l 408 -169 q 439 -222 408 -222 q 821 -185 636 -222 q 813 56 822 -94 q 800 294 801 228 q 1050 324 879 313 q 1300 357 1215 336 q 1338 542 1343 435 m 279 910 q 249 914 260 914 q 211 904 229 914 q 197 906 203 907 q 185 901 189 901 l 182 903 l 182 890 l 210 903 q 219 894 215 903 q 279 910 254 900 m 428 910 l 425 922 q 338 904 389 907 q 351 904 344 904 q 428 910 379 904 m 388 868 q 358 863 378 868 q 329 858 339 858 q 283 863 314 858 q 236 868 251 868 q 206 861 226 868 q 176 854 186 854 q 149 859 167 854 q 121 864 131 864 q 104 838 111 864 q 99 801 99 817 q 160 790 99 790 q 269 794 176 790 q 379 794 335 797 l 388 868 m 74 532 q 64 438 65 465 q 217 450 115 438 q 371 463 319 463 l 378 458 q 375 536 378 507 q 333 539 354 539 q 242 532 303 539 q 150 525 181 525 q 74 532 111 525 m 379 747 l 379 753 q 304 757 343 757 q 200 753 317 757 q 96 754 144 751 q 82 596 94 693 l 78 564 q 124 563 99 563 q 248 569 165 563 q 372 575 331 575 l 374 589 q 372 624 372 600 q 303 633 343 633 q 218 628 275 633 q 133 624 161 624 q 106 647 106 624 q 122 664 106 664 l 150 664 q 263 667 201 664 q 374 669 344 671 l 374 675 q 379 747 379 722 m 382 390 q 376 418 382 401 l 321 419 q 190 414 278 421 l 61 404 l 61 358 q 78 349 71 358 q 146 351 103 350 q 201 357 164 351 q 257 363 238 363 q 293 361 269 363 q 329 360 317 360 q 382 390 382 360 m 64 254 q 246 264 124 264 q 375 261 303 264 q 375 286 374 272 q 378 310 378 310 l 376 324 l 321 325 q 214 320 285 325 q 107 315 143 315 q 63 317 83 315 q 64 264 64 290 l 64 254 m 383 190 q 379 222 383 197 q 90 226 172 226 q 64 236 71 226 q 63 189 63 215 q 60 113 60 138 q 63 51 60 78 q 375 61 167 60 l 379 125 q 239 117 340 124 q 99 110 150 110 q 82 138 81 125 q 382 165 199 157 l 383 190 m 388 -33 q 376 -25 386 -25 l 376 -26 l 374 -24 q 374 -36 374 -32 l 388 -33 m 375 -67 l 374 -68 q 303 -62 342 -62 q 210 -67 272 -62 q 118 -72 149 -72 q 54 -68 83 -72 q 53 -90 53 -78 l 53 -107 q 54 -125 54 -118 q 83 -126 67 -126 q 133 -124 97 -126 q 185 -124 167 -121 q 231 -115 201 -115 q 277 -118 246 -115 q 324 -121 308 -121 q 376 -83 376 -121 q 375 -67 376 -76 m 357 -217 q 317 -215 329 -215 l 281 -215 q 335 -221 314 -221 q 357 -217 329 -221 m 372 -175 l 371 -174 q 363 -156 374 -160 q 338 -153 353 -151 q 314 -156 315 -156 q 293 -151 301 -156 q 172 -158 253 -158 q 50 -164 90 -157 l 50 -183 q 51 -204 50 -194 l 51 -207 q 60 -243 54 -224 q 100 -247 79 -247 q 171 -233 125 -247 q 239 -217 217 -218 q 69 -222 168 -217 q 51 -207 67 -215 l 51 -204 q 319 -179 136 -179 q 372 -175 364 -179 m 1161 525 q 1129 506 1146 506 q 1114 511 1121 506 q 1113 521 1113 517 q 1131 546 1115 526 q 1138 547 1135 547 q 1161 525 1150 547 m 626 483 q 601 456 618 456 q 579 475 579 456 q 590 499 579 468 q 612 496 601 497 q 626 483 622 494 m 606 308 q 603 292 606 301 q 585 280 596 292 q 567 268 574 268 q 549 285 557 268 q 563 310 549 299 q 592 322 578 322 q 606 308 606 322 z "},"G":{"ha":2010,"x_min":-15,"x_max":2104,"o":"m 2101 354 q 2086 249 2104 321 q 2042 165 2065 165 q 1914 192 2014 165 q 1772 -46 1875 40 q 1531 -185 1706 -101 l 1596 -178 q 1471 -218 1572 -189 q 1356 -275 1393 -240 l 1274 -285 q 847 -232 1097 -285 q 394 -94 593 -178 q 31 179 106 26 q 4 284 15 211 q -15 386 -7 357 l 8 361 q -3 444 -3 399 q 14 572 -3 500 q 335 1029 92 910 q 901 1118 515 1118 q 1244 1094 1128 1118 q 1493 985 1304 1044 q 1790 854 1697 919 q 1993 544 1946 743 q 1707 532 1881 532 q 1350 550 1581 532 q 992 571 1101 569 l 972 543 q 1533 492 1199 525 q 2094 438 1957 449 l 2101 354 m 1336 575 q 1321 582 1326 582 q 1311 579 1315 582 q 1336 575 1324 578 m 1143 635 q 1071 640 1101 640 l 1060 640 l 1067 631 q 1074 632 1072 632 q 1092 635 1081 632 q 1108 638 1103 638 q 1143 635 1122 638 m 1282 615 q 1253 619 1274 615 q 1275 606 1267 610 l 1282 615 m 1249 585 q 1035 608 1149 603 l 1031 607 q 1249 585 1067 601 m 2064 376 l 2063 404 q 1672 447 1869 426 q 1283 472 1438 472 l 1265 467 q 1238 354 1251 429 q 1354 313 1278 343 q 1286 199 1354 242 q 1153 161 1228 161 q 1018 207 1065 161 q 956 315 988 238 q 899 438 919 406 l 951 557 q 1143 689 1011 689 q 1278 653 1207 689 q 1397 578 1314 635 q 1544 575 1446 579 q 1688 571 1642 571 q 1782 576 1719 571 q 1876 581 1844 581 q 1939 576 1910 581 q 1560 949 1857 807 q 1026 1072 1300 1072 q 644 965 810 1072 q 392 660 479 857 q 360 564 360 588 q 363 542 360 553 l 344 529 l 338 485 q 343 422 338 461 q 351 361 350 374 l 385 349 l 367 325 l 353 329 q 442 154 365 274 q 565 26 526 22 q 686 -53 610 -47 q 939 -157 747 -118 q 1222 -189 1094 -189 q 1624 -112 1472 -189 q 1879 197 1808 -19 l 1858 199 l 1864 236 q 1946 217 1890 236 q 2028 200 2001 197 l 2042 201 q 2057 289 2044 219 q 2064 376 2065 340 m 399 1001 q 226 925 253 953 q 510 913 321 925 q 579 976 532 935 q 399 1001 453 972 m 804 1076 l 772 1082 q 733 1086 747 1086 q 469 1024 672 1086 q 435 1013 451 1018 q 497 1015 469 1015 q 621 1001 561 1015 l 621 999 q 804 1076 732 1057 m 1317 299 q 1194 327 1275 304 q 1072 356 1114 350 l 1069 342 q 1246 313 1188 321 q 1313 286 1292 296 l 1317 299 m 1201 378 q 951 413 1117 385 l 951 407 q 953 397 951 401 l 965 397 q 983 389 978 397 q 1199 361 1056 383 l 1201 378 m 1274 268 q 1031 329 1225 279 q 994 338 1019 332 q 968 358 969 343 l 957 363 q 976 325 971 350 q 1125 292 1110 296 q 1274 268 1210 275 m 1274 231 q 1006 285 1217 235 q 1078 225 1054 240 q 1164 197 1121 197 l 1169 197 q 1085 232 1111 213 q 1114 247 1092 247 q 1176 233 1136 247 q 1239 218 1217 218 q 1274 231 1258 218 m 476 883 q 318 888 453 888 q 196 900 238 888 q 129 819 158 872 q 413 803 282 813 q 476 883 449 858 m 1385 -226 l 1378 -217 q 1364 -219 1375 -219 q 1311 -214 1324 -219 q 1310 -218 1310 -217 q 1313 -224 1310 -221 l 1344 -224 q 1347 -222 1346 -224 l 1351 -222 q 1364 -224 1356 -222 q 1376 -226 1372 -226 l 1385 -226 m 1332 -260 l 1332 -246 q 1278 -256 1274 -256 q 1257 -247 1263 -256 l 1250 -257 q 1289 -261 1264 -261 l 1311 -261 q 1332 -260 1325 -260 m 393 765 q 251 778 351 775 q 110 794 158 779 q 81 700 99 767 q 204 689 119 693 q 326 676 285 685 q 342 674 340 674 q 375 711 361 674 q 393 765 390 754 m 1193 -226 l 1193 -212 l 1144 -212 l 1144 -226 l 1193 -226 m 338 638 q 207 656 289 653 q 74 664 107 658 q 50 572 64 635 q 182 576 61 572 q 315 575 263 579 q 338 638 326 596 m 303 538 q 146 543 243 543 l 83 543 q 40 539 58 543 q 38 504 38 521 q 40 475 38 490 q 79 476 58 476 q 189 471 118 476 l 300 463 l 300 472 q 303 538 300 482 m 308 368 q 303 428 308 390 l 75 443 q 35 442 54 443 l 35 400 q 38 369 35 385 q 308 368 128 371 m 851 -165 l 715 -114 q 510 -69 594 -69 q 311 -36 467 -69 q 281 -10 286 -31 l 292 8 q 426 -26 322 -11 q 568 -39 517 -40 l 525 -8 q 351 15 489 0 q 182 54 243 26 l 181 65 l 193 81 q 475 36 369 28 l 493 38 q 371 94 464 85 q 207 106 317 97 q 101 146 118 113 l 117 163 q 264 136 179 143 l 414 124 q 377 174 389 150 q 332 200 365 197 q 275 199 346 199 q 58 224 157 199 q 194 26 88 114 q 410 -86 288 -50 l 410 -78 l 440 -69 q 661 -136 457 -104 q 851 -165 717 -144 m 350 232 q 311 333 333 265 q 236 339 279 339 q 139 336 214 339 q 43 338 78 333 q 42 301 42 314 q 47 264 42 281 q 197 243 104 247 q 350 232 319 238 m 1190 488 q 1218 468 1213 479 q 1219 481 1219 474 q 1190 488 1210 483 m 1215 449 q 1208 447 1213 447 q 1181 456 1206 447 q 1150 465 1156 464 q 1008 490 1103 468 q 1064 500 1040 500 q 1085 500 1075 500 q 969 507 1008 507 l 957 507 q 951 453 957 489 q 1208 418 1007 435 q 1215 449 1213 432 m 1385 747 q 1361 729 1385 729 q 1342 746 1342 729 q 1365 765 1342 765 q 1385 747 1385 765 m 1458 369 q 1453 357 1458 364 q 1442 356 1446 356 q 1422 371 1422 356 q 1438 388 1422 388 q 1458 369 1458 388 m 1406 233 q 1385 215 1406 215 q 1361 231 1361 215 q 1378 247 1361 247 q 1406 233 1406 247 m 760 126 q 732 103 760 111 q 724 118 724 111 q 738 142 724 142 q 751 135 746 142 q 760 126 757 128 m 1021 -164 q 967 -124 993 -150 q 974 -122 971 -122 q 1021 -164 1001 -122 m 788 18 l 782 6 l 776 3 q 757 -3 769 0 q 750 17 750 7 q 765 38 750 38 q 781 29 774 38 q 788 18 783 24 m 664 90 q 647 79 657 79 q 642 81 646 79 l 636 81 q 624 97 624 89 q 642 113 624 113 q 664 90 649 113 z "},"H":{"ha":1304,"x_min":-8,"x_max":1354,"o":"m 1354 421 q 1342 125 1354 335 q 1332 -171 1331 -62 l 1026 -212 q 722 -235 854 -235 q 688 -223 704 -235 q 669 -194 671 -211 q 375 -246 561 -226 q 78 -285 156 -268 l 31 -260 q 14 -142 22 -225 q -6 -25 6 -65 l 3 -18 q -3 272 3 79 q -8 561 -8 464 q 28 917 -8 814 q 343 1049 122 986 q 682 1104 564 1111 l 751 1100 l 757 1043 q 893 1088 800 1060 q 1028 1118 997 1118 q 1181 1100 1086 1118 q 1321 1054 1292 1079 q 1354 421 1354 581 m 922 786 l 922 790 q 924 822 924 813 q 922 847 924 836 q 778 814 885 828 l 786 756 q 914 790 808 757 q 922 786 918 789 m 924 629 l 924 661 q 896 653 913 658 q 829 635 874 647 q 785 601 785 624 q 792 578 785 592 l 794 578 q 832 585 813 578 q 871 601 851 593 q 924 629 888 615 m 921 585 q 824 549 865 558 q 836 547 829 547 q 919 571 860 547 q 921 585 919 582 m 896 524 l 890 536 q 854 525 861 525 q 847 526 850 525 l 847 521 l 868 518 q 849 517 858 517 l 849 513 q 896 524 864 514 m 397 1011 l 393 1025 l 364 1008 q 349 1017 357 1017 q 325 1008 342 1017 q 306 999 308 999 q 214 981 246 983 l 218 968 q 397 1011 292 999 m 1319 329 q 1308 713 1319 475 q 1311 897 1308 718 q 1286 1013 1313 979 q 1153 1065 1254 1053 q 1022 1076 1063 1076 q 961 1063 993 1076 l 961 538 q 785 485 918 485 l 757 490 l 757 572 q 740 643 757 614 l 756 660 q 722 1063 740 793 l 689 1064 q 379 967 579 1068 q 357 599 376 854 q 339 229 339 360 q 351 -217 339 -61 l 415 -221 q 581 -196 483 -225 q 739 -140 588 -194 q 742 213 742 -107 l 750 231 q 914 267 865 267 l 938 257 l 961 -158 l 985 -174 q 1296 -136 1176 -174 l 1296 -108 q 1308 110 1296 -35 q 1319 329 1319 256 m 193 940 q 168 946 179 942 q 86 914 139 938 q 193 940 126 921 m 863 218 q 789 200 838 214 q 803 199 796 199 q 863 218 826 199 m 781 143 q 797 150 788 147 q 822 146 808 146 q 890 164 849 146 q 904 158 899 158 q 908 165 908 158 q 903 196 908 158 q 783 161 846 165 q 781 143 782 153 m 913 93 l 910 99 q 913 121 913 113 q 906 131 913 131 q 859 117 896 131 q 804 103 822 103 q 781 107 789 103 l 781 67 q 794 65 788 65 q 856 81 815 65 q 900 96 897 96 q 913 93 904 96 m 915 -18 q 913 42 913 -6 l 913 57 q 778 29 856 32 q 776 17 778 25 q 774 4 774 8 q 777 -8 774 0 q 781 -19 781 -15 q 779 -31 781 -24 q 778 -42 778 -37 q 779 -47 778 -43 q 911 -12 817 -40 q 915 -18 913 -17 m 921 -71 q 917 -50 921 -60 q 776 -79 871 -64 l 776 -96 q 786 -137 776 -122 l 853 -118 q 918 -93 894 -107 q 921 -71 921 -81 m 926 -182 l 925 -181 q 867 -190 915 -182 q 861 -194 863 -190 q 869 -197 864 -197 l 879 -197 q 908 -192 889 -197 q 926 -182 926 -187 m 929 -139 q 926 -132 929 -136 q 875 -146 907 -133 q 824 -164 831 -162 q 701 -192 783 -169 l 707 -199 q 757 -182 725 -197 q 928 -149 803 -182 q 929 -139 929 -143 m 321 607 q 50 561 207 561 q 36 539 36 561 q 38 488 36 474 q 92 485 68 485 q 203 501 164 485 q 229 522 210 504 q 257 536 244 536 q 286 519 272 536 q 108 450 226 450 q 35 456 75 450 l 35 342 l 43 343 l 51 335 q 304 390 206 340 q 321 607 313 463 m 303 282 q 300 314 303 285 q 300 346 299 331 q 81 300 140 300 q 32 304 54 300 l 32 299 q 30 268 32 289 q 28 238 28 247 q 32 208 28 221 q 183 225 142 218 q 256 239 204 229 q 292 247 286 243 q 303 282 303 256 m 313 75 q 303 218 313 164 q 171 188 253 196 q 35 171 54 175 l 35 126 q 165 135 151 133 q 292 164 242 143 q 306 133 306 154 q 88 94 211 94 l 72 100 q 47 106 56 106 q 31 86 31 106 q 36 44 31 72 q 42 1 42 15 q 40 -19 42 -10 l 65 -19 q 181 -4 118 -19 l 294 24 q 308 6 308 8 l 306 -4 q 38 -57 181 -51 q 49 -149 50 -125 q 311 -82 136 -149 q 311 -4 310 -54 q 313 75 313 50 m 56 -210 q 76 -199 64 -199 q 99 -201 85 -199 q 122 -203 114 -203 q 311 -158 201 -203 q 308 -122 308 -137 q 58 -185 125 -185 q 49 -189 49 -185 q 56 -210 49 -192 m 311 -225 l 311 -219 q 308 -197 311 -206 q 101 -237 189 -237 q 64 -233 76 -237 l 71 -249 q 311 -225 161 -249 m 914 958 l 913 954 q 817 932 825 932 q 765 944 792 932 l 772 853 q 793 851 782 851 q 857 864 819 851 q 919 885 885 874 q 918 1022 918 907 l 918 1043 q 868 1024 899 1042 q 842 1029 856 1029 q 799 1020 826 1029 q 760 1010 771 1011 q 764 951 760 1000 q 829 964 783 956 q 861 972 839 964 q 890 981 883 981 q 914 958 914 981 m 326 711 q 150 683 203 683 q 78 693 111 683 q 93 714 79 714 q 103 711 96 714 q 113 708 110 708 q 213 722 146 708 q 313 735 279 735 l 328 735 l 335 933 q 185 897 318 926 q 44 847 90 876 q 38 747 43 831 q 33 649 33 688 q 36 592 33 618 q 207 613 97 596 q 265 633 225 615 q 325 653 301 651 l 326 711 m 1149 757 q 1124 750 1128 750 q 1106 764 1106 750 q 1110 775 1106 767 q 1114 788 1114 783 q 1149 757 1140 781 m 658 704 q 636 675 650 675 q 615 699 615 675 q 625 721 615 711 q 631 722 628 722 q 646 715 638 722 q 658 704 657 704 m 674 76 q 654 53 674 53 l 644 53 q 629 71 640 60 l 629 74 q 650 94 629 94 q 674 76 674 94 m 626 -22 q 604 -57 626 -35 q 578 -39 578 -57 q 588 -22 578 -31 q 603 -8 601 -8 q 611 -3 606 -3 q 626 -22 626 -3 m 157 269 q 151 265 156 268 l 142 275 q 151 282 147 279 l 157 269 m 301 860 q 296 850 301 856 q 156 800 251 800 l 138 800 q 190 826 169 819 q 240 844 231 840 q 281 879 265 856 q 301 860 301 878 z "},"I":{"ha":689,"x_min":-19,"x_max":744,"o":"m 363 1024 q 346 1017 356 1024 q 331 1010 336 1010 q 333 1007 331 1007 q 344 1009 338 1007 q 356 1011 351 1011 q 361 1010 358 1011 l 363 1024 m 306 985 l 294 993 q 279 985 286 985 l 276 985 l 281 978 q 282 979 281 979 l 286 979 q 289 978 288 978 l 293 978 q 306 985 301 978 m 185 946 l 181 960 q 136 943 172 957 q 90 935 113 935 l 86 935 l 90 922 q 185 946 151 943 m 226 771 q 225 833 226 849 q 57 796 115 796 q 25 815 25 796 q 28 828 25 819 q 211 869 113 832 q 211 922 210 886 q 65 894 131 894 q 35 897 50 894 q 21 789 21 854 q 21 771 21 786 q 22 736 22 751 q 22 682 22 736 l 47 683 q 149 697 90 686 q 222 711 218 711 q 226 771 226 735 m 626 43 q 608 -236 622 1 q 353 -276 536 -267 q 83 -285 326 -278 l 71 -260 l 85 -247 l 103 -257 q 243 -243 142 -257 q 108 -243 199 -244 q 96 -249 103 -249 q 61 -225 76 -249 q -4 160 18 -158 q -19 586 -19 379 q -3 936 -19 746 q 330 1047 74 976 q 663 1118 586 1118 q 736 1097 706 1118 l 744 1042 q 732 961 744 1010 q 713 881 715 896 q 660 440 678 665 q 647 250 656 378 q 626 43 640 176 m 710 1057 q 703 1068 708 1064 q 646 1079 675 1079 q 453 1021 579 1079 q 261 935 363 979 l 257 924 q 289 -115 257 283 l 297 -121 l 294 -150 q 310 -229 294 -167 l 336 -239 q 572 -208 479 -239 q 626 43 611 -115 q 667 736 667 457 q 687 881 667 785 q 707 1025 707 976 q 708 1041 707 1031 q 710 1057 710 1051 m 19 538 q 39 538 28 538 q 221 567 107 538 l 221 681 q 22 643 125 643 l 22 611 q 21 558 22 597 l 19 538 m 225 467 q 222 525 222 479 q 47 501 110 501 q 19 508 29 501 l 19 504 q 25 431 19 463 q 225 467 118 429 m 244 -36 q 239 4 239 -21 q 238 44 239 36 q 46 14 142 15 q 63 -65 56 -37 q 97 -67 81 -67 q 244 -36 169 -67 m 78 -153 q 83 -146 79 -149 q 135 -150 108 -150 q 253 -135 167 -150 q 249 -71 253 -112 q 101 -104 150 -104 q 65 -101 83 -104 q 78 -153 65 -110 m 263 -206 l 256 -169 q 138 -186 171 -186 q 85 -176 99 -186 q 100 -221 97 -217 l 104 -214 q 132 -215 118 -215 q 197 -210 151 -215 q 263 -206 239 -204 m 28 285 q 39 294 32 290 q 65 290 51 290 q 117 299 82 290 q 172 307 153 308 q 218 319 192 319 q 229 319 224 319 q 222 386 222 363 q 226 426 222 408 q 26 392 160 411 q 28 285 28 376 m 231 304 q 208 288 224 293 q 38 260 126 260 q 29 269 32 264 l 29 221 q 43 51 31 118 q 78 47 60 47 q 160 60 107 47 q 239 78 214 74 q 233 158 238 118 q 82 128 183 144 q 36 151 36 136 l 38 164 l 63 164 q 110 169 79 164 q 157 174 142 174 q 236 243 236 174 q 231 304 236 265 m 214 772 q 100 719 188 742 q 46 738 46 725 q 51 751 46 743 q 89 747 69 747 q 193 796 154 747 q 201 797 197 797 q 214 778 214 797 l 214 772 m 401 53 q 378 21 388 21 q 357 43 357 21 q 375 71 357 71 q 401 53 388 71 m 446 -83 q 428 -99 439 -99 q 419 -97 425 -99 q 410 -96 413 -96 q 400 -99 407 -96 q 396 -83 396 -89 q 424 -54 396 -74 q 446 -83 432 -65 m 388 -36 q 361 -67 388 -67 q 344 -53 344 -67 q 353 -32 344 -43 l 360 -32 q 374 -34 364 -32 q 388 -36 383 -36 z "},"J":{"ha":1154,"x_min":-7,"x_max":1208,"o":"m 1208 1096 q 1193 554 1204 1064 q 1099 -18 1185 171 q 675 -285 978 -285 q 301 -257 417 -285 q 47 -65 119 -212 q -7 263 -7 49 q 11 426 -7 375 q 278 467 110 446 q 536 489 475 492 q 554 582 554 529 q 533 771 554 646 q 511 960 511 896 l 518 1014 q 672 1065 583 1054 q 836 1069 707 1069 q 1010 1093 896 1069 q 1179 1118 1124 1117 l 1208 1096 m 779 994 l 774 1036 q 742 1038 758 1038 q 561 1001 657 1038 q 547 960 550 985 q 565 972 549 963 l 581 971 q 672 983 611 971 q 763 994 732 994 q 779 994 771 994 m 789 921 q 785 943 789 936 l 785 958 q 782 974 785 960 q 760 969 775 969 q 674 955 729 969 q 589 940 618 940 q 549 944 568 940 q 546 951 547 949 q 546 940 546 946 q 553 875 546 919 q 569 863 561 874 q 680 881 607 865 q 788 899 753 896 l 789 921 m 797 801 q 792 857 796 831 l 761 857 q 660 842 726 857 q 558 828 593 828 q 563 776 560 808 q 599 789 571 789 q 613 779 611 789 l 621 778 q 797 801 635 778 m 801 703 l 801 713 q 799 764 799 729 q 583 739 714 751 q 568 749 581 740 l 567 750 q 579 663 571 721 q 586 669 582 667 q 613 661 597 661 q 636 664 619 661 q 663 665 653 667 l 667 671 q 801 703 711 683 m 800 663 q 704 642 797 663 q 610 628 642 628 q 582 635 596 628 q 586 571 586 597 l 603 565 q 794 596 690 565 q 800 663 796 618 m 793 558 q 706 542 779 557 q 617 531 650 531 q 586 533 601 531 q 576 503 576 504 q 579 488 576 496 q 593 479 589 485 q 636 478 617 478 q 785 492 699 478 l 793 558 m 1176 619 q 1172 854 1176 688 q 1172 1088 1168 1006 q 815 1031 939 1065 q 838 685 838 799 q 800 379 838 542 q 656 153 747 153 q 544 322 544 153 q 553 442 544 356 l 508 456 q 401 437 474 456 q 292 419 329 418 q 276 279 276 374 q 353 -99 276 19 q 694 -246 449 -246 q 1092 72 969 -246 q 1176 619 1176 293 m 774 451 q 661 442 683 442 q 593 440 613 442 l 589 399 q 597 372 589 376 q 743 397 646 376 q 758 394 751 394 q 774 451 769 394 m 763 358 l 763 363 q 585 339 681 347 q 586 304 585 325 q 599 310 603 310 q 606 308 601 310 q 613 306 611 306 q 628 310 617 306 q 651 315 640 315 q 719 324 663 315 q 763 358 763 329 m 733 294 q 592 274 686 286 q 589 276 590 275 q 593 244 590 261 q 718 274 622 244 q 733 294 733 278 m 699 229 l 689 229 q 649 222 674 229 l 608 211 l 618 211 q 697 226 646 211 l 699 229 m 678 192 q 671 197 678 197 q 660 194 667 197 q 651 190 654 190 q 649 192 650 190 l 644 178 l 668 178 q 678 192 678 188 m 253 410 q 200 419 229 419 q 122 408 174 419 q 44 397 71 397 q 28 296 28 356 q 31 238 28 276 q 33 179 33 199 l 29 176 q 54 179 44 179 q 71 169 71 179 q 240 200 129 178 q 240 243 240 221 q 221 236 231 236 q 206 250 211 236 q 53 226 156 242 q 38 249 38 240 q 74 274 38 260 q 101 271 88 271 q 163 278 122 271 q 223 285 203 285 q 243 314 243 285 q 240 347 243 326 q 144 339 169 339 q 110 333 133 339 q 76 328 88 328 q 39 351 39 328 q 50 369 39 364 q 246 385 133 375 q 253 410 249 393 m 250 108 q 243 163 246 136 q 147 144 204 151 l 38 131 q 43 100 40 104 q 71 90 49 90 q 97 94 88 90 q 124 92 110 92 q 187 100 144 92 q 250 108 229 108 m 479 -229 q 463 -224 465 -224 q 457 -225 460 -224 l 463 -237 q 472 -229 472 -232 l 472 -228 q 479 -229 476 -229 m 439 -208 q 421 -212 432 -212 q 413 -212 418 -212 q 426 -226 419 -226 q 436 -219 432 -226 l 438 -218 l 439 -208 m 260 28 q 254 74 260 40 q 50 57 115 54 l 63 -10 q 90 -3 67 -3 q 108 -6 108 -6 q 260 28 160 -6 m 400 -242 l 400 -228 l 397 -228 l 397 -242 l 400 -242 m 375 -207 q 361 -206 367 -206 q 325 -217 328 -206 q 375 -207 356 -211 m 276 -53 q 264 -12 271 -39 q 94 -42 150 -42 q 68 -35 76 -42 q 87 -73 76 -65 q 126 -81 97 -81 q 203 -67 154 -81 q 276 -53 253 -54 m 367 -175 q 346 -157 354 -165 q 193 -183 294 -165 q 203 -187 199 -187 q 213 -181 207 -187 q 265 -189 236 -189 q 367 -175 290 -189 m 319 -131 q 303 -109 319 -128 q 286 -86 288 -90 l 196 -104 q 106 -112 149 -112 q 171 -153 124 -153 q 242 -144 196 -153 q 310 -133 288 -135 q 319 -131 319 -133 m 893 567 q 869 547 893 554 q 844 535 864 546 q 878 588 867 588 q 893 567 893 588 m 697 -61 q 668 -100 697 -87 q 658 -76 658 -85 q 671 -49 658 -69 l 685 -49 q 697 -61 697 -49 m 560 -108 q 533 -129 560 -125 q 525 -112 525 -121 q 544 -94 525 -94 q 560 -108 560 -94 z "},"K":{"ha":1246,"x_min":-8,"x_max":1325,"o":"m 1325 911 q 978 369 1311 900 q 1078 214 990 326 q 1199 53 1186 75 q 815 -257 1010 -257 q 707 -269 781 -257 q 594 -279 633 -281 l 504 -276 l 496 -233 l 476 -221 l 474 -197 l 482 -193 l 461 -153 q 222 -174 331 -168 q 228 -181 225 -176 q 210 -193 221 -193 q 188 -189 201 -193 l 188 -182 q 181 -176 183 -182 l 181 -176 q 61 -179 115 -179 q 0 -147 14 -179 q -8 -72 -8 -128 q 1 188 -8 15 q 10 449 10 361 l 1 461 q 13 586 13 488 q 25 850 13 775 q 150 1049 53 1019 l 163 1069 q 285 1079 196 1079 q 440 1099 332 1079 q 596 1114 540 1118 q 696 1119 672 1110 l 747 1099 l 744 1071 l 746 1067 q 893 1099 819 1083 q 1043 1117 981 1117 l 1325 911 m 182 -200 q 176 -207 182 -207 q 142 -192 171 -207 l 178 -192 q 182 -200 182 -196 m 1011 1078 q 747 1029 922 1065 l 746 1006 q 747 988 746 999 q 989 1038 947 1039 q 1011 1078 1004 1061 m 963 1001 q 746 953 885 992 q 751 915 746 947 q 838 934 772 917 q 917 960 904 951 l 924 958 q 963 1001 940 958 m 910 921 q 753 883 860 911 l 753 875 q 751 868 751 871 l 751 864 q 769 861 760 861 q 808 869 782 861 q 846 876 833 876 q 882 890 858 890 q 910 921 892 900 m 865 851 l 858 861 q 849 847 853 853 q 865 851 860 850 m 610 1075 l 607 1089 q 560 1082 589 1082 l 503 1082 l 507 1069 q 556 1079 526 1079 q 610 1075 553 1079 m 807 794 l 763 781 l 764 775 l 767 775 q 807 794 782 775 m 507 1053 l 463 1053 q 268 1040 381 1053 q 376 1036 344 1036 q 507 1053 451 1036 m 432 1006 l 431 1019 q 285 1019 369 1015 q 138 1026 154 1026 l 99 999 q 69 957 78 983 q 147 968 90 958 q 226 976 197 976 q 251 975 239 976 l 250 988 q 376 983 368 985 l 381 989 q 392 986 386 986 q 413 995 400 986 q 432 1006 425 1004 m 1275 919 q 1164 1000 1231 957 l 1049 1075 q 900 860 1019 1019 q 746 685 769 685 l 731 689 l 731 706 q 717 793 731 761 q 721 829 721 810 q 715 889 721 851 q 708 947 710 933 l 694 967 l 713 1007 l 706 1072 q 533 1024 650 1068 q 390 938 401 974 l 401 917 l 389 906 q 360 386 371 644 l 365 379 q 347 133 350 264 q 344 -114 347 133 l 353 -125 q 503 -115 356 -124 q 651 -90 594 -110 l 676 113 l 718 96 q 868 -228 769 -11 q 1029 -110 929 -214 q 1156 53 1117 -18 q 1050 214 1129 119 q 935 368 961 319 q 1124 647 949 392 q 1275 919 1261 849 m 357 954 l 356 960 q 218 951 329 956 q 82 932 131 947 l 81 933 q 61 814 76 922 q 110 813 85 813 q 346 828 193 813 q 349 865 349 846 l 349 901 q 221 892 304 894 q 93 885 133 890 q 82 904 82 893 q 85 913 83 907 q 218 925 132 922 q 353 933 313 928 q 357 954 357 950 m 347 761 q 340 793 347 779 l 121 781 l 118 786 q 56 779 97 785 q 51 731 51 722 q 53 717 51 725 q 269 725 182 725 q 340 724 310 725 q 347 761 347 743 m 340 682 l 340 689 q 207 696 272 696 q 54 688 144 696 q 49 639 54 676 q 138 638 60 638 l 224 638 q 336 633 281 638 l 336 639 l 340 682 m 338 585 q 335 599 338 592 q 222 607 293 608 q 108 610 139 606 q 92 606 101 606 q 71 608 85 606 q 50 610 57 610 q 46 575 44 578 l 46 560 q 271 568 99 568 l 324 568 q 338 585 338 568 m 724 21 q 710 28 724 28 l 707 28 q 699 14 704 28 l 700 13 q 724 21 706 13 m 747 -24 q 742 -11 746 -17 q 694 -25 728 -12 q 693 -32 693 -29 q 697 -36 693 -36 q 720 -30 703 -36 q 746 -24 738 -24 l 747 -24 m 331 514 q 329 533 331 522 l 189 538 q 46 525 111 538 q 43 503 46 518 q 40 481 40 488 q 185 483 113 483 q 329 481 257 483 l 331 514 m 772 -74 q 760 -57 771 -57 q 733 -62 750 -57 q 707 -68 717 -68 l 703 -68 q 697 -67 699 -67 q 686 -87 686 -67 l 686 -96 q 772 -74 715 -92 m 832 -225 q 831 -221 831 -224 l 826 -221 q 751 -231 794 -221 q 832 -225 779 -228 m 328 418 l 328 446 q 194 451 267 451 q 46 449 146 451 q 38 350 38 411 l 38 313 l 44 324 l 222 332 q 321 325 276 332 q 322 340 321 331 q 324 356 324 350 l 324 361 q 203 371 271 371 q 65 363 142 371 q 51 389 51 376 q 194 403 114 403 q 325 393 261 403 q 328 418 328 404 m 799 -139 l 786 -106 q 665 -136 753 -110 q 546 -161 586 -161 q 525 -158 533 -161 l 542 -144 q 483 -151 513 -147 q 497 -168 490 -158 q 529 -194 514 -194 q 665 -175 588 -194 q 799 -139 732 -157 m 819 -190 l 810 -168 q 526 -222 715 -189 l 531 -237 q 819 -190 626 -221 m 319 289 q 190 301 269 301 q 44 296 213 301 l 38 308 q 36 250 38 267 l 96 251 q 308 235 125 251 l 315 229 q 319 289 317 256 m 314 206 q 308 200 311 203 q 35 226 151 221 q 31 150 32 186 q 169 168 85 165 q 314 174 292 171 q 314 206 314 188 m 313 28 q 310 43 313 36 q 167 46 201 46 q 26 40 89 46 l 26 17 q 28 -7 26 3 q 214 3 175 3 q 308 -3 265 3 l 313 28 m 307 -74 l 306 -39 q 167 -32 243 -32 q 28 -39 90 -32 q 31 -92 28 -56 q 251 -71 160 -71 q 307 -74 282 -71 m 307 -96 q 292 -107 303 -104 q 251 -106 289 -106 q 31 -121 183 -106 l 29 -132 q 38 -146 29 -146 q 171 -132 78 -146 q 304 -122 256 -119 q 307 -96 307 -106 m 696 725 q 679 708 696 708 q 665 715 671 708 q 658 726 658 721 q 678 742 658 742 q 696 725 696 742 m 660 617 q 640 606 650 606 q 621 621 621 606 q 631 633 621 624 l 640 640 q 660 617 658 632 m 250 988 l 246 988 l 250 989 l 250 988 m 246 988 q 233 985 239 985 q 229 986 231 985 l 232 988 l 246 988 m 849 101 q 826 75 849 75 q 807 86 819 75 q 836 118 814 118 q 849 101 849 118 m 929 -39 q 910 -54 929 -54 q 892 -35 892 -54 q 910 -19 892 -19 q 929 -39 929 -19 m 857 -101 q 840 -107 850 -107 q 822 -93 822 -107 q 839 -76 822 -76 q 857 -101 853 -76 m 503 -21 q 486 -44 503 -28 q 463 -25 463 -31 q 483 -4 463 -4 q 503 -21 503 -4 z "},"L":{"ha":1003,"x_min":-10,"x_max":1075,"o":"m 547 1021 l 543 1033 q 450 990 485 1004 q 547 1021 514 1010 m 404 953 q 400 957 401 954 q 385 958 390 958 l 382 958 q 388 946 388 954 q 404 953 397 946 m 357 926 l 356 940 q 244 922 282 928 l 247 910 q 357 926 303 925 m 1032 -82 q 979 83 1013 -11 l 921 247 q 847 238 901 239 q 767 206 818 238 q 696 174 717 174 l 700 171 l 665 178 q 682 593 682 372 q 676 824 682 646 q 672 1056 672 957 q 524 979 654 1046 q 382 889 435 933 l 389 878 q 319 239 329 663 l 326 242 l 349 232 l 315 207 q 310 78 314 193 l 308 35 l 331 14 l 308 0 q 310 -104 308 -35 q 328 -204 313 -174 q 690 -160 422 -204 q 1032 -82 972 -112 m 239 918 q 135 894 193 903 l 136 882 q 179 897 150 883 q 222 910 208 910 q 238 906 231 910 l 239 918 m 4 185 l -3 185 l 4 188 q 19 401 11 286 q 88 888 54 849 q 371 999 104 907 q 667 1088 638 1092 l 697 1136 l 693 1111 l 718 1079 l 701 1063 q 714 701 714 890 q 696 208 714 475 q 819 251 731 213 q 944 288 903 288 l 961 282 l 957 251 q 972 203 957 229 q 999 158 996 161 q 1043 18 1025 96 q 1075 -126 1053 -31 l 1046 -136 l 1042 -108 q 692 -187 1006 -139 q 300 -239 440 -226 l 299 -242 l 274 -246 l 272 -247 l 251 -244 l 256 -240 q -4 -287 90 -249 l -7 -144 q 4 185 -10 -36 m 88 -174 q 165 -164 119 -168 l 164 -164 q 88 -174 115 -165 m 25 -169 l 25 -185 q 42 -181 32 -183 q 25 -169 35 -175 m 39 189 q 38 97 38 144 l 38 89 q 263 114 86 99 l 275 93 l 275 90 l 269 82 q 142 69 251 82 q 33 61 42 58 q 28 -17 29 22 q 275 32 189 24 q 275 90 275 63 l 275 93 q 283 208 276 150 q 140 199 231 208 q 39 189 81 192 m 283 283 l 240 285 q 43 267 163 288 q 39 200 40 235 q 285 242 146 235 l 283 283 m 286 376 q 46 347 200 364 q 43 294 47 324 q 279 315 107 310 l 283 310 q 286 376 283 342 m 226 -219 q 210 -208 226 -214 q 207 -215 210 -215 q 204 -214 206 -215 l 207 -217 q 203 -222 203 -218 q 206 -228 203 -225 l 217 -228 q 226 -219 226 -228 m 276 -187 l 243 -187 q 25 -211 163 -187 l 25 -237 q 74 -228 46 -236 q 85 -219 82 -219 q 101 -226 82 -219 q 175 -203 110 -217 q 260 -189 233 -190 l 264 -193 q 276 -187 268 -187 m 144 818 q 133 813 139 813 q 122 822 122 813 q 122 825 122 824 l 122 825 l 122 825 q 135 832 124 832 q 139 832 138 832 q 236 860 176 846 q 350 875 318 879 q 357 904 353 885 q 110 850 199 879 q 83 753 106 842 q 96 760 94 757 l 94 760 q 96 760 96 760 q 104 754 99 757 l 106 749 q 226 761 153 750 q 346 778 328 776 q 347 794 347 786 l 347 842 q 226 831 272 839 q 167 815 181 815 q 144 818 157 815 m 72 625 l 185 642 q 306 653 258 653 q 331 650 322 653 q 343 743 340 713 q 214 732 301 744 q 82 722 126 719 q 72 625 79 685 m 326 624 q 279 626 303 626 q 171 617 231 626 q 69 600 106 606 l 63 542 q 251 564 206 564 q 304 535 300 564 l 285 522 l 250 533 q 54 489 50 533 l 57 463 q 151 476 86 464 q 246 489 213 489 q 286 486 268 489 l 288 468 l 282 458 l 261 458 q 158 450 215 458 l 56 435 q 49 375 53 415 q 289 408 218 408 q 326 624 292 425 m 257 -99 q 239 -117 258 -117 q 25 -132 146 -117 l 25 -165 q 146 -136 57 -143 q 281 -128 151 -136 q 276 -1 281 -86 l 268 -1 q 149 -18 219 -1 q 31 -44 43 -43 l 26 -42 q 25 -118 25 -78 q 113 -103 40 -115 q 203 -93 167 -93 q 257 -99 231 -93 m 636 810 q 625 794 636 807 q 621 786 625 792 q 601 813 601 806 q 615 826 601 826 q 636 810 636 826 m 583 -112 q 575 -128 583 -118 l 569 -128 q 550 -107 550 -128 q 564 -94 550 -94 q 583 -112 583 -94 m 472 -131 q 440 -126 447 -126 q 432 -137 439 -126 q 417 -149 425 -149 q 400 -128 400 -149 q 410 -116 400 -121 q 419 -107 419 -111 q 429 -106 425 -106 q 472 -131 433 -106 z "},"M":{"ha":1646,"x_min":-7,"x_max":1715,"o":"m 1715 -97 q 1331 -253 1574 -210 q 911 -282 1167 -282 q 846 -253 860 -282 q 833 -178 839 -239 l 821 -162 l 817 -179 q 822 -205 817 -187 q 826 -232 826 -222 q 715 -275 826 -258 q 579 -285 625 -289 q 289 -276 486 -276 q 1 -264 101 -276 q -4 -221 -4 -244 q 8 -108 -3 -206 l -7 -89 q 28 -15 21 -65 q 36 68 29 13 q 290 1026 115 568 l 314 1008 q 724 1064 442 1064 q 806 1031 769 1064 q 1058 1097 846 1079 q 1344 1118 1154 1104 q 1568 549 1457 1013 q 1715 -97 1617 333 m 1283 1074 l 1265 1074 q 1065 1058 1188 1074 q 865 1036 910 1039 q 835 1004 851 1026 l 839 997 q 1053 1026 906 997 q 1267 1050 1190 1054 l 1283 1074 m 1244 1014 l 1235 1014 q 1051 993 1154 1014 q 869 963 913 965 q 928 885 871 960 q 983 879 953 879 q 1056 885 1008 879 q 1129 892 1104 892 q 1172 888 1153 892 q 1203 944 1183 906 q 956 907 1019 907 q 913 917 932 907 l 911 925 q 919 942 911 932 q 950 940 935 940 q 1078 960 993 940 q 1207 979 1164 979 q 1244 1014 1224 979 m 1157 853 q 947 843 1088 851 q 971 794 958 825 q 976 803 974 799 q 1057 806 1003 803 q 1139 810 1111 810 q 1157 853 1143 813 m 1124 774 l 1101 774 q 1042 771 1078 774 q 982 767 994 767 q 1003 714 992 743 q 1097 728 1085 728 l 1104 725 q 1124 774 1110 740 m 1085 689 l 1071 689 q 1058 690 1063 690 l 1050 690 q 1015 681 1015 690 q 1024 667 1015 676 q 1060 674 1040 669 q 1085 689 1081 679 m 1674 -60 q 1539 543 1679 64 q 1322 1071 1393 1039 q 1188 817 1281 985 q 1056 563 1094 649 q 1022 588 1042 567 q 992 614 1003 608 l 1004 629 q 783 1004 893 896 l 717 1019 q 614 719 686 956 q 546 440 536 465 q 451 119 514 385 q 388 -217 388 -146 l 397 -237 q 433 -235 414 -235 q 507 -242 458 -235 q 581 -249 556 -249 q 786 -222 676 -249 q 783 -119 781 -185 q 785 -17 786 -46 l 782 -17 l 768 0 l 782 8 l 781 110 q 799 206 782 181 q 933 47 842 164 q 1074 -103 1014 -56 l 1083 -87 l 1082 -86 l 1076 -67 q 1135 106 1108 -56 q 1193 261 1160 261 l 1208 256 q 1260 -3 1221 168 q 1328 -231 1307 -212 q 1672 -90 1436 -199 l 1674 -60 m 1189 192 q 1186 193 1188 193 q 1182 190 1183 193 q 1185 183 1185 188 l 1185 179 l 1183 178 l 1185 178 q 1185 175 1183 176 q 1188 181 1186 179 q 1189 192 1188 190 m 1190 133 q 1185 144 1188 144 q 1175 128 1175 144 q 1190 133 1179 128 m 1201 79 q 1197 99 1199 97 l 1193 99 q 1169 90 1194 99 q 1165 78 1165 82 q 1171 75 1165 75 q 1201 79 1189 75 m 1157 21 q 1139 15 1144 19 l 1149 4 q 1157 21 1154 10 m 1242 -42 q 1226 -10 1242 -32 q 1197 -12 1215 -12 l 1158 -12 q 1135 -43 1142 -12 q 1150 -42 1142 -42 q 1189 -46 1163 -42 q 1228 -50 1215 -50 q 1242 -42 1242 -50 m 676 1024 l 671 1021 q 607 1025 640 1025 q 322 978 433 1025 q 153 457 261 951 l 154 456 q 242 449 194 449 q 374 456 257 449 q 504 454 450 460 q 533 554 515 488 q 421 560 475 558 q 310 558 381 560 q 197 557 229 557 q 181 574 178 557 l 194 593 l 544 593 l 564 671 q 422 672 553 672 l 363 672 q 229 668 294 672 q 221 682 221 674 l 229 694 l 433 699 q 565 693 508 699 l 565 674 q 600 807 588 761 q 544 813 576 813 q 504 811 531 813 q 464 810 478 810 q 393 821 436 810 q 538 839 476 839 q 600 836 565 839 q 604 822 603 826 q 676 1024 635 936 m 1257 -112 l 1257 -108 q 1219 -76 1257 -76 q 1188 -79 1208 -76 q 1157 -82 1168 -82 q 1132 -78 1142 -82 q 1113 -111 1126 -83 q 1140 -110 1125 -110 q 1188 -111 1156 -110 q 1235 -112 1219 -112 l 1257 -112 m 824 144 l 821 149 l 810 139 l 814 135 l 824 144 m 840 106 q 829 111 835 111 q 821 108 825 111 l 821 103 q 822 100 821 101 q 840 106 826 101 m 881 61 l 874 68 l 819 68 l 819 61 l 881 61 m 1276 -175 q 1265 -153 1272 -165 q 1196 -144 1240 -144 q 1144 -144 1144 -144 q 1115 -146 1135 -144 q 1093 -146 1100 -146 q 1067 -162 1079 -158 q 1042 -162 1056 -164 q 1011 -160 1017 -160 q 937 -163 986 -160 q 863 -167 888 -167 l 865 -183 l 932 -183 q 1038 -185 967 -183 q 1143 -187 1108 -187 q 1197 -185 1161 -187 q 1251 -183 1233 -183 q 1276 -175 1276 -183 m 919 7 q 900 28 906 28 q 891 26 897 28 q 882 24 885 24 q 851 28 872 24 q 821 33 831 33 q 814 28 814 33 q 819 13 814 22 l 833 13 q 915 7 886 7 l 919 7 m 1286 -232 l 1281 -214 q 1149 -219 1213 -218 q 1017 -218 1100 -219 q 885 -217 922 -217 l 875 -221 l 883 -246 l 1053 -249 q 1104 -242 1069 -249 q 1156 -236 1139 -236 l 1215 -236 q 1286 -232 1263 -236 m 1017 -124 q 931 -121 1000 -121 q 907 -117 922 -121 q 883 -114 892 -114 q 860 -124 872 -114 q 838 -112 856 -117 q 821 -101 821 -107 q 826 -87 821 -96 q 889 -85 858 -85 q 1000 -90 907 -85 q 922 -78 969 -76 q 818 -62 843 -79 q 815 -100 815 -93 q 817 -125 815 -106 q 875 -128 843 -128 q 946 -126 899 -128 q 1017 -124 993 -124 m 492 417 q 394 424 446 424 q 269 418 368 424 q 144 417 193 414 q 123 306 135 382 q 100 193 111 231 q 65 17 69 94 q 76 14 68 17 q 89 11 85 11 q 239 26 136 11 l 261 29 q 390 44 342 42 q 433 188 406 92 q 204 204 371 204 q 161 208 182 204 l 160 218 q 174 238 160 224 q 308 236 218 238 q 442 224 378 235 q 460 274 444 238 q 472 325 472 306 q 333 329 408 331 l 193 325 l 175 347 l 186 361 q 318 361 203 365 l 464 357 q 486 381 479 357 q 492 417 489 399 m 386 8 q 57 -24 276 -3 l 57 -31 q 49 -72 57 -43 l 54 -72 q 78 -74 63 -71 q 99 -76 93 -76 q 238 -58 139 -76 q 375 -47 325 -43 q 376 -25 376 -43 q 381 -9 376 -21 q 386 8 386 3 m 369 -78 q 43 -110 261 -90 q 31 -212 31 -175 l 31 -233 q 51 -232 38 -233 l 72 -232 q 104 -239 90 -232 l 208 -235 q 135 -233 204 -235 q 63 -221 88 -233 l 61 -212 q 71 -193 61 -200 q 350 -208 164 -200 q 358 -169 354 -196 l 42 -185 l 42 -174 q 67 -153 42 -153 q 361 -132 104 -153 q 369 -78 363 -114 m 1451 531 q 1443 519 1451 522 q 1429 515 1431 517 q 1415 532 1415 521 q 1433 556 1415 544 q 1443 546 1435 553 q 1451 531 1451 539 m 1033 304 l 1021 286 q 1014 285 1017 285 q 994 294 1010 286 q 1018 321 994 321 q 1033 304 1033 321 m 1044 61 q 1029 43 1044 43 l 1025 43 q 1021 44 1022 44 q 1010 69 1010 53 q 1029 79 1021 79 q 1044 61 1044 79 m 681 -85 q 644 -111 681 -103 q 629 -93 629 -101 q 651 -79 629 -87 q 654 -72 654 -78 q 681 -85 663 -72 m 547 -158 q 535 -160 540 -160 q 508 -139 508 -160 q 525 -122 508 -135 l 528 -122 q 546 -136 546 -122 q 544 -142 546 -137 q 543 -149 543 -147 q 547 -158 543 -151 m 401 119 q 349 96 394 96 q 129 71 189 71 l 118 71 q 110 83 110 76 q 115 101 110 90 q 161 99 138 99 q 276 111 206 99 q 390 129 369 128 l 401 119 z "},"N":{"ha":1258,"x_min":-12,"x_max":1297,"o":"m 1297 474 q 1268 -179 1297 122 q 1256 -251 1264 -215 q 1164 -285 1201 -285 q 976 -269 1107 -285 q 788 -258 854 -256 l 824 -240 q 663 -99 749 -217 l 515 -126 q 369 -140 436 -140 q 328 -139 349 -140 l 319 -149 q 172 -126 264 -144 q 26 -101 65 -107 q 15 -56 18 -90 q -1 -10 11 -21 l 8 3 q -7 203 -7 97 q 26 632 -7 292 l -12 668 l 25 654 q 69 869 47 761 q 164 1056 107 1011 q 418 1118 243 1118 l 454 1100 l 457 1100 l 476 1097 q 565 985 506 1054 q 656 875 631 908 q 658 899 658 888 q 642 950 658 926 q 656 1007 654 965 q 949 1031 767 1008 q 1224 1081 1150 1056 l 1267 1050 q 1297 474 1297 742 m 925 993 l 925 997 q 915 996 921 996 q 897 1000 908 996 q 879 1004 886 1004 q 849 999 869 1004 q 818 994 828 994 l 779 994 q 744 988 767 994 q 710 982 721 982 q 694 986 701 982 q 678 975 681 983 q 925 993 761 981 m 922 913 l 922 956 q 861 958 893 958 q 681 942 776 958 q 686 906 681 931 q 853 914 796 914 q 922 913 889 914 m 750 744 q 804 753 775 753 q 911 735 876 753 q 922 731 914 732 l 926 735 l 926 738 q 924 763 926 744 q 744 779 850 779 q 731 774 731 779 q 750 744 731 768 m 925 696 l 925 703 q 768 724 886 717 l 781 708 l 800 708 q 857 703 819 708 q 914 699 894 699 q 925 696 921 699 m 925 624 q 899 621 913 621 q 867 625 888 621 q 835 629 846 629 l 839 622 q 925 610 868 617 l 925 624 m 925 665 q 914 663 921 663 q 860 671 896 663 q 807 679 825 679 l 796 679 q 853 653 810 656 q 921 650 854 653 q 925 646 924 649 l 925 665 m 925 572 l 925 579 q 863 593 904 583 q 850 596 858 594 l 849 594 l 849 593 q 863 574 849 589 q 875 578 868 578 q 925 572 903 578 m 928 529 q 915 546 928 546 q 903 544 911 546 q 892 543 896 543 q 881 544 886 543 q 892 529 885 540 q 908 527 897 529 q 924 525 918 525 q 928 529 928 525 m 926 454 q 917 482 921 472 q 922 492 919 485 q 911 496 918 494 q 917 482 914 490 q 913 471 913 476 q 918 458 913 464 l 918 453 q 922 450 921 450 q 926 454 926 450 m 694 153 l 686 161 l 685 160 q 676 161 682 160 l 657 161 l 664 150 q 694 153 682 154 m 742 97 q 722 101 733 100 q 735 85 726 94 l 742 97 m 739 67 q 710 71 726 71 l 672 71 q 675 63 672 68 q 739 67 694 68 m 803 -6 q 769 32 789 1 q 737 35 758 32 q 704 38 715 38 q 681 36 692 38 q 679 28 679 31 q 713 3 679 3 q 735 4 721 3 q 758 6 750 6 q 786 0 769 6 l 801 -6 l 803 -6 m 835 -47 q 786 -29 821 -33 l 733 -24 q 726 -25 729 -25 q 713 -22 721 -25 q 704 -18 706 -18 q 696 -24 701 -18 q 704 -46 703 -33 q 835 -47 810 -46 m 907 -114 q 814 -75 879 -79 q 708 -69 779 -74 l 708 -72 q 693 -85 693 -78 l 714 -112 q 907 -114 779 -111 m 782 -185 l 782 -181 q 857 -174 817 -174 q 913 -176 872 -174 q 967 -179 953 -179 l 938 -150 q 861 -144 913 -150 q 783 -137 810 -137 q 736 -142 758 -137 q 782 -185 761 -168 m 1035 -237 q 931 -204 997 -206 q 817 -204 931 -204 q 810 -203 814 -203 q 1028 -237 881 -237 l 1035 -237 m 283 140 q 192 147 239 147 q 133 146 172 147 q 75 144 94 144 l 31 144 l 21 153 l 21 150 q 25 119 21 156 q 153 106 68 104 q 282 96 243 107 q 283 140 282 132 m 289 42 q 283 69 289 53 q 159 77 244 76 q 31 88 74 78 q 35 47 35 63 q 96 42 54 42 q 157 38 138 43 q 176 40 165 40 q 223 33 192 40 q 269 26 254 26 q 289 42 289 26 m 282 -108 q 172 -90 247 -100 q 267 -112 219 -100 l 282 -108 m 86 -76 q 107 -83 96 -81 q 172 -90 139 -87 q 86 -76 122 -82 m 294 -22 l 285 -21 l 282 -4 q 38 18 200 3 l 38 3 q 285 -21 49 3 q 283 -50 285 -37 l 285 -50 q 294 -22 294 -33 m 693 842 q 822 854 768 854 q 926 840 881 854 l 926 847 q 924 881 926 863 q 849 885 890 885 q 769 882 822 885 q 689 879 715 879 q 693 842 689 872 m 925 818 q 813 831 888 829 q 693 832 753 831 q 713 796 697 806 q 821 803 789 803 q 924 792 878 803 l 925 818 m 313 731 q 68 751 221 736 l 68 754 q 158 760 117 760 q 314 739 240 760 q 329 856 321 807 q 250 857 294 860 l 171 851 q 113 860 144 851 q 221 885 156 881 q 332 888 242 886 q 349 1060 347 979 l 363 1078 q 279 1051 358 1078 q 207 1032 256 1046 q 119 942 151 1015 q 221 978 171 978 q 300 956 261 978 q 117 935 190 956 q 68 754 86 861 l 68 751 q 57 656 60 704 q 178 651 161 653 q 292 624 250 646 q 200 619 250 619 q 56 626 135 619 q 49 563 49 571 l 49 556 q 125 554 79 551 q 200 557 176 557 l 251 556 l 264 543 l 258 528 q 140 524 192 524 q 43 529 82 524 q 22 319 35 460 q 21 244 21 283 l 21 174 q 151 176 86 176 q 285 174 218 176 l 281 218 q 179 226 236 226 q 64 219 126 226 l 47 238 q 192 258 131 258 q 282 247 236 258 q 283 319 281 297 q 53 338 206 333 q 37 349 44 343 q 28 364 29 354 q 99 367 61 367 q 285 353 157 367 q 286 436 285 381 q 75 444 215 438 l 67 456 l 74 471 l 292 471 q 313 731 301 624 m 349 728 l 332 729 q 314 254 314 532 l 314 26 q 325 17 325 25 q 314 -10 325 4 q 315 -62 314 -26 q 335 -92 317 -99 l 344 -112 l 351 -115 q 671 -60 529 -115 q 643 71 660 -17 l 625 89 l 638 97 l 633 126 l 621 139 l 619 151 q 634 194 619 164 q 658 231 649 225 q 790 61 693 164 l 806 61 l 818 38 l 811 32 q 883 -60 865 -39 q 975 -124 938 -119 l 972 -140 q 1057 -217 1032 -199 q 1160 -254 1110 -254 q 1199 -242 1174 -254 q 1239 -229 1225 -229 q 1274 528 1274 139 q 1263 797 1274 619 q 1231 1043 1249 1011 l 1094 1035 q 960 1018 1013 1031 q 954 849 954 954 q 956 717 954 804 q 958 585 958 629 q 951 401 958 471 l 940 390 l 911 406 q 693 768 842 579 l 686 768 l 672 772 l 676 790 q 558 954 588 918 q 426 1086 464 1075 l 389 1051 q 332 733 351 933 q 349 728 340 731 m 592 643 q 565 631 574 631 q 549 646 554 631 q 571 661 554 661 q 592 643 585 661 m 432 735 q 419 725 432 725 q 400 731 410 725 l 400 738 q 411 756 400 749 l 414 757 q 432 735 432 757 m 1136 -37 q 1132 -49 1136 -44 q 1114 -60 1118 -60 q 1101 -53 1107 -60 q 1093 -44 1096 -46 l 1093 -42 q 1111 -22 1093 -22 q 1136 -31 1125 -22 l 1136 -37 m 1125 -140 q 1108 -167 1125 -146 q 1081 -140 1097 -160 q 1104 -128 1085 -128 q 1124 -132 1113 -128 q 1125 -140 1125 -136 m 440 144 q 428 135 431 135 q 397 183 421 135 q 440 144 410 168 z "},"O":{"ha":1572,"x_min":-7,"x_max":1646,"o":"m 1646 497 q 1535 51 1646 208 q 1153 -201 1425 -106 q 1010 -226 1103 -219 q 865 -246 907 -235 q 832 -264 858 -264 q 810 -262 825 -264 q 788 -260 794 -260 q 640 -272 738 -260 q 492 -285 542 -285 q 213 -219 304 -285 q 39 10 136 -165 l 35 10 l 38 33 q 15 151 38 69 q -7 274 -7 233 q 946 1118 -7 1118 q 1417 935 1199 1118 q 1646 497 1646 743 m 988 1086 l 988 1100 l 953 1100 l 953 1086 l 988 1086 m 890 1079 l 890 1093 q 821 1083 840 1088 l 826 1081 l 822 1082 l 822 1079 l 828 1079 q 840 1082 836 1079 q 867 1079 850 1079 l 890 1079 m 753 1058 q 663 1046 717 1057 q 688 1044 671 1046 q 713 1042 704 1042 q 753 1058 719 1042 m 675 1011 q 663 1011 669 1011 q 446 985 543 1011 q 574 994 493 988 q 675 1011 656 1001 m 586 963 q 577 964 583 963 q 568 965 571 965 q 513 957 582 964 q 394 946 472 954 q 281 917 329 939 q 547 928 497 931 q 586 963 571 951 m 1607 481 q 1408 897 1607 722 q 972 1065 1217 1065 q 596 926 789 1065 l 588 900 l 522 856 l 528 853 l 511 828 l 497 825 q 350 635 447 763 q 274 415 267 519 l 276 374 l 296 361 l 276 336 l 300 314 l 272 293 l 269 251 l 271 194 q 306 113 278 185 q 353 42 326 61 l 339 32 q 518 -165 408 -111 q 783 -212 611 -212 q 1607 481 1607 -212 m 515 893 l 453 893 q 239 878 336 893 l 235 885 q 193 843 196 857 q 197 842 194 842 q 269 851 222 842 q 342 861 317 861 q 390 858 358 861 q 438 856 421 856 q 515 893 492 856 m 446 828 l 417 828 q 324 824 386 828 q 232 819 263 819 q 215 816 226 819 q 199 813 204 813 q 179 818 188 813 q 151 778 169 813 q 261 783 210 783 l 322 783 q 367 778 338 783 q 413 772 397 772 q 432 796 424 772 q 446 828 439 811 m 389 743 q 263 750 346 753 q 135 754 174 747 q 101 675 103 715 q 81 664 93 665 q 57 575 75 656 q 165 581 97 581 q 276 578 214 581 q 319 646 292 601 q 78 618 239 636 l 76 629 q 86 647 76 642 q 212 672 111 658 q 343 682 313 685 q 389 743 358 703 m 43 457 l 36 403 q 138 414 72 413 q 240 421 211 415 l 240 426 q 235 463 238 438 q 156 468 203 468 l 101 468 q 72 463 92 468 q 43 457 53 457 m 257 543 l 257 547 q 158 550 188 550 q 54 543 101 550 q 46 475 51 515 q 144 499 85 496 q 249 499 197 499 q 257 543 257 525 m 238 383 l 238 388 l 197 388 q 35 365 101 388 q 26 315 26 319 q 221 329 132 335 q 236 356 222 343 q 238 367 236 358 q 238 383 238 376 m 308 47 q 264 151 268 139 q 243 261 243 210 l 243 285 l 238 286 l 236 286 l 238 308 q 158 311 192 311 q 14 292 75 311 q 11 263 11 267 q 21 228 11 246 q 38 231 29 229 q 10 222 22 228 q 28 151 24 157 q 121 160 71 160 q 185 157 139 160 q 122 154 158 154 q 28 146 58 154 q 57 28 44 67 q 163 39 90 28 q 268 49 231 50 l 308 47 m 242 -203 q 393 -169 304 -169 q 421 -173 403 -169 q 449 -176 439 -176 l 463 -175 q 401 -132 417 -158 q 243 -121 289 -121 q 175 -125 207 -121 l 172 -133 q 242 -203 211 -189 m 682 -243 q 597 -236 613 -239 q 521 -201 551 -228 l 449 -201 q 265 -210 378 -201 q 311 -215 285 -215 q 370 -212 331 -215 q 429 -208 410 -208 q 500 -232 499 -208 l 488 -247 q 449 -240 472 -249 q 414 -240 438 -243 q 379 -237 390 -237 l 358 -240 q 514 -253 428 -253 q 682 -243 588 -253 m 326 -24 q 299 31 326 -17 q 79 11 225 22 q 97 -32 86 -18 q 229 -15 161 -15 q 326 -24 276 -15 m 368 -90 q 346 -62 361 -81 q 210 -44 269 -44 q 119 -57 160 -44 q 150 -101 124 -85 q 244 -90 189 -90 l 368 -90 m 1417 118 q 1400 104 1417 104 q 1396 103 1399 104 q 1392 101 1393 101 q 1378 118 1378 101 q 1386 139 1378 129 q 1415 124 1408 135 q 1417 118 1417 119 m 1042 515 q 994 438 1042 476 q 914 382 954 410 q 850 357 897 378 q 775 340 814 340 q 710 382 729 340 l 713 392 l 703 399 q 661 390 697 394 q 674 415 661 410 q 699 428 696 425 q 788 554 696 499 q 943 601 867 601 q 1042 515 1042 601 m 994 551 q 967 561 983 561 q 890 538 936 561 q 790 504 872 528 q 735 447 739 489 l 749 443 q 994 551 833 482 m 997 510 q 757 417 917 481 l 756 410 q 803 418 790 422 q 901 457 826 432 q 996 503 964 478 l 997 510 m 949 436 l 942 447 q 876 418 921 431 q 808 394 825 403 q 949 436 867 400 m 1250 58 q 1222 28 1250 28 q 1204 29 1217 28 q 1186 31 1192 31 q 1240 65 1194 65 l 1250 65 l 1250 58 m 1285 -40 q 1265 -60 1285 -60 l 1256 -60 q 1247 -47 1247 -54 q 1251 -37 1247 -43 q 1254 -28 1254 -31 q 1285 -40 1275 -28 m 651 496 q 638 474 651 479 q 624 489 626 476 q 618 504 621 501 q 636 521 626 521 q 651 496 651 521 m 667 354 q 639 342 657 342 q 629 372 629 349 q 643 381 636 381 q 667 354 661 381 m 621 371 q 603 363 613 363 q 586 379 586 363 q 608 399 586 396 q 621 371 621 389 m 185 157 q 217 163 203 160 l 215 150 l 208 156 l 185 157 m 89 235 q 104 235 96 235 q 207 228 142 235 l 183 228 q 135 231 167 228 q 89 235 103 233 m 38 231 q 79 235 57 235 q 89 235 83 235 q 38 231 61 233 z "},"P":{"ha":1207,"x_min":-3,"x_max":1293,"o":"m 1293 692 q 1129 324 1293 451 q 733 214 976 203 q 750 -272 736 51 q 629 -285 625 -285 q 292 -243 571 -285 q 11 -208 25 -203 l -3 218 q 6 530 -3 322 q 15 842 15 738 q 26 913 15 890 q 342 1042 50 961 q 703 1118 617 1118 q 1096 1022 933 1118 q 1293 692 1293 906 m 754 1082 q 710 1083 731 1083 q 663 1081 683 1083 q 688 1069 679 1079 q 754 1082 713 1075 m 533 1003 l 532 1010 q 524 1006 531 1008 q 533 1003 531 1004 m 461 1039 q 449 1039 454 1039 q 374 1028 389 1039 l 375 1014 q 461 1039 396 1017 m 396 942 l 393 954 q 378 949 386 949 q 322 951 360 949 q 267 953 285 953 q 211 951 239 953 q 217 944 215 947 q 396 942 336 942 m 1257 667 q 1142 950 1257 842 q 851 1058 1026 1058 q 621 1011 772 1058 q 410 918 469 964 l 415 911 q 374 883 410 885 q 361 742 360 822 l 367 521 l 394 500 l 364 483 q 343 -115 343 122 q 413 -186 343 -196 l 353 -214 l 353 -219 q 497 -239 397 -224 q 643 -253 592 -253 l 718 -235 q 708 11 713 -89 q 679 226 699 207 l 688 254 l 789 249 q 1115 358 974 239 q 1257 667 1257 478 m 247 981 l 218 979 q 208 964 213 974 q 247 981 231 975 m 276 910 q 121 917 174 917 l 125 904 l 131 910 l 275 897 l 276 910 m 340 819 q 338 832 340 822 q 101 854 238 854 q 67 876 78 854 l 69 878 q 60 879 64 879 q 58 860 58 869 l 58 831 l 113 831 q 290 824 204 831 q 311 819 297 824 q 332 814 325 814 q 340 819 340 814 m 336 457 q 329 488 336 468 q 208 496 272 496 q 83 488 140 496 l 76 492 q 56 511 56 489 q 240 529 132 529 q 328 526 282 529 l 328 617 q 67 638 253 638 q 53 650 51 638 l 53 660 q 165 671 103 671 q 328 658 228 671 q 333 760 333 725 l 333 779 q 124 800 210 801 l 54 799 q 44 579 44 717 q 42 360 44 413 q 124 364 83 364 q 317 353 161 364 q 322 400 322 374 l 322 406 q 157 418 226 418 q 110 415 142 418 q 63 413 78 413 q 44 435 44 413 l 44 442 q 193 454 94 454 l 228 454 q 272 447 243 454 q 315 439 300 439 q 336 457 336 439 m 315 299 l 315 315 q 96 329 232 329 l 44 329 q 38 324 38 329 l 38 306 q 117 308 75 308 q 315 299 193 308 m 315 222 l 315 264 q 153 279 261 267 q 122 275 140 275 q 92 277 113 275 q 63 279 72 279 q 28 254 28 279 q 29 239 28 247 l 85 240 q 315 222 126 242 m 315 178 l 313 188 q 31 210 215 206 l 31 168 q 33 132 31 147 l 96 131 q 204 133 129 131 q 313 135 275 136 l 311 146 q 313 162 311 151 q 315 178 315 172 m 315 35 l 315 67 q 313 97 315 85 q 231 100 276 100 l 111 100 q 35 103 101 100 l 35 58 q 75 60 54 60 q 315 35 142 60 m 311 -43 l 311 -1 q 186 22 261 18 l 100 28 q 58 31 63 31 l 53 26 l 38 31 l 35 24 q 40 -10 40 -4 l 90 -10 q 311 -43 278 -10 m 315 -174 q 312 -151 315 -167 q 308 -129 308 -136 q 68 -104 206 -104 q 44 -86 56 -104 q 135 -69 85 -69 q 222 -79 171 -69 l 311 -96 l 311 -62 q 197 -49 296 -61 q 79 -40 129 -40 q 38 -42 57 -40 l 38 -157 q 147 -144 92 -144 q 313 -175 254 -144 l 315 -174 m 315 -206 q 172 -175 263 -183 q 38 -161 69 -165 l 38 -167 q 90 -176 56 -168 q 118 -186 111 -185 q 314 -215 201 -208 l 315 -206 m 1068 386 q 1051 368 1068 368 q 1028 376 1040 368 q 1015 393 1015 383 q 1026 401 1015 400 q 1039 404 1038 401 l 1049 404 q 1068 386 1068 404 m 897 386 q 879 369 897 369 q 854 388 854 369 q 872 407 854 407 q 897 386 897 407 m 838 561 q 810 457 838 499 q 738 376 794 431 q 661 331 700 340 q 631 376 638 354 q 643 381 636 378 q 660 371 650 381 l 661 374 l 657 385 l 653 383 q 635 396 635 383 l 639 407 q 656 415 649 411 q 654 433 654 424 q 659 472 654 446 q 664 510 664 497 q 651 556 664 535 q 664 569 664 563 q 663 585 664 575 l 663 601 l 661 606 l 650 606 q 631 618 631 606 q 633 636 631 625 q 686 658 649 639 q 740 676 719 676 q 825 642 760 676 q 838 561 838 601 m 651 -185 q 633 -206 651 -199 q 603 -185 617 -199 q 635 -168 613 -168 q 651 -185 651 -168 m 551 -210 q 540 -219 551 -219 q 518 -206 518 -219 q 522 -196 518 -201 q 526 -187 526 -190 l 535 -187 q 551 -210 551 -187 m 750 651 q 707 639 708 651 q 733 640 725 639 l 738 640 q 746 639 743 640 l 750 651 m 789 610 q 764 617 782 617 q 722 613 728 617 l 728 613 q 751 610 736 613 q 775 608 767 608 q 789 610 783 608 m 814 563 l 803 574 q 751 578 775 578 l 733 578 q 688 575 713 578 l 694 567 q 743 578 719 576 q 803 561 803 572 l 803 558 l 814 563 m 803 538 q 746 543 778 543 q 696 540 722 543 q 694 531 696 538 l 694 518 q 696 510 694 514 q 797 514 729 510 q 803 538 803 533 m 782 475 q 758 481 768 476 q 733 472 750 472 q 715 475 728 472 q 694 478 701 478 q 686 471 686 478 q 689 461 686 467 q 715 468 700 468 q 736 466 722 468 q 757 464 750 464 q 782 475 775 464 m 744 429 q 732 432 739 432 q 692 425 719 432 l 692 421 q 718 418 714 418 q 744 429 736 418 z "},"Q":{"ha":1689,"x_min":-6,"x_max":1747,"o":"m 1747 -182 q 1128 -551 1531 -542 l 1113 -486 l 1063 -460 l 1082 -437 l 1064 -379 l 1019 -353 l 1033 -319 l 1019 -281 l 967 -286 q 236 -164 374 -286 l 222 -165 q 135 -64 182 -165 q 75 74 115 -18 l 71 74 l 56 93 q 57 113 57 106 q 42 144 57 133 l 8 167 l 39 179 l -6 290 q 15 497 0 306 q 29 692 31 689 l 67 750 l 75 760 l 72 760 l 56 786 q 151 843 100 792 q 1043 1108 419 1108 q 1543 974 1274 1108 q 1621 860 1564 926 q 1701 753 1683 789 q 1736 582 1736 685 q 1557 19 1736 231 q 1747 -182 1640 -108 m 581 1015 q 528 1006 549 1010 q 543 1003 535 1003 q 581 1015 558 1003 m 497 999 q 418 990 444 992 l 422 974 q 497 999 456 989 q 514 1003 507 1000 q 497 999 506 1001 m 510 951 l 508 967 q 444 960 488 960 q 339 951 364 960 l 343 936 q 464 956 418 956 q 510 951 486 956 m 1699 -189 q 1494 21 1525 -40 q 1650 243 1599 100 q 1694 514 1694 365 q 1625 824 1694 710 q 1369 1003 1547 949 q 1026 1060 1260 1036 q 864 1036 974 1039 q 699 1017 747 1032 q 385 754 513 960 q 264 360 264 561 q 278 179 264 229 q 329 76 288 146 q 389 -35 375 0 l 457 -61 l 474 -93 q 972 -240 717 -240 q 1246 -197 1115 -240 q 1346 -312 1293 -233 q 1436 -436 1411 -408 q 1699 -189 1592 -364 m 415 861 q 406 861 410 861 q 181 817 235 861 q 319 828 246 828 q 386 825 351 828 q 415 861 399 839 m 456 917 l 401 917 q 290 893 326 917 q 279 896 285 896 q 256 883 267 896 l 413 900 q 432 883 424 900 q 456 917 443 899 m 357 785 q 274 789 308 789 q 146 772 203 789 l 147 769 q 132 749 147 758 q 108 733 108 733 q 103 735 107 735 q 96 728 99 735 q 168 736 119 729 q 213 744 201 744 q 262 739 229 744 q 311 733 294 733 q 357 785 356 733 m 1243 -236 q 1063 -262 1089 -262 l 1056 -262 l 1057 -279 q 1222 -250 1167 -258 q 1231 -253 1225 -253 q 1242 -249 1235 -253 q 1236 -244 1242 -244 l 1243 -236 m 1257 -276 q 1074 -301 1196 -287 l 1075 -311 q 1257 -276 1138 -299 m 1300 -332 l 1294 -324 q 1267 -322 1281 -322 q 1139 -339 1267 -322 q 1094 -343 1136 -339 l 1092 -349 l 1096 -362 q 1300 -332 1140 -349 m 1351 -401 q 1333 -378 1346 -393 q 1297 -376 1315 -376 q 1111 -396 1240 -376 q 1121 -424 1114 -412 q 1351 -401 1132 -422 m 311 699 q 253 701 283 701 q 74 690 229 700 l 67 656 q 207 663 104 663 q 275 636 275 663 q 268 621 275 628 q 183 625 231 625 q 61 622 174 625 q 58 604 61 617 q 56 586 56 592 q 261 597 204 603 q 311 699 278 632 m 1394 -456 l 1385 -446 l 1306 -446 q 1138 -458 1210 -446 q 1149 -481 1138 -461 q 1336 -454 1289 -454 q 1378 -457 1357 -454 q 1386 -462 1382 -462 q 1394 -456 1389 -461 m 1293 -493 q 1213 -504 1256 -496 l 1217 -507 q 1293 -493 1236 -500 m 42 379 l 42 328 l 226 328 q 221 361 218 349 q 107 371 143 371 q 46 367 76 371 l 42 379 m 254 558 q 196 561 228 561 q 49 550 138 561 q 42 458 42 507 l 42 394 q 136 408 82 408 q 225 404 151 408 q 230 422 225 408 q 235 442 235 436 q 217 456 235 456 q 184 452 206 456 q 151 449 163 449 q 141 450 147 449 q 131 451 135 451 q 107 448 122 451 q 83 444 92 444 q 53 453 68 444 q 122 488 64 482 q 207 489 136 489 q 244 511 235 489 q 254 558 250 535 m 231 269 q 228 285 231 276 q 56 292 171 285 l 51 289 q 61 244 53 274 q 185 256 149 256 q 229 253 208 256 l 231 269 m 233 192 l 233 214 q 174 218 204 218 l 154 218 q 75 203 75 218 q 81 182 75 194 q 233 192 146 194 m 397 -200 q 390 -181 389 -192 q 464 -172 422 -172 q 540 -176 490 -172 q 407 -149 476 -153 q 272 -144 363 -147 q 397 -200 319 -181 m 663 -228 q 524 -217 635 -219 l 493 -215 q 663 -228 538 -219 m 282 42 q 264 69 276 51 q 208 73 244 69 q 151 76 171 76 q 114 74 131 76 q 158 32 118 32 q 210 38 175 32 q 261 44 244 44 q 282 42 272 44 m 350 -49 q 322 -1 343 -32 l 322 -6 l 308 -6 q 273 1 296 -6 q 239 7 250 7 q 146 -1 169 7 q 176 -58 157 -33 q 350 -49 299 -44 m 417 -108 q 297 -85 372 -83 l 193 -86 l 192 -87 q 217 -118 201 -97 q 360 -107 283 -107 q 417 -108 388 -107 m 222 122 q 222 115 222 118 l 228 114 q 250 111 243 111 l 253 111 q 242 131 244 114 q 238 149 239 147 q 194 153 218 153 q 92 142 160 153 q 106 108 97 132 q 206 117 179 117 q 196 131 201 122 l 222 131 l 222 122 m 1146 549 q 1101 542 1128 549 l 1111 522 q 1132 506 1132 519 l 1128 489 l 1117 489 q 1111 483 1111 489 q 1121 476 1111 482 q 1131 458 1131 471 l 1128 444 l 1108 451 q 1078 403 1103 451 l 1086 388 q 1040 372 1078 376 q 952 320 1017 343 q 844 297 888 297 q 728 335 779 297 q 671 438 671 375 q 749 585 671 519 q 906 647 822 647 q 968 634 926 647 q 1032 622 1010 621 q 1146 549 1074 572 m 1068 528 q 1058 539 1064 539 q 1053 529 1058 539 l 1054 528 l 1068 528 m 782 565 q 760 544 765 556 l 817 544 q 1013 533 908 544 l 1014 547 q 918 546 1001 546 q 895 548 910 546 q 872 550 881 550 q 850 549 864 550 l 828 549 q 783 561 800 549 l 782 565 m 1010 583 q 968 596 997 588 q 911 607 921 607 q 835 590 881 607 l 842 590 q 1010 583 874 592 m 714 408 q 743 374 721 390 q 818 385 778 385 q 885 381 813 385 q 950 382 919 379 l 961 365 q 993 382 978 368 q 733 397 922 393 l 726 403 l 726 401 q 714 408 718 401 m 867 500 q 738 508 772 507 q 710 426 710 458 q 711 415 710 421 l 711 417 l 711 425 q 826 436 765 436 q 1039 415 896 436 q 1061 449 1051 426 l 858 461 q 758 454 806 461 q 744 458 757 458 q 725 476 725 458 l 726 486 q 867 500 790 499 m 1076 489 q 985 492 1076 489 q 1064 486 1038 486 l 1076 489 m 864 342 q 815 344 835 343 q 840 339 826 339 q 864 342 850 339 m 704 282 q 681 264 704 264 q 661 290 669 264 q 660 299 660 294 q 675 317 660 317 q 704 282 704 317 m 611 -76 q 590 -79 600 -79 q 522 -24 561 -79 q 540 -22 532 -22 q 611 -76 592 -22 m 500 -10 q 497 -24 500 -17 q 449 1 449 -15 q 467 22 449 22 q 500 -10 500 22 z "},"R":{"ha":1233,"x_min":-6,"x_max":1286,"o":"m 1286 -56 q 1081 -192 1218 -111 q 868 -285 921 -285 q 754 -272 828 -285 q 642 -256 676 -258 q 606 -171 628 -210 l 550 -171 q 10 -211 204 -171 q 17 -78 8 -164 l 14 -78 l -3 -75 l 17 -49 l 18 -24 l 0 -7 q 18 94 18 29 q 15 168 18 121 l 10 231 l 8 231 l -6 261 l 10 274 q 18 454 11 339 q 25 635 25 576 q 17 783 25 717 q 24 810 24 797 q 19 835 24 818 q 15 863 15 853 q 381 1025 15 928 q 835 1114 713 1114 q 1285 710 1285 1114 q 1240 486 1285 596 q 1106 307 1190 361 l 1210 128 q 1286 -56 1275 7 m 485 1022 l 479 1035 q 442 1025 467 1025 l 428 1025 q 385 1022 394 1025 l 389 1008 q 436 1021 408 1018 q 485 1022 460 1021 m 414 989 l 408 1000 l 403 996 q 297 989 396 996 l 299 975 q 414 989 375 986 m 310 954 q 246 946 275 951 q 310 954 286 949 m 1249 710 q 1164 975 1249 858 q 1136 1000 1147 974 q 1007 1056 1119 1019 l 1004 1053 q 826 1083 919 1083 q 550 1021 744 1083 q 331 896 332 951 l 354 861 l 333 843 q 339 346 339 568 q 329 -151 339 50 q 510 -137 368 -150 q 690 -131 619 -128 l 688 -126 l 703 -99 l 699 -85 l 679 -69 l 701 -49 q 699 51 703 -15 l 693 151 l 713 156 q 767 117 747 156 q 804 58 790 68 q 874 -78 850 -31 q 931 -218 913 -158 l 949 -221 q 1086 -135 965 -201 q 1243 -44 1218 -61 q 1056 315 1161 163 q 1153 422 1104 368 q 1226 543 1207 488 q 1249 710 1249 607 m 740 99 q 738 97 739 99 l 739 103 l 739 111 l 725 106 q 735 94 726 103 l 740 99 m 757 61 q 747 65 753 65 q 733 60 742 65 q 732 57 732 58 q 735 56 732 56 q 757 61 736 57 m 785 21 q 774 28 782 28 q 756 24 768 28 q 739 21 744 21 q 753 17 740 17 q 785 21 758 17 m 814 -35 q 774 -12 807 -12 q 738 -18 757 -12 q 733 -35 733 -29 q 746 -44 733 -44 q 780 -40 757 -44 q 814 -35 803 -35 m 850 -111 q 840 -93 849 -107 q 801 -74 826 -74 q 763 -74 778 -74 q 743 -74 749 -74 q 742 -75 738 -75 q 738 -90 738 -78 q 740 -112 738 -97 q 792 -107 765 -107 q 818 -111 800 -107 q 844 -115 836 -115 q 850 -111 850 -115 m 857 -260 l 857 -247 q 844 -250 851 -250 q 824 -247 838 -250 q 806 -243 811 -243 l 804 -257 l 818 -257 q 857 -260 849 -257 m 907 -244 q 893 -224 906 -226 q 903 -240 897 -237 l 907 -244 m 788 -257 l 788 -243 l 771 -243 l 771 -257 l 788 -257 m 304 129 q 303 153 304 138 l 267 154 q 167 146 240 156 q 76 126 88 136 q 51 151 60 126 q 175 178 101 169 l 301 192 l 301 224 q 300 242 301 235 q 257 244 279 244 q 191 241 235 244 q 125 238 147 238 q 108 263 108 253 q 203 275 146 275 q 299 276 282 274 q 301 357 301 319 q 299 439 301 393 q 213 447 263 447 q 131 444 185 447 q 50 440 78 440 q 51 422 51 429 q 44 361 51 403 q 222 378 144 378 q 243 381 229 378 q 264 383 257 383 q 296 354 289 383 q 169 339 239 344 q 43 329 54 329 q 40 300 40 315 q 44 264 40 279 q 58 266 49 264 q 71 268 67 268 q 92 256 83 268 q 78 231 92 235 q 44 231 72 229 q 46 190 46 210 q 44 163 46 178 q 44 149 44 151 q 47 86 44 115 l 290 104 q 304 129 304 104 m 304 38 q 306 53 306 47 q 267 75 306 75 q 225 70 253 75 q 183 65 197 65 q 115 61 164 65 q 49 58 74 57 q 47 42 49 53 q 44 25 44 31 l 44 22 q 265 39 190 39 q 304 38 283 39 m 301 8 q 236 6 296 6 q 142 0 196 6 l 47 -10 l 47 -12 q 49 -26 47 -17 q 51 -39 51 -35 q 299 -22 225 -19 q 301 8 301 -15 m 296 -60 q 229 -57 264 -57 q 56 -69 147 -57 q 44 -118 44 -97 l 44 -124 q 214 -114 151 -114 q 285 -117 251 -114 q 296 -60 289 -110 m 289 -151 q 217 -147 254 -147 l 104 -147 q 70 -154 101 -150 q 39 -164 39 -158 l 39 -168 q 146 -172 124 -172 q 279 -157 196 -172 q 289 -151 283 -157 m 297 563 q 226 565 256 565 q 99 550 156 565 q 88 568 88 563 q 146 588 88 579 q 218 593 188 593 q 297 582 260 593 l 301 656 q 299 711 301 688 l 283 711 q 267 713 272 713 q 217 708 250 713 q 167 704 183 704 q 94 718 132 704 q 294 749 165 742 l 296 781 q 292 838 297 800 l 268 839 q 198 824 243 840 q 131 807 153 807 q 104 828 104 807 q 290 876 219 868 l 290 888 l 215 888 q 101 881 157 888 q 67 875 96 875 q 54 842 54 875 q 63 792 54 806 q 51 472 58 685 q 178 478 97 478 q 300 475 231 478 q 297 563 296 515 m 928 649 q 875 496 928 564 q 776 406 842 453 q 713 346 718 363 q 688 344 690 346 q 676 581 676 474 q 679 674 676 629 l 664 674 q 771 751 746 751 q 868 722 817 751 q 928 649 928 690 m 725 596 l 725 576 q 804 585 751 579 q 881 585 854 589 q 888 603 886 596 l 864 603 q 819 603 847 604 q 776 600 785 600 q 756 596 768 600 q 738 592 744 592 q 725 596 731 592 m 890 639 l 890 654 q 844 697 890 676 q 779 717 804 717 q 735 697 735 717 q 739 696 736 697 q 774 699 751 696 q 810 701 797 701 q 857 667 857 701 q 778 668 850 668 q 726 665 747 668 q 725 638 725 653 l 725 622 q 890 639 769 635 m 719 440 q 725 415 721 415 q 757 433 729 415 l 747 433 q 719 440 731 433 m 719 476 l 719 461 q 750 468 733 468 q 796 469 793 468 l 797 465 q 818 483 801 469 q 750 471 743 471 q 719 476 735 471 m 867 544 q 826 549 849 549 q 724 535 811 549 q 719 493 721 517 q 801 514 738 504 q 867 544 854 522 m 857 667 q 857 667 858 667 l 857 667 z "},"S":{"ha":1074,"x_min":-7,"x_max":1139,"o":"m 1139 1086 q 1122 657 1139 942 l 1094 671 l 1094 672 q 1011 686 1076 674 q 928 696 961 696 q 843 675 879 696 q 799 606 799 650 q 876 450 799 540 l 1021 282 q 1099 58 1099 172 q 918 -231 1099 -151 q 554 -285 794 -285 q 296 -269 458 -285 q 38 -247 89 -250 q 13 119 13 -75 q -7 188 13 167 q 122 211 36 194 q 207 265 207 228 q 161 364 207 304 q 76 482 92 456 q 31 653 31 564 q 381 1042 31 921 q 954 1119 631 1128 l 1117 1115 l 1139 1086 m 472 1011 q 360 979 415 993 q 108 829 156 931 q 90 806 101 814 l 88 794 q 269 800 110 797 l 347 801 q 368 865 357 822 l 356 867 q 328 863 346 867 q 300 858 310 858 q 251 872 276 858 q 342 892 269 881 q 394 924 394 900 q 410 944 394 938 q 450 996 417 972 l 472 1011 m 1101 1049 l 1085 1085 l 1003 1085 q 590 1031 724 1085 q 381 710 381 946 q 404 646 381 668 l 388 632 l 396 583 l 410 588 l 422 565 l 408 550 q 486 442 425 499 q 585 346 569 365 q 635 213 635 285 q 593 131 635 164 q 501 97 551 97 q 358 143 442 97 q 361 81 364 115 q 356 18 356 21 q 357 -106 356 -21 q 358 -229 358 -190 q 549 -249 419 -249 q 882 -206 767 -249 q 1064 40 1064 -137 q 988 267 1064 158 q 844 433 939 322 q 767 610 767 526 q 828 701 767 669 q 943 728 878 728 q 1019 719 968 728 q 1094 710 1069 710 q 1101 1049 1101 857 m 349 760 l 349 769 q 92 767 263 769 l 81 774 q 71 740 79 761 q 68 692 71 722 q 65 642 67 654 l 342 665 q 349 760 349 771 m 356 581 q 347 631 354 597 q 104 619 271 619 q 91 617 100 619 q 78 614 82 614 q 65 619 69 614 q 75 553 67 579 q 356 581 168 565 m 422 458 q 369 543 403 485 q 228 538 283 540 q 86 522 144 533 q 158 425 108 489 q 422 458 246 439 m 556 314 q 532 343 544 331 q 387 332 486 336 q 238 319 288 328 l 226 329 l 225 338 q 236 354 225 346 q 508 376 326 360 q 458 425 463 425 q 307 414 436 425 q 172 399 178 403 q 238 304 208 368 l 236 299 q 238 288 236 294 q 556 314 347 299 m 590 246 q 568 281 589 261 q 449 274 528 281 q 331 267 371 267 q 301 263 321 267 q 272 258 282 258 q 242 268 256 258 q 246 240 246 250 q 244 233 246 236 q 411 242 306 243 q 590 246 536 239 m 579 150 l 578 164 q 557 154 561 154 q 544 165 551 154 q 500 161 518 161 l 439 161 l 439 147 l 464 147 q 512 149 481 147 q 560 151 543 151 q 579 150 571 151 m 533 138 q 497 135 514 135 l 489 135 q 453 138 472 135 l 451 124 l 464 124 q 488 126 472 124 q 511 128 503 128 q 532 124 521 128 l 533 138 m 358 206 q 350 215 356 211 q 290 218 322 213 l 293 215 l 289 210 l 289 206 l 358 206 m 317 158 l 317 174 q 188 186 256 186 q 57 172 117 186 q 43 139 46 160 q 225 164 129 164 q 317 158 269 164 m 317 101 l 317 146 q 231 140 272 142 q 185 137 215 140 q 139 133 154 133 q 111 128 129 133 q 83 124 93 124 q 43 133 67 124 q 43 125 43 129 l 43 100 q 111 97 74 97 q 213 100 143 97 q 317 101 282 103 m 326 40 q 319 64 326 49 q 179 68 229 68 q 47 61 108 68 l 47 56 q 44 26 44 36 l 44 17 q 229 24 132 17 q 257 31 239 31 q 280 28 265 31 q 303 26 294 26 q 326 40 326 26 m 317 -51 l 317 -7 q 47 -21 226 -10 l 46 -39 q 49 -56 46 -46 q 219 -51 97 -51 l 317 -51 m 319 -93 l 318 -89 q 207 -83 265 -83 q 51 -92 136 -83 q 58 -122 50 -103 q 151 -117 99 -117 q 235 -119 179 -117 q 318 -122 290 -122 q 319 -93 318 -112 m 321 -190 l 319 -179 l 319 -158 q 158 -154 294 -154 q 132 -152 150 -154 q 106 -150 114 -150 q 58 -153 92 -150 l 67 -219 q 117 -215 90 -215 q 201 -221 144 -215 q 286 -226 258 -226 q 318 -225 303 -226 q 319 -215 319 -221 q 279 -204 285 -207 q 246 -176 268 -199 q 285 -187 278 -187 l 294 -187 q 304 -186 301 -186 q 321 -190 314 -186 m 1068 871 q 1049 854 1068 854 q 1033 867 1036 854 l 1028 889 l 1044 889 q 1068 871 1068 889 m 779 336 q 754 297 779 297 q 731 314 746 297 q 738 338 735 318 q 757 356 739 350 q 769 348 760 351 q 779 336 779 344 m 542 556 q 510 539 542 544 q 504 553 504 546 q 521 571 504 571 q 542 556 542 571 m 547 497 q 522 471 547 471 q 485 513 510 471 q 508 501 506 501 q 517 506 510 501 q 529 510 525 510 q 547 497 540 510 m 458 36 q 451 19 457 33 q 432 -3 449 13 q 413 29 413 6 q 435 54 413 54 q 458 36 458 54 z "},"T":{"ha":1172,"x_min":-7,"x_max":1250,"o":"m 560 -250 q 547 -258 554 -258 q 538 -247 538 -258 l 538 -247 q 306 -276 386 -276 q 238 -272 269 -276 q 169 -285 210 -283 q 100 -285 169 -285 l 82 -267 q 103 -71 100 -178 q 103 125 103 -71 q 128 496 103 339 q 113 497 121 497 q 75 490 101 497 q 35 485 49 483 l -7 488 q 31 743 -1 558 q 82 944 67 944 q 213 982 119 944 q 346 1038 257 1001 q 731 1084 367 1046 q 1135 1119 1094 1122 l 1204 1115 q 1250 858 1250 1064 q 1235 646 1250 750 l 1242 642 l 1246 618 q 1004 585 1176 617 l 1001 582 l 1001 372 q 985 -162 1001 51 l 957 -185 l 938 -182 q 624 -229 839 -182 q 558 -243 589 -236 q 560 -250 560 -246 m 1208 893 q 1188 1075 1208 1042 q 780 1033 1050 1072 q 375 994 510 994 l 372 986 l 385 974 q 358 599 358 851 l 367 568 q 496 581 413 568 q 625 594 585 593 l 640 581 q 594 -56 594 106 q 599 -178 594 -111 l 600 -200 l 635 -208 q 780 -186 676 -208 q 922 -147 883 -164 q 935 250 931 151 q 972 628 947 529 l 997 628 q 1100 639 1047 628 q 1199 651 1167 651 q 1208 893 1208 742 m 43 675 q 31 519 35 600 q 318 567 46 521 q 320 581 318 571 q 322 596 322 590 l 321 603 l 189 578 q 56 560 110 563 l 38 579 q 136 604 88 592 q 238 617 196 617 q 329 676 329 617 q 326 714 329 688 q 43 675 193 689 m 333 935 l 332 990 l 331 990 q 239 956 310 974 q 144 925 168 939 l 135 925 q 88 903 132 925 q 44 686 60 801 q 111 711 72 707 q 199 729 179 719 q 222 728 210 728 q 328 751 250 728 l 326 799 q 333 935 335 888 m 586 175 l 576 150 q 361 126 496 149 q 146 97 207 101 l 146 78 q 133 -79 146 25 q 119 -236 119 -183 l 135 -253 q 219 -242 164 -247 l 219 -236 l 247 -229 l 279 -240 q 421 -221 328 -240 q 558 -200 514 -201 l 561 -164 q 147 -197 424 -181 l 135 -178 l 138 -167 q 560 -126 279 -158 q 565 -87 567 -106 l 563 -58 q 171 -110 263 -110 q 132 -103 153 -110 q 175 -75 146 -78 q 231 -76 163 -76 q 567 -25 328 -76 l 571 46 q 368 26 493 46 q 165 -1 215 3 l 151 15 l 164 38 l 197 33 q 575 83 292 33 q 582 143 575 101 q 586 175 585 163 m 592 401 q 589 399 590 400 q 395 374 525 397 q 197 350 265 350 q 176 367 176 350 q 210 378 176 378 q 270 386 232 378 q 325 396 308 394 q 460 413 367 400 q 593 425 546 425 q 599 549 599 528 q 589 557 599 557 q 374 536 500 557 q 158 497 265 517 l 164 493 q 142 181 142 364 q 146 131 142 154 q 349 161 204 135 q 551 185 478 185 q 586 179 563 185 q 588 204 588 194 l 586 243 q 508 247 549 247 q 349 238 456 247 q 190 229 243 229 l 179 229 q 378 272 250 272 q 456 278 404 272 q 533 283 507 283 q 585 279 561 283 l 592 401 m 500 721 q 481 689 500 689 q 463 708 463 689 q 476 736 464 714 l 482 736 q 500 721 500 736 m 746 238 q 736 222 746 228 q 726 213 732 221 q 701 226 701 214 q 717 254 701 233 q 725 257 721 257 l 743 247 q 746 238 746 242 m 715 104 q 707 79 707 81 q 688 65 701 68 q 669 93 669 89 q 680 110 669 101 q 699 118 690 118 q 715 104 708 118 m 325 838 q 293 815 325 824 q 250 807 272 811 q 67 769 157 786 q 128 797 90 785 q 188 818 158 808 q 253 832 217 828 q 310 853 290 836 q 325 838 325 847 z "},"U":{"ha":1469,"x_min":-6,"x_max":1546,"o":"m 1546 1076 q 1522 926 1532 1040 q 1517 769 1515 839 q 1507 718 1507 753 q 1507 663 1507 663 q 1431 103 1478 260 q 1108 -231 1356 -146 q 621 -285 951 -285 q 261 -254 374 -285 q 44 -56 100 -211 q 13 254 7 51 l -6 269 l 10 289 q 19 910 19 451 q 28 1015 19 996 q 61 1032 33 1028 q 133 1064 99 1038 l 238 1061 q 492 1074 346 1058 q 746 1104 619 1089 l 749 1110 l 768 1117 l 781 1064 q 968 1064 854 1064 q 1156 1063 1149 1063 q 1529 1097 1381 1063 l 1546 1076 m 1083 922 l 1083 965 q 1076 1042 1083 1026 q 1003 1044 1051 1042 l 992 1031 q 835 993 933 1026 l 819 1006 q 863 1031 833 1026 q 913 1040 903 1035 q 849 1032 892 1040 q 786 1024 807 1024 l 785 1014 q 788 993 785 1008 q 789 969 790 978 q 808 954 797 967 l 1038 992 l 1049 975 q 1036 954 1049 972 q 916 935 996 949 q 792 922 836 921 l 789 906 q 792 878 789 897 q 793 850 794 860 q 813 856 799 857 l 824 846 l 847 844 q 943 857 882 843 q 1038 874 1011 872 q 1050 843 1050 864 q 944 824 1044 843 q 839 811 881 811 q 794 814 815 811 q 790 778 790 794 q 796 742 790 756 l 840 740 q 1031 769 882 739 q 1043 751 1043 763 q 1032 732 1043 736 q 917 713 1008 722 q 796 704 833 704 l 794 700 q 799 667 794 674 q 826 649 803 660 l 818 632 q 947 651 864 644 q 1076 667 1039 660 q 1083 922 1083 818 m 1081 574 l 1081 603 q 1078 629 1081 618 q 801 608 1050 626 l 801 601 q 803 581 801 594 q 806 560 806 567 q 858 556 831 556 q 969 565 896 556 q 1081 574 1043 574 m 1081 533 l 1065 533 q 1047 535 1060 533 q 1029 536 1035 536 q 921 529 989 536 q 813 519 843 521 l 813 468 l 831 468 q 849 457 847 468 l 906 457 q 1076 472 1008 457 l 1076 478 q 1081 533 1076 475 m 1503 1046 l 1503 1056 q 1367 1051 1453 1049 l 1232 1054 l 1114 1042 q 1118 601 1119 744 l 1117 464 q 1103 419 1103 446 q 1108 382 1103 403 l 1088 369 q 1029 253 1051 285 q 925 188 983 188 q 843 217 876 188 q 789 290 821 236 l 797 297 q 771 431 789 360 l 772 493 q 746 732 776 668 l 756 742 l 757 879 q 742 1071 758 1013 l 732 1071 q 435 1032 551 1071 q 425 738 425 924 q 419 443 425 514 q 424 418 424 432 q 420 385 424 407 q 417 353 417 364 q 476 -43 417 82 q 803 -225 564 -225 q 1295 -70 1138 -225 q 1453 419 1453 85 q 1468 650 1453 500 q 1486 881 1485 808 l 1490 888 q 1497 967 1490 914 q 1503 1046 1503 1019 m 1068 432 q 819 419 1042 429 l 819 417 q 842 297 819 326 q 958 305 881 299 q 1046 364 1036 311 q 876 332 904 332 q 829 353 829 332 q 840 371 829 364 q 872 368 856 368 q 964 381 901 368 q 1057 404 1026 393 l 1068 432 m 997 278 q 851 260 949 271 q 867 246 857 251 q 935 251 890 247 q 997 278 979 254 m 951 225 q 942 232 951 232 q 932 231 939 232 q 928 226 931 229 q 931 222 929 222 q 929 217 929 219 l 931 215 l 929 215 q 936 214 932 214 q 951 225 951 214 m 413 1013 l 413 1046 q 343 1050 381 1050 l 269 1050 q 36 989 94 1050 q 39 926 39 960 q 28 769 39 885 l 29 769 q 26 724 29 756 q 24 676 24 693 q 28 631 24 651 l 36 631 q 99 643 65 631 l 88 628 q 401 693 214 629 q 410 733 410 726 q 406 778 410 749 q 403 822 403 807 q 408 917 403 854 q 413 1013 413 981 m 772 -264 l 771 -250 l 714 -250 l 718 -264 q 728 -261 721 -261 q 745 -263 733 -261 q 763 -265 757 -265 q 772 -264 768 -265 m 397 69 q 390 172 399 104 q 247 160 342 172 q 103 147 151 147 q 65 168 82 147 q 164 203 96 203 q 140 185 156 194 q 346 207 311 207 q 388 204 368 207 q 381 399 382 425 q 251 381 357 397 q 121 368 172 368 q 43 375 79 368 l 43 288 l 53 286 q 76 289 54 286 q 99 288 89 290 l 106 292 l 124 292 q 192 295 146 292 q 260 299 238 299 q 298 307 272 299 q 338 315 324 315 q 381 300 358 315 q 219 265 322 274 q 50 257 135 261 l 49 219 q 67 51 47 192 q 85 56 72 51 q 106 61 99 61 q 135 56 118 61 q 103 36 119 46 q 397 69 165 35 m 422 -40 q 406 31 404 -6 q 261 17 361 29 q 115 4 167 4 q 67 6 89 4 l 67 1 q 72 -49 65 -10 q 95 -46 81 -49 q 118 -43 110 -43 q 146 -53 135 -43 q 283 -44 194 -43 q 422 -40 381 -46 m 596 -225 q 536 -181 558 -206 q 460 -178 504 -178 l 354 -178 q 167 -157 244 -178 q 133 -135 133 -149 l 135 -126 q 167 -117 146 -117 q 197 -122 182 -117 l 197 -129 l 190 -140 q 493 -143 292 -139 q 466 -101 485 -129 q 436 -74 447 -74 q 332 -77 401 -74 q 228 -81 263 -81 q 79 -83 94 -81 q 228 -210 151 -181 l 238 -189 q 417 -212 313 -206 l 596 -225 m 386 532 l 382 525 q 75 486 279 508 q 46 507 46 494 l 46 514 q 121 540 79 540 q 131 538 129 540 q 82 511 124 529 l 83 511 q 225 529 129 519 q 369 556 321 539 q 386 543 382 550 q 392 665 388 624 q 364 651 381 658 q 39 607 231 600 q 36 553 36 582 q 39 482 36 531 l 43 411 q 96 421 61 414 q 104 406 104 413 q 103 400 104 403 q 386 444 332 406 q 386 532 386 493 m 1247 650 q 1228 638 1235 638 q 1208 660 1208 638 q 1224 672 1208 672 q 1247 653 1247 672 l 1247 650 m 1260 572 q 1250 557 1260 564 l 1238 557 q 1224 569 1224 557 q 1240 588 1224 588 q 1260 572 1260 588 m 1306 489 q 1286 469 1306 469 q 1267 482 1279 469 q 1286 507 1275 507 q 1306 489 1306 507 m 1194 500 q 1174 485 1194 485 q 1153 503 1156 485 q 1182 517 1169 517 q 1194 500 1194 517 m 1151 274 q 1131 256 1151 256 q 1110 271 1110 256 q 1128 289 1110 282 l 1136 285 q 1147 286 1142 286 q 1151 274 1151 279 m 500 461 q 492 444 500 453 q 474 446 483 446 q 465 464 465 456 q 481 476 465 476 q 500 461 500 476 m 807 -11 q 789 -36 807 -18 l 783 -36 q 767 -18 767 -36 q 788 4 767 -4 q 807 -11 807 1 m 40 774 q 90 790 60 779 l 90 781 q 306 803 229 788 q 339 811 313 804 q 374 817 360 817 l 389 815 l 389 811 l 210 783 q 40 774 115 769 m 29 769 l 29 774 l 40 774 q 29 769 33 771 m 376 939 q 375 930 376 936 q 374 921 374 924 q 178 886 236 886 q 58 914 111 886 q 75 933 64 933 q 90 926 81 933 q 103 917 99 918 q 163 911 122 911 q 371 951 222 911 q 376 939 376 946 m 136 533 l 131 533 l 131 547 l 136 547 l 136 533 m 136 417 q 117 401 128 401 q 106 410 106 401 q 126 421 106 421 q 136 417 132 421 z "},"V":{"ha":1363,"x_min":-7,"x_max":1460,"o":"m 1460 1064 l 1449 1054 q 1333 407 1435 756 q 1113 -212 1267 179 q 347 -285 875 -285 l 329 -285 l 310 -246 l 289 -232 l 294 -203 l 272 -156 q 199 117 274 -124 q 108 429 119 371 l 103 428 q 99 436 99 428 q 104 444 100 444 q 31 694 79 528 q -7 950 -7 832 q 303 1044 -7 990 q 568 1078 492 1078 l 613 1078 q 685 1068 663 1078 q 719 1011 724 1051 q 974 1083 904 1067 q 1233 1118 1119 1118 q 1460 1064 1376 1118 m 1011 1010 l 1011 1026 q 786 986 908 1013 q 729 958 768 975 l 732 950 q 765 960 739 956 q 810 967 790 964 q 1011 1010 876 985 m 1013 951 q 1010 974 1013 963 q 881 945 969 971 q 756 922 792 919 l 738 924 l 754 857 l 769 863 q 781 849 782 858 q 875 875 807 856 q 960 893 893 879 q 1013 951 1013 911 m 988 868 q 893 840 956 860 q 796 818 874 832 q 761 797 761 813 q 769 774 761 788 q 875 788 815 772 l 978 814 q 988 868 981 832 m 967 772 q 783 736 906 758 q 796 697 789 717 q 817 665 806 669 q 953 703 861 682 q 967 772 956 725 m 942 667 q 818 638 926 661 q 844 613 822 613 q 892 624 861 613 q 936 636 922 635 q 942 667 938 646 m 928 596 q 925 599 928 599 q 903 590 929 599 q 844 571 844 581 q 861 550 844 564 q 918 564 867 550 q 928 596 928 603 m 907 526 q 881 519 900 525 q 878 517 879 519 q 889 504 878 504 q 903 507 894 504 q 905 516 903 510 q 907 526 907 522 m 1417 1022 l 1417 1050 q 1201 1085 1342 1085 q 1044 986 1044 1085 q 981 673 1044 957 q 911 382 917 389 q 869 454 893 397 q 826 519 846 507 l 829 540 q 679 1032 728 722 q 592 1044 642 1044 q 371 1008 483 1044 q 497 396 394 746 q 681 -208 510 356 l 706 -233 q 908 -210 744 -231 q 1092 -182 1078 -187 q 1417 1022 1417 521 m 361 888 q 331 1010 339 997 q 174 985 317 1006 q 33 950 56 968 q 37 897 40 935 q 42 844 33 860 q 201 871 100 863 q 361 888 326 882 m 511 253 q 492 318 504 275 q 174 310 385 321 l 171 313 l 164 335 q 321 349 228 347 q 482 354 451 351 q 449 544 474 381 q 404 718 429 674 q 96 701 301 718 q 79 721 79 707 q 394 749 89 749 q 368 851 390 760 q 207 839 349 849 q 47 814 107 832 q 97 585 68 697 l 92 585 l 100 576 q 136 451 117 514 q 401 471 358 472 l 446 469 l 460 451 l 458 438 l 385 439 q 256 433 360 439 q 142 424 146 428 q 164 335 147 388 l 161 335 l 158 322 l 171 313 q 193 235 189 254 q 511 253 349 251 m 538 144 q 515 221 529 169 q 204 206 411 215 q 232 106 213 167 q 383 129 254 108 q 538 144 478 144 m 565 46 l 550 108 q 417 94 510 107 q 283 83 331 83 q 232 104 254 83 q 256 28 242 69 q 565 46 413 36 m 588 -40 q 575 7 581 -21 l 514 8 q 390 3 460 8 q 267 -6 286 -6 l 283 -62 q 588 -40 379 -46 m 610 -104 q 599 -76 608 -93 q 547 -75 575 -75 q 292 -92 449 -75 q 301 -129 294 -101 q 456 -118 358 -129 q 610 -104 567 -107 m 636 -182 l 621 -140 q 313 -161 560 -142 l 328 -203 q 636 -182 431 -199 m 647 -235 l 647 -212 q 494 -224 597 -219 q 338 -236 390 -228 l 349 -251 l 399 -251 q 524 -244 444 -251 q 647 -235 614 -236 m 1064 458 q 1049 443 1064 443 q 1025 457 1025 443 q 1046 478 1025 467 q 1064 458 1064 471 m 1099 217 q 1085 199 1099 199 q 1071 197 1072 199 q 1060 211 1060 203 q 1082 236 1060 236 q 1099 217 1099 236 m 824 269 q 810 265 819 269 q 797 261 801 261 q 779 274 788 261 q 785 288 783 275 q 800 301 786 300 q 824 269 824 286 m 429 579 l 426 567 q 353 572 393 572 q 262 568 322 572 q 171 564 201 564 q 108 568 136 564 l 100 576 l 97 585 q 229 593 133 586 q 367 599 314 599 q 421 597 394 599 q 429 579 428 579 z "}}}
